<?xml version="1.0" encoding="utf-8"?>
<svg width="563.186" height="689.709" viewBox="0 0 563.186 689.709" fill="none" xmlns="http://www.w3.org/2000/svg">
  <g>
    <path d="M367.894 651.987C366.337 632.557 363.937 614.696 363.749 596.809C363.562 579.014 365.598 561.192 366.773 541.461C355.335 542.563 344.618 543.266 333.997 544.682C309.19 547.993 284.459 551.881 259.635 555.032C250.657 556.171 247.264 560.837 247.678 569.221C249.055 597.098 249.42 625.08 252.181 652.823C254.821 679.327 250.743 686.116 224.356 688.928C218.241 689.58 212.016 689.912 205.886 689.576C194.795 688.971 188.8 682.127 187.132 671.697C185.36 660.619 192.541 656.631 201.861 654.785C206.424 653.883 210.954 652.808 214.223 652.09C212.134 621.904 210.094 592.422 207.928 561.137C188.004 563.571 168.026 566.84 147.92 568.192C132.975 569.198 117.699 568.948 102.874 566.977C89.7996 565.239 81.2936 555.789 76.8966 543.276C75.6476 539.721 74.4966 535.924 74.3956 532.208C73.8926 513.546 65.6946 504.827 46.5536 498.622C-2.87437 482.597 -15.8724 409.259 21.8096 368.98C26.6346 363.823 31.7696 358.217 37.9266 355.188C54.8886 346.844 54.7016 333.733 52.4726 317.61C43.5866 253.346 35.3916 188.979 27.7586 124.553C24.3286 95.5969 37.9926 73.4849 63.9906 63.2029C107.022 46.1849 151.731 33.4509 195.089 17.1979C244.898 -1.47409 296.027 -2.05809 347.827 2.10791C385.597 5.14691 423.459 7.44091 461.076 11.8149C500.441 16.3889 512.445 27.7099 518.027 66.7029C528.339 138.741 538.269 210.869 546.278 283.189C553.354 347.088 558.005 411.271 562.908 475.392C565.022 503.046 555.657 530.148 514.792 531.038C481.764 531.757 448.845 536.645 415.822 538.878C404.271 539.659 404.681 547.802 404.325 554.804C402.881 583.156 402.042 611.54 401.219 639.917C400.917 650.343 402.217 660.903 400.948 671.179C400.287 676.533 396.278 685.193 392.664 685.808C378.52 688.218 363.783 689.39 349.603 687.874C345.798 687.468 341.219 676.063 340.734 669.435C340.427 665.244 346.224 659.199 350.774 656.439C355.716 653.44 362.384 653.285 367.894 651.987C367.894 651.987 367.894 651.987 367.894 651.987ZM64.7267 460.725C62.5007 439.581 60.3947 419.554 58.1147 397.886C32.0167 417.075 35.9217 459.463 64.7267 460.725C64.7267 460.725 64.7267 460.725 64.7267 460.725Z" fill="#000000" fill-rule="evenodd" transform="translate(0 0)" />
    <path d="M0.00973511 82.7026C0.00973511 75.6436 -0.0162659 68.5846 0.0167389 61.5246C0.063736 51.6206 5.21873 45.9146 14.5257 43.0446C57.8987 29.6696 101.218 16.1196 144.568 2.67461C147.266 1.8376 150.043 1.12361 152.835 0.744614C173.842 -2.10738 180.215 2.74062 183.152 23.9056C187.97 58.6066 192.757 93.3126 197.437 128.032C198.699 137.404 200.111 146.815 200.417 156.242C201.026 174.931 194.825 186.069 176.823 190.021C129.234 200.468 81.2797 209.29 33.3667 218.195C20.7837 220.533 16.8447 210.728 15.3548 200.944C15.3548 200.944 0.00973511 82.7026 0.00973511 82.7026C0.00973511 82.7026 0.00973511 82.7026 0.00973511 82.7026ZM65.6047 92.5486C75.8627 107.775 87.9227 112.497 102.886 108.08C115.919 104.232 124.788 96.0686 125.214 79.7846C110.73 104.961 90.5387 105.847 65.6047 92.5486C65.6047 92.5486 65.6047 92.5486 65.6047 92.5486ZM58.2797 80.1686C56.0107 74.9476 53.2067 71.6376 47.8307 72.3876C44.2067 72.6376 38.7067 78.1376 40.7527 84.0966C41.7747 87.0736 47.0687 92.6486 50.2777 91.5486C53.4177 90.4726 58.2067 88.1376 58.2797 80.1686C58.2797 80.1686 58.2797 80.1686 58.2797 80.1686ZM155.651 55.2986C154.708 50.1376 148.208 46.1376 143.851 46.6736C139.227 47.6376 136.78 53.6166 136.973 56.8656C137.163 60.0446 139.227 66.1376 145.141 65.9486C151.207 64.6376 155.207 60.1376 155.651 55.2986C155.651 55.2986 155.651 55.2986 155.651 55.2986Z" fill="#BDDC94" fill-rule="evenodd" transform="translate(77.384 68.585)" />
    <path d="M19.9535 39.6566C8.61746 39.7236 0.0774536 31.2386 0.000457764 19.8266C-0.075531 8.65363 9.15146 0.0955811 21.3715 0.000610352C32.3094 -0.083374 41.2675 8.79559 41.5625 20.0086C41.8455 30.7746 32.1575 39.5856 19.9535 39.6566C19.9535 39.6566 19.9535 39.6566 19.9535 39.6566Z" fill="#ED1C24" fill-rule="evenodd" transform="translate(237.199 458.971)" />
    <path d="M31.366 11.386L21.699 10.111L20.41 0L10.313 0L8.80899 10.111L0 11.386L0 18.583L9.453 20.423L11.389 32.595L20.412 32.381L22.129 19.563L31.366 18.583L31.366 11.386Z" fill="#FFF200" fill-rule="evenodd" transform="translate(120.247 405.445)" />
    <path d="M308.432 476.712C308.339 474.819 308.143 472.884 308.41 471.029C310.168 458.834 305.143 452.822 293.116 448.76C252.89 435.173 227.342 405.447 209.871 368.104C206.045 359.929 201.089 350.405 214.052 344.054C225.242 338.572 234.039 337.774 241.137 350.504C246.645 360.384 253.694 369.445 260.449 378.582C271.301 393.267 284.692 404.716 303.845 411.125C300.126 376.03 296.95 342.218 292.89 308.511C284.861 241.846 276.607 175.204 267.906 108.624C264.234 80.5227 260.109 52.4157 254.473 24.6597C250.282 4.01666 237.987 -3.65634 218.341 1.60466C186.454 10.1437 154.849 19.8117 123.372 29.7857C93.2158 39.3407 62.7588 48.4007 33.5759 60.4457C7.00285 71.4147 -2.59215 91.9047 0.584854 119.89C4.80086 157.023 8.76485 194.185 13.1228 231.301C16.9039 263.501 21.0809 295.655 25.2229 328.967C38.8769 323.475 48.1679 327.941 52.6409 339.644C57.2559 351.724 52.7589 361.201 41.2039 367.682C32.3259 372.662 28.3159 380 29.8999 391.091C35.9189 433.219 40.8419 475.503 46.8529 517.633C49.9059 539.032 59.4969 547.401 80.9859 547.546C95.6119 547.647 110.317 546.33 124.87 544.648C172.791 539.109 220.826 534.212 268.496 526.964C309.844 520.679 310.481 518.358 308.432 476.712C308.432 476.712 308.432 476.712 308.432 476.712ZM45.3029 270.07C43.0869 260.435 40.2099 250.829 39.2439 241.052C35.4308 202.465 31.5639 163.859 29.1158 125.172C27.7468 103.52 33.7988 96.0936 54.2088 90.2516C100.481 77.0086 146.759 63.7356 193.343 51.6606C211.611 46.9266 223.713 55.8446 226.447 74.7216C233.086 120.554 238.843 166.512 243.943 204.818C245.96 237.671 236.461 251.012 209.259 257.743C174.885 266.247 140.179 273.42 105.564 280.923C94.0389 283.421 82.4179 285.755 70.7199 287.096C57.9319 288.56 48.4178 283.618 45.3029 270.07C45.3029 270.07 45.3029 270.07 45.3029 270.07ZM105.725 507.811C95.7559 509.857 85.4519 510.717 75.2569 510.843C73.1548 510.869 70.4749 510.754 69.3098 503.169C68.2278 496.125 72.1498 494.383 75.2968 493.639C80.7548 492.348 86.4498 492.803 90.4789 492.053C95.8118 492.053 99.8959 490.362 102.853 490.556C107.467 490.858 110.8 495.259 111.412 498.361C112.734 505.068 108.347 507.274 105.725 507.811C105.725 507.811 105.725 507.811 105.725 507.811ZM106.155 420.91C101.711 421.396 108.297 433.021 98.4209 433.54C96.2628 433.653 90.3499 434.976 88.5379 433.664C84.9419 431.062 85.6749 426.174 82.0928 422.368C75.9888 415.883 69.4449 421.978 69.4438 410.976C69.4428 403.579 82.9529 401.958 82.9529 401.958C82.9529 401.958 81.4169 395.562 81.9379 391.694C82.2948 389.041 98.8508 388.604 101.644 389.712C103.426 394.095 105.78 397.047 105.726 398.82C110.998 402.375 111.185 400.239 117.889 404.757C118.532 412.597 121.482 419.233 106.155 420.91C106.155 420.91 106.155 420.91 106.155 420.91ZM154.528 501.222C148.066 502.41 138.489 502.981 128.361 504.789C117.888 506.147 119.219 502.352 118.221 497.805C116.021 487.777 125.15 486.276 132.964 485.36C138.103 484.758 143.139 484.575 148.301 483.968C153.531 483.354 161.994 482.355 162.625 492.047C164.543 501.222 159.099 500.381 154.528 501.222C154.528 501.222 154.528 501.222 154.528 501.222ZM176.441 383.131L200.53 415.857L166.484 425.171L176.441 383.131L176.441 383.131ZM218.236 495.778C204.037 495.778 192.526 484.267 192.526 470.068C192.526 455.868 204.037 444.358 218.236 444.358C232.435 444.358 243.946 455.868 243.946 470.068C243.946 484.267 232.435 495.778 218.236 495.778C218.236 495.778 218.236 495.778 218.236 495.778Z" fill="#00A79D" transform="translate(41.806 9.73)" />
    <path d="M4.98199 0C2.047 11.8 2.45999 19.326 0 29.219C9.198 27.114 13.705 26.079 21.969 24.188C16.088 15.816 11.429 9.18198 4.98199 0C4.98199 0 4.98199 0 4.98199 0Z" fill="#00AEEF" transform="translate(213.521 399.544)" />
    <g transform="translate(12.185 9.246)">
      <path d="M0 5.40302C5.069 10.167 7.60999 12.554 12.272 16.936C11.528 10.818 11.129 7.543 10.21 0C15.427 8.353 18.761 12.869 21.255 17.809C51.191 77.117 120.203 96.969 177.428 70.61C184.823 67.203 188.882 68.767 192.034 75.722C195.86 84.164 192.202 89.759 184.789 92.809C156.683 104.377 128.106 109.387 97.618 101.835C57.695 91.946 28.401 67.892 5.79605 35.135C1.12698 28.367 2.181 17.649 0 5.40302C0 5.40302 0 5.40302 0 5.40302Z" fill="#2BB673" fill-rule="evenodd" transform="translate(248.857 346.593)" />
      <path d="M57.8216 147.23C37.7096 146.429 21.7996 139.261 11.2466 121.994C-8.3054 90.0027 -1.89339 47.0157 26.8156 20.9837C38.4906 10.3957 49.1856 -2.9173 73.1116 0.565704C66.2846 4.59869 62.3816 6.90372 58.4806 9.20871C58.9786 9.98471 59.4776 10.7597 59.9746 11.5347C62.7946 11.5347 65.6156 11.5347 68.4356 11.5347C69.0336 12.0977 69.6306 12.6597 70.2276 13.2207C66.5006 14.8307 62.7736 16.4387 59.0456 18.0487C59.9906 19.3787 60.9366 20.7107 61.8816 22.0407C64.1236 22.6137 66.3656 23.1847 70.0996 24.1387C62.9606 29.0967 55.8576 32.4467 50.9266 37.7967C41.7926 47.7097 31.4026 57.6727 26.0846 69.6347C16.3516 91.5307 24.1526 111.255 45.6686 122.151C56.3596 127.564 60.9446 133.733 57.8216 147.23C57.8216 147.23 57.8216 147.23 57.8216 147.23Z" fill="#2BB673" fill-rule="evenodd" transform="translate(0 335.608)" />
      <path d="M24.148 120.333C24.148 95.6483 23.88 72.6293 24.266 49.6202C24.449 38.8102 26.213 28.0372 26.679 17.2233C27.243 4.08124 33.356 -1.72974 44.525 0.446289C43.172 32.8333 41.621 65.0783 40.627 97.3403C40.382 105.302 41.549 113.384 42.771 121.301C44.635 133.388 39.205 139.186 27.659 139.985C22.011 140.376 16.098 141.016 10.708 139.785C6.797 138.892 3.54501 135.11 0 132.618C2.953 129.411 5.33701 124.936 8.992 123.309C13.941 121.102 19.863 121.08 24.148 120.333C24.148 120.333 24.148 120.333 24.148 120.333Z" fill="#2BB673" fill-rule="evenodd" transform="translate(339.894 530.126)" />
      <path d="M40.981 0.738098C40.981 13.7341 40.625 26.9151 41.063 40.0681C41.77 61.3631 42.724 82.6621 44.13 103.921C44.782 113.785 40.902 117.932 31.221 117.771C23.659 117.646 16.036 118.693 8.54401 118.031C5.55099 117.767 2.83902 114.316 0 112.314C2.396 109.334 4.20401 105.071 7.31299 103.646C13.431 100.842 24.731 101.037 25.881 97.4351C28.247 90.0271 25.048 80.9501 24.668 72.5351C23.774 52.7341 22.532 32.9121 22.71 13.1101C22.83 -0.391907 24.766 -1.09088 40.981 0.738098C40.981 0.738098 40.981 0.738098 40.981 0.738098Z" fill="#2BB673" fill-rule="evenodd" transform="translate(188.096 549.714)" />
      <path d="M251.84 470.31C250.584 436.733 248.652 403.143 245.687 369.675C240.801 314.55 235.696 259.416 229.111 204.475C222.87 152.409 215.19 100.493 206.979 48.696C203.167 24.647 193.304 16.906 169.051 14.184C134.743 10.335 100.456 6.20701 66.072 3.19C43.233 1.187 20.24 0.921005 0 0C4.38 20.014 9.733 38.93 12.509 58.22C20.317 112.488 27.602 166.843 34.085 221.284C41.132 280.46 47.694 339.714 52.982 399.068C54.254 413.339 60.3 416.846 72.464 418.823C94.832 422.455 102.004 420.199 114.251 402.215C125.102 386.281 146.355 380.569 163.361 389.019C179.102 396.839 187.298 417.856 182.007 436.832C177.378 453.431 160.198 463.067 142.4 462.292C115.439 461.118 88.389 461.986 59.902 461.986C59.902 479.72 59.902 499.644 59.902 520.866C111.693 516.619 164.986 512.393 218.251 507.817C243.871 505.618 252.809 496.194 251.84 470.31C251.84 470.31 251.84 470.31 251.84 470.31ZM162.1 153.887C162.062 156.763 159.073 162.43 155.235 162.43C152.353 162.43 148.091 157.236 148.013 153.867C147.946 150.957 148.012 143.227 153.82 143.275C159.589 142.513 162.136 151.024 162.1 153.887C162.1 153.887 162.1 153.887 162.1 153.887ZM146.771 58.387C152.541 57.626 155.087 66.137 155.051 69C155.013 71.876 152.024 77.543 148.186 77.543C145.304 77.543 141.042 72.349 140.964 68.98C140.897 66.069 140.963 58.339 146.771 58.387C146.771 58.387 146.771 58.387 146.771 58.387ZM126.961 104.852C132.731 104.091 135.277 112.602 135.241 115.465C135.203 118.341 132.214 124.008 128.376 124.008C125.494 124.008 121.232 118.814 121.154 115.445C121.087 112.534 121.153 104.804 126.961 104.852C126.961 104.852 126.961 104.852 126.961 104.852ZM118.188 153.887C118.15 156.763 115.161 162.43 111.323 162.43C108.441 162.43 104.179 157.236 104.101 153.867C104.034 150.957 104.1 143.227 109.908 143.275C115.677 142.513 118.224 151.024 118.188 153.887C118.188 153.887 118.188 153.887 118.188 153.887ZM102.859 58.387C108.629 57.626 111.175 66.137 111.139 69C111.101 71.876 108.112 77.543 104.274 77.543C101.392 77.543 97.13 72.349 97.052 68.98C96.985 66.069 97.051 58.339 102.859 58.387C102.859 58.387 102.859 58.387 102.859 58.387ZM79.825 115.444C79.758 112.534 79.824 104.804 85.632 104.852C91.402 104.091 93.948 112.602 93.912 115.465C93.874 118.341 90.885 124.008 87.047 124.008C84.165 124.007 79.903 118.813 79.825 115.444C79.825 115.444 79.825 115.444 79.825 115.444ZM175.213 124.007C172.331 124.007 168.069 118.812 167.991 115.443C167.924 112.533 167.99 104.803 173.798 104.851C179.568 104.09 182.114 112.601 182.078 115.464C182.04 118.34 179.05 124.007 175.213 124.007C175.213 124.007 175.213 124.007 175.213 124.007Z" fill="#2BB673" fill-rule="evenodd" transform="translate(287.377 0)" />
    </g>
  </g>
</svg>