<svg version="1.1" id="Слой_1" xmlns="http://www.w3.org/2000/svg" xmlns:xlink="http://www.w3.org/1999/xlink" x="0px" y="0px" viewBox="0 0 1024 1024" style="enable-background:new 0 0 1024 1024;" xml:space="preserve"><style type="text/css">
	.st0{fill:#E26DAC;}
	.st1{fill:#FECE33;}
	.st2{fill:#0070D4;}
	.st3{fill:#F1CEE3;}
</style><g><path class="st0" d="M523.1,17.7c0,0-311.9-18.4-441.5,320.3C20.7,531.7,44.7,810.2,163,932s583,105,702.7-2.6   S985.8,564,945.1,335.9C924.2,223.2,808.2,2.9,523.1,17.7z"/><path d="M494.3,1024c-158.1,0-283-32.1-336.3-87C35,810.4,15.7,524,74.8,335.9C142.9,158.2,261.1,79.3,348.3,44.3   c92.1-36.9,167.9-34,174.8-33.7C648.7,4.2,757.7,43.4,838.2,124c67.7,67.8,103.2,153.3,113.8,210.7   c24.4,136.5,65.3,468.1-81.6,600.1c-57.3,51.5-197.2,86.5-356.5,89.1C507.3,1023.9,500.8,1024,494.3,1024z M515.1,24.7   c-21.6,0-87,2.8-162.1,33c-84.4,34-198.9,110.6-264.9,282.9c-57.8,183.8-39.5,463.6,79.9,586.6c116.4,119.8,577.8,100.6,692.9-2.9   c141.6-127.3,101.1-453,77.1-587.1C917,222.8,803,10.2,523.5,24.8c-0.3,0-0.5,0-0.8,0C522.5,24.8,519.9,24.7,515.1,24.7z"/><path class="st1" d="M68.2,340.2c0,0,316.9-43.9,430.9-257.4c48,1.4,48,1.4,48,1.4s97.6,214.5,407.4,209.9   c4.9,22.8,9.7,45.3,9.7,45.3S484,242.1,61.6,388.1C62.2,366,68.2,340.2,68.2,340.2z"/><path d="M61.6,395.2c-1.5,0-3-0.5-4.2-1.4c-1.9-1.4-2.9-3.6-2.9-5.9c0.7-22.5,6.5-48.2,6.8-49.2c0.7-2.9,3-5,5.9-5.4   c3.1-0.4,314.6-45.9,425.7-253.7c1.3-2.4,3.7-3.8,6.4-3.7l48,1.4c2.7,0.1,5.1,1.7,6.2,4.1c0.2,0.5,24.8,53.3,86.2,104.7   c56.6,47.4,157.1,103.4,314.7,101.1c3.3,0,6.3,2.3,7,5.6l9.7,45.3c0.5,2.3-0.2,4.7-1.9,6.4c-1.7,1.7-4.1,2.4-6.4,2   c-4.8-1-483.2-95.2-899,48.4C63.1,395,62.3,395.2,61.6,395.2z M74.1,346.5c-1.3,6.5-3.6,18.9-4.8,31.6   c382.6-128.4,813.5-60.4,885.8-47.5l-6.3-29.3c-1.4,0-2.7,0-4.1,0c-156.6,0-257.4-56.7-314.7-104.9   c-54.4-45.8-80.4-91.5-87.4-105.2L503.2,90C395,286.4,114.7,339.7,74.1,346.5z"/><circle class="st1" cx="521.7" cy="65" r="58"/><path d="M521.7,130.1c-0.7,0-1.3,0-2,0c-17.4-0.5-33.5-7.8-45.4-20.4c-11.9-12.6-18.2-29.2-17.7-46.5C457.8,27.3,487.9-1,523.6,0   C541,0.5,557.1,7.8,569,20.4c11.9,12.6,18.2,29.2,17.7,46.5s-7.8,33.5-20.4,45.4C554.1,123.8,538.4,130.1,521.7,130.1z M521.7,14.1   c-27.4,0-50.1,21.9-50.9,49.4c-0.8,28.1,21.3,51.6,49.4,52.4c13.5,0.5,26.5-4.5,36.4-13.8c9.9-9.3,15.6-21.9,16-35.5   c0.8-28.1-21.3-51.6-49.4-52.4C522.7,14.1,522.2,14.1,521.7,14.1z"/><circle class="st2" cx="521.7" cy="65" r="31"/><path d="M521.7,103.1c-0.4,0-0.8,0-1.1,0c-10.2-0.3-19.6-4.5-26.6-11.9c-7-7.4-10.7-17.1-10.4-27.3c0.6-21,18.2-37.6,39.2-37   c21,0.6,37.6,18.2,37,39.2C559.2,86.8,542.2,103.1,521.7,103.1z M521.7,41c-6.1,0-11.9,2.3-16.4,6.5c-4.7,4.4-7.3,10.3-7.5,16.7   c-0.2,6.4,2.1,12.5,6.5,17.2c4.4,4.7,10.3,7.3,16.7,7.5c6.4,0.2,12.5-2.1,17.2-6.5c4.7-4.4,7.3-10.3,7.5-16.7   c0.2-6.4-2.1-12.5-6.5-17.2c-4.4-4.7-10.3-7.3-16.7-7.5C522.2,41.1,521.9,41,521.7,41z"/><path class="st0" d="M312.1,432.1c-10.7,19.9-15.8,128.7-5.8,273.8c10.5,152.5,81.3,247.2,26.4,292.3   c-48.6,39.9-117.8-34.3-126.5-74.9c-25.2,54.1-126.3,49.5-125-35.4c1.2-84.9,109.3-167.7,104.4-317.5"/><path d="M301.5,1016.7c-7.2,0-14.7-1.3-22.3-4c-32.1-11.2-62.5-44.6-75-73.1c-17,20.7-46.9,30.9-75.5,24.3   c-26.9-6.2-55.3-29.4-54.6-76.1c0.5-37.3,20-72.9,42.6-114c30.3-55.3,64.7-118,61.9-203.2c-0.1-3.9,2.9-7.2,6.8-7.3   c3.8-0.1,7.2,2.9,7.3,6.8c2.9,89-32.4,153.5-63.6,210.4C107.4,820,88.7,854.1,88.2,888c-0.5,32.5,15.9,55.8,43.7,62.1   c27.8,6.4,57-6.4,67.9-29.8c1.3-2.7,4.2-4.4,7.2-4c3,0.3,5.5,2.6,6.1,5.5c5.5,25.8,38.3,66.1,70.7,77.5c16.9,5.9,31.8,3.7,44.4-6.6   c29.2-24,18.1-65.5,1.2-128.2c-11.5-42.8-25.8-96-30.1-158.1c-9.3-134-6.4-253.4,6.7-277.6c1.8-3.4,6.1-4.7,9.6-2.9   c3.4,1.8,4.7,6.1,2.9,9.6c-8.8,16.3-15.4,119.2-5,269.9c4.2,60.8,18.3,113.2,29.7,155.4c17.7,65.6,30.4,113-5.8,142.8   C326.6,1012.3,314.5,1016.7,301.5,1016.7z"/><path class="st0" d="M731.3,432.1c10.7,19.9,15.8,128.7,5.8,273.8c-10.5,152.5-81.3,247.2-26.4,292.3   c48.6,39.9,117.8-34.3,126.5-74.9c25.2,54.1,126.3,49.5,125-35.4S852.9,720.2,857.8,570.4"/><path d="M741.9,1016.7c-13,0-25.1-4.4-35.6-13c-36.3-29.8-23.5-77.2-5.8-142.8c11.4-42.2,25.5-94.6,29.7-155.4   c10.4-150.7,3.8-253.6-5-269.9c-1.8-3.4-0.6-7.7,2.9-9.6c3.4-1.9,7.7-0.6,9.6,2.9c13,24.2,15.9,143.6,6.7,277.6   c-4.3,62.1-18.6,115.4-30.1,158.1c-16.9,62.8-28.1,104.2,1.2,128.2c12.5,10.3,27.5,12.5,44.4,6.6c32.5-11.4,65.2-51.7,70.7-77.5   c0.6-3,3.1-5.2,6.1-5.5c3-0.4,5.9,1.3,7.2,4c10.9,23.4,40.1,36.2,67.9,29.8c27.8-6.4,44.2-29.6,43.7-62.1   c-0.5-33.8-19.2-67.9-40.8-107.4c-31.2-56.9-66.5-121.4-63.6-210.4c0.1-3.9,3.4-6.8,7.3-6.8c3.9,0.1,7,3.4,6.8,7.3   c-2.8,85.1,31.6,147.8,61.9,203.2c22.5,41.1,42,76.7,42.6,114c0.7,46.7-27.8,69.9-54.6,76.1c-28.6,6.6-58.5-3.7-75.5-24.3   c-12.5,28.5-42.9,61.9-75,73.1C756.6,1015.3,749.1,1016.7,741.9,1016.7z"/><path class="st3" d="M303.4,462.3c0,0-4.6-87.9,168.8-97.8c173.4-9.9,263.6,20.2,276,97.1c8.1,51.7-3.4,157.5-8.5,188.4   s-112.4,95.3-220,95.9c-107.6,0.6-203.6-47.6-216.7-101.8C299,581.2,299.5,498.5,303.4,462.3z"/><path d="M517.6,753c-108.2,0-207.3-47.9-221.6-107.2c-0.1-0.4-0.2-0.8-0.2-1.2c-3.8-60.8-3.6-144.2,0.4-182.5   c-0.2-9,2.8-94.7,175.4-104.6c180.3-10.3,270.3,22.4,283.3,103.1c8,50.8-2.7,155.5-8.6,190.7c-6.1,37-120.6,101.2-226.9,101.8   C518.9,753,518.3,753,517.6,753z M309.9,643.1c11.8,46.6,97.6,95.8,207.6,95.8c0.7,0,1.3,0,2,0c108.3-0.6,209-65.6,213.1-90   c5.7-34.5,16.3-137,8.5-186.2c-11.6-72-97-101-268.6-91.2c-163.4,9.4-162.3,87.2-162.1,90.5c0,0.3,0,0.7,0,1.1   C306.4,500.4,306.2,582.7,309.9,643.1z"/><path d="M519.3,617.3c-7.3,0-13.8-1-18.9-2.1c-23.7-5.5-41.5-20.3-44.5-31c-1-3.8,1.1-7.7,4.9-8.7c3.7-1.1,7.6,1.1,8.7,4.9   c1.1,3.9,13.2,16.2,34.1,21c19.7,4.5,49.5,2.9,79.5-30.9c2.6-2.9,7-3.2,10-0.6c2.9,2.6,3.2,7,0.6,10   C567,610,539.6,617.3,519.3,617.3z"/><circle cx="666.4" cy="512.9" r="23.7"/><circle cx="399.4" cy="513.5" r="23.7"/></g></svg>