<?xml version="1.0" encoding="utf-8"?>
<svg width="185.577" height="206" viewBox="0 0 185.577 206" fill="none" xmlns="http://www.w3.org/2000/svg">
  <g>
    <path d="M85.9586 0.15041C89.9755 -0.23559 93.9915 0.21941 98.0036 0.42341C109.733 1.52641 121.3 4.73541 131.743 10.2194C146.446 17.9004 159.081 29.6514 167.436 44.0194C174.279 55.5644 178.33 68.7304 179.355 82.1084C179.685 90.6454 179.542 99.1944 179.572 107.739C179.568 128.872 179.576 150.005 179.568 171.139C179.294 177.353 179.716 183.597 178.964 189.785C178.694 192.291 178.278 194.883 176.997 197.093C175.725 199.251 173.059 200.32 170.627 199.915C169.242 199.524 168.096 198.591 167.037 197.657C161.626 192.499 157.753 185.878 151.852 181.21C149.572 179.481 146.502 177.953 143.632 179.125C139.559 180.762 136.958 184.51 134.236 187.757C130.767 191.97 127.467 196.746 122.373 199.108C119.19 200.636 115.304 200.05 112.516 197.966C106.502 193.511 103.385 186.29 97.5525 181.639C94.5865 179.256 90.4966 177.993 86.7665 179.143C83.4966 180.002 81.0045 182.487 78.9335 185.035C76.1025 188.613 73.9395 192.691 70.8785 196.091C69.1845 197.972 66.9745 199.478 64.4525 199.93C61.5045 200.326 58.6295 198.97 56.4235 197.112C51.0605 192.584 48.0695 185.944 42.8325 181.294C40.6305 179.279 37.3825 177.989 34.4565 179.149C29.1935 181.063 25.4195 185.422 21.6025 189.309C18.2465 192.648 15.4545 196.63 11.4375 199.244C9.39254 200.642 6.63154 199.856 4.79854 198.458C2.67554 196.722 1.86754 193.934 1.25954 191.367C0.0565424 185.431 0.143542 179.348 0.121542 173.321C-0.0124578 169.118 -0.069458 164.911 0.129542 160.708C0.116543 137.112 0.125543 113.517 0.125543 89.9224C-0.578457 65.4894 9.91254 41.0724 27.7895 24.4604C38.4275 14.4694 51.5105 7.04741 65.6275 3.29641C72.2626 1.49141 79.0936 0.44541 85.9586 0.15041C85.9586 0.15041 85.9586 0.15041 85.9586 0.15041Z" fill="#009FDE" stroke-width="6" stroke="#000000" transform="translate(3 3)" />
    <path d="M19.3373 0.506172C23.9573 -0.457825 28.8333 -0.0368271 33.2233 1.70017C39.9623 4.29717 45.4293 10.1072 47.4653 17.0582C48.9893 21.8692 48.9283 27.1802 47.3223 31.9652C44.8733 39.8852 37.9433 46.1462 29.8623 47.9092C27.6083 48.3352 25.3383 48.9722 23.0273 48.6862C19.6883 48.2302 16.3323 47.5482 13.3053 46.0022C7.21327 42.9812 2.48427 37.2622 0.830273 30.6452C-1.13673 23.2932 0.405273 14.9222 5.30727 9.02517C8.81627 4.67517 13.8403 1.58318 19.3373 0.506172C19.3373 0.506172 19.3373 0.506172 19.3373 0.506172Z" fill="#FFFFFF" transform="translate(48.917 60.542)" />
    <path d="M19.492 0.512413C25.827 -0.846588 32.675 0.543411 38.059 4.13841C42.288 7.05641 45.688 11.2594 47.33 16.1614C49.888 23.4524 48.807 31.9534 44.351 38.2934C40.934 43.2214 35.584 46.7604 29.713 47.9844C27.994 48.3064 26.278 48.7534 24.524 48.7654C18.163 48.4274 11.684 46.1734 7.20799 41.4884C2.50499 37.0164 0.250992 30.5164 0 24.1334C0.313004 18.3064 2.258 12.4264 6.26601 8.07542C9.71698 4.22041 14.42 1.53741 19.492 0.512413C19.492 0.512413 19.492 0.512413 19.492 0.512413Z" fill="#FFFFFF" transform="translate(122.967 60.532)" />
    <path d="M7.60489 0.568771C11.5219 -0.760231 16.1329 0.285774 19.0549 3.22577C22.4379 6.52977 23.3279 12.0318 21.1699 16.2398C19.6679 19.2268 16.7799 21.5368 13.4759 22.1708C9.83688 23.0218 5.78989 21.7848 3.20188 19.0918C1.11288 16.9948 -0.124115 14.0328 0.00988007 11.0588C-0.111107 6.40478 3.21989 2.00178 7.60489 0.568771C7.60489 0.568771 7.60489 0.568771 7.60489 0.568771Z" fill="#053F82" transform="translate(71.562 73.624)" />
    <path d="M7.63869 0.565628C10.8567 -0.50737 14.5647 -0.0423737 17.3777 1.86362C19.7227 3.37862 21.3817 5.85763 22.0587 8.55463C23.0317 12.5196 21.6767 16.9526 18.5547 19.6106C14.4597 23.4526 7.41669 23.3226 3.46568 19.3366C0.395676 16.5446 -0.685318 11.9846 0.42569 8.04263C1.4247 4.57763 4.19969 1.66863 7.63869 0.565628C7.63869 0.565628 7.63869 0.565628 7.63869 0.565628Z" fill="#053F82" transform="translate(145.758 73.627)" />
  </g>
</svg>