<svg xmlns="http://www.w3.org/2000/svg" viewBox="0 0 400 400"><path d="M318.33 182.89 201.79 390.46 79.84 173.25z" style="fill:#f57847"/><path d="M108.59 224.45h186.4l23.34-41.56-238.49-9.64z" style="fill:#ffa30c"/><path d="M298.02 95.79c22.43 2.76 39.85 22.97 39.85 47.5 0 26.4-20.2 47.81-45.1 47.81h-76.45z" style="fill:#efeeee"/><path d="M212.26 191.09c47.28 0 85.62-40.65 85.62-90.78S259.54 9.54 212.26 9.54c-40.8 0-74.94 30.26-83.54 70.76a50 50 0 0 0-10.25-1.06c-29.14 0-52.76 25.04-52.76 55.92s23.62 55.93 52.76 55.93z" style="fill:#fff"/><path d="M212.55 164.34h-.23c-4.22-.02-7.63-3.66-7.61-8.14.01-4.46 3.43-8.07 7.64-8.07h.23c4.22.02 7.63 3.66 7.61 8.14-.01 4.46-3.43 8.07-7.64 8.07M236.35 158.18a7.6 7.6 0 0 1-6.8-4.4c-1.93-3.98-.46-8.87 3.3-10.91 15.12-8.25 24.5-24.55 24.5-42.56 0-4.48 3.43-8.1 7.65-8.1s7.65 3.62 7.65 8.1c0 24.1-12.57 45.94-32.8 56.97q-1.71.9-3.5.9"/><path d="M345.51 143.29c0-26.22-17.08-48.57-40.62-54.43-5.37-49.14-44.86-87.43-92.63-87.43-21.3 0-42.14 7.82-58.66 22-14.44 12.4-25.11 29.2-30.53 47.9a57 57 0 0 0-4.6-.2c-33.3 0-60.4 28.73-60.4 64.03a66 66 0 0 0 15.52 42.8L195.22 394.6a7.6 7.6 0 0 0 6.57 3.96c2.7 0 5.2-1.5 6.57-3.96l115.95-206.53c12.86-10.21 21.2-26.49 21.2-44.8m-15.29 0c0 21.9-16.8 39.71-37.46 39.71h-29.43c24.02-16.73 40.35-44.9 42.04-77.13 14.62 5.52 24.85 20.31 24.85 37.42m-256.86-8.13c0-26.37 20.23-47.82 45.1-47.82 2.93 0 5.89.31 8.78.92 4.07.85 8.03-1.9 8.94-6.18 7.92-37.34 39.92-64.44 76.07-64.44 43 0 77.98 37.09 77.98 82.67 0 45.59-34.98 82.67-77.98 82.67h-93.79c-24.87 0-45.1-21.45-45.1-47.82m49.05 98.07h37.41l-23.45 24.86zm22.03 39.23 6.2-6.58 14.79 15.67-9.96 10.56zm57.45-6.64 14.83 15.73-14.84 15.73-14.83-15.73zm-9.12-32.59H211l-9.11 9.66zm19.93 21.13 14.78-15.67 14.83 15.73-14.78 15.66zm-36.46 15.73-14.78-15.67 14.84-15.73 14.77 15.66zm-12.7 36.39 12.7-13.47 14.83 15.73-16.46 17.46zm38.25 68.14-19.11-34.05 19.2-20.37 19.1 20.24zm27.25-48.55-16.34-17.33 14.84-15.73 12.58 13.34zm19.15-34.1-9.84-10.42 14.77-15.67 6.1 6.46zm19.09-34-23.33-24.74h37.22zm22.99-40.95H113.3l-11.4-20.3a57 57 0 0 0 16.56 2.47l174.3.02q4-.01 7.85-.62z"/></svg>