<?xml version="1.0" encoding="utf-8"?>
<svg width="360" height="480" viewBox="0 0 360 480" fill="none" xmlns="http://www.w3.org/2000/svg">
  <g>
    <rect width="360" height="480" />
    <g transform="translate(18 15)">
      <rect width="325" height="450" />
      <g id="Case">
        <g fill="#AFA083" transform="translate(16 387)">
          <path id="Lower Case" d="M287 0C289.762 0 292 2.23819 292 5L292 58C292 60.7618 289.762 63 287 63L5 63C2.2382 63 0 60.7618 0 58L0 5C0 2.23819 2.2382 0 5 0L287 0Z" />
          <path d="M299.021 -7.02097Q294.042 -12 287 -12L5 -12Q-2.0419 -12 -7.02095 -7.02097Q-12 -2.04193 -12 5L-12 58Q-12 65.0419 -7.02095 70.021Q-2.0419 75 5 75L287 75Q294.042 75 299.021 70.021Q304 65.0419 304 58L304 5Q304 -2.04193 299.021 -7.02097ZM292 5C292 2.23819 289.762 0 287 0L5 0C2.2382 0 0 2.23819 0 5L0 58C0 60.7618 2.2382 63 5 63L287 63C289.762 63 292 60.7618 292 58L292 5Z" fill="#000000" fill-rule="evenodd" />
        </g>
        <g fill="#E1CDA7">
          <path id="Upper Case" d="M315 0C320.524 0 325 4.4764 325 10L325 377C325 382.524 320.524 387 315 387L10 387C4.4764 387 0 382.524 0 377L0 10C0 4.4764 4.4764 0 10 0L315 0Z" />
          <path d="M330.557 -5.55663Q324.113 -12 315 -12L10 -12Q0.88674 -12 -5.55663 -5.55663Q-12 0.886739 -12 10L-12 377Q-12 386.113 -5.55663 392.557Q0.886717 399 10 399L315 399Q324.113 399 330.557 392.557Q337 386.113 337 377L337 10Q337 0.886718 330.557 -5.55663ZM325 10C325 4.4764 320.524 9.53674e-07 315 9.53674e-07L10 9.53674e-07C4.4764 9.53674e-07 9.53674e-07 4.4764 9.53674e-07 10L9.53674e-07 377C9.53674e-07 382.524 4.4764 387 10 387L315 387C320.524 387 325 382.524 325 377L325 10Z" fill="#000000" fill-rule="evenodd" />
        </g>
        <path id="Logo" d="M0 13.9248C0 6.23434 6.32797 0 14.1339 0C21.9398 0 28.2678 6.23434 28.2678 13.9248C28.2678 21.6152 21.9398 27.8496 14.1339 27.8496C6.32797 27.8496 0 21.6152 0 13.9248C0 13.9248 0 13.9248 0 13.9248Z" fill="#000000" fill-rule="evenodd" transform="translate(25.122 333.589)" />
        <path id="Drive" d="M129.171 0C129.171 0 96.4152 0 96.4152 0C94.4171 0 92.7957 1.59738 92.7957 3.56589C92.7957 4.64951 91.1743 6.05606 89.1764 6.05606C89.1764 6.05606 3.61943 6.05606 3.61943 6.05606C1.62138 6.05606 0 8.72916 0 10.6977C0 10.6977 0 11.0365 0 11.0365C0 13.0049 1.62138 15.678 3.61943 15.678C3.61943 15.678 89.1764 15.678 89.1764 15.678C91.1743 15.678 92.7957 16.1997 92.7957 18.1682C92.7957 20.1367 94.4171 21.7341 96.4152 21.7341C96.4152 21.7341 129.171 21.7341 129.171 21.7341C131.169 21.7341 132.79 20.1367 132.79 18.1682C132.79 18.1682 132.79 14.6023 132.79 14.6023C132.79 14.6023 132.79 7.12619 132.79 7.12619C132.79 7.12619 132.79 3.5603 132.79 3.5603C132.79 1.59756 131.169 0 129.171 0C129.171 0 129.171 0 129.171 0C129.171 0 129.171 0 129.171 0Z" fill="#000000" fill-rule="evenodd" transform="translate(162.569 318.107)" />
        <path id="Socket" d="M3.62494 23.4339C3.62494 23.4339 36.3694 23.4339 36.3694 23.4339C38.3729 23.4339 39.9943 21.8365 39.9943 19.8626C39.9943 19.8626 39.9943 3.57129 39.9943 3.57129C39.9943 1.59738 38.3673 0 36.3694 0C36.3694 0 3.62494 0 3.62494 0C1.62138 0 1.52588e-05 1.59738 1.52588e-05 3.57129C1.52588e-05 3.57129 1.52588e-05 19.8626 1.52588e-05 19.8626C-0.00547791 21.8365 1.62138 23.4339 3.62494 23.4339C3.62494 23.4339 3.62494 23.4339 3.62494 23.4339C3.62494 23.4339 3.62494 23.4339 3.62494 23.4339Z" fill="#000000" fill-rule="evenodd" transform="translate(245.815 412.711)" />
      </g>
    </g>
    <g transform="translate(48 47)">
      <rect width="265" height="225" />
      <g id="Screen">
        <path id="Screen Base" d="M250.475 4.68325C171.827 -1.56108 93.1731 -1.56108 14.5245 4.68325C9.99764 5.04994 5.84905 9.33864 5.30846 14.2384C-1.76949 79.7481 -1.76949 145.252 5.30846 210.763C5.84426 215.662 9.99764 219.951 14.5245 220.317C93.1731 226.561 171.827 226.561 250.475 220.317C255.002 219.951 259.156 215.662 259.691 210.763C266.77 145.252 266.77 79.7481 259.691 14.2384C259.151 9.33856 255.002 5.04994 250.475 4.68325C250.475 4.68325 250.475 4.68325 250.475 4.68325C250.475 4.68325 250.475 4.68325 250.475 4.68325Z" fill="#3AA3E9" fill-rule="evenodd" />
        <path id="Screen Highlight" d="M259.764 4.99965C176.553 -1.66655 98.5765 -1.66655 15.3667 4.99965C10.5773 5.39109 6.18825 9.96952 5.6163 15.2004C-1.8721 85.1357 -1.8721 149.44 5.6163 219.375C82.1555 215.687 231.231 123.536 259.764 4.99965Z" fill="#68BFF8" fill-rule="evenodd" />
        <g transform="translate(5.237 5.625)">
          <path id="Screen Frame" d="M240.575 4.44908C165.035 -1.48303 89.4905 -1.48303 13.9504 4.44908C9.6025 4.79744 5.61788 8.8717 5.09865 13.5264C-1.69955 75.7606 -1.69955 137.989 5.09865 200.224C5.61327 204.878 9.6025 208.953 13.9504 209.301C89.4905 215.233 165.035 215.233 240.575 209.301C244.923 208.953 248.913 204.878 249.427 200.224C256.226 137.989 256.226 75.7606 249.427 13.5264C248.908 8.87162 244.923 4.79744 240.575 4.44908C240.575 4.44908 240.575 4.44908 240.575 4.44908C240.575 4.44908 240.575 4.44908 240.575 4.44908Z" />
          <path d="M255.023 -1.00907Q249.282 -6.89159 241.533 -7.51243L241.514 -7.51393Q127.262 -16.4861 13.0102 -7.51393Q5.24235 -6.89158 -0.499508 -1.00872Q-5.98164 4.60803 -6.8281 12.1963Q-17.1704 106.875 -6.83111 201.527Q-5.98955 209.138 -0.499612 214.761Q5.24377 220.643 12.9933 221.263Q127.262 230.236 241.514 221.264Q249.28 220.643 255.024 214.761Q260.514 209.138 261.353 201.542Q271.695 106.875 261.355 12.2234Q260.507 4.60865 255.023 -1.00907ZM13.9497 4.44924C89.4898 -1.48287 165.035 -1.48287 240.574 4.44924C244.922 4.7976 248.908 8.87177 249.426 13.5266C256.225 75.7608 256.225 137.989 249.426 200.224C248.912 204.878 244.922 208.953 240.574 209.301C165.035 215.233 89.4898 215.233 13.9497 209.301C9.60178 208.953 5.61256 204.878 5.09793 200.224C-1.70026 137.989 -1.70026 75.7608 5.09793 13.5266C5.61717 8.87185 9.60178 4.7976 13.9497 4.44924Z" fill="#000000" fill-rule="evenodd" />
        </g>
      </g>
    </g>
    <g transform="translate(108 97)">
      <rect width="145.654" height="132.021" />
      <path id="left-eye" d="M0 21.1923C0 9.48811 9.54833 0 21.3268 0C33.1053 0 42.6536 9.48811 42.6536 21.1923C42.6536 32.8965 33.1053 42.3846 21.3268 42.3846C9.54833 42.3846 0 32.8965 0 21.1923C0 21.1923 0 21.1923 0 21.1923Z" fill="#000000" fill-rule="evenodd" transform="translate(0 35.5)" />
      <path id="right-eye" d="M0 21.1923C0 9.48811 9.54832 0 21.3268 0C33.1053 0 42.6536 9.48811 42.6536 21.1923C42.6536 32.8965 33.1053 42.3846 21.3268 42.3846C9.54832 42.3846 0 32.8965 0 21.1923C0 21.1923 0 21.1923 0 21.1923Z" fill="#000000" fill-rule="evenodd" transform="translate(103 35.5)" />
      <path id="Path" d="M0 24.0068C0 24.0068 14.0885 4.19279 44.0317 0.48613C73.9749 -3.22053 93.3265 15.4862 93.3265 15.4862" fill="none" stroke-width="12" stroke="#000000" stroke-linecap="round" stroke-linejoin="round" transform="translate(25.02 102.014)" />
      <path id="Path" d="M0 18.5207L41.8064 0" fill="none" stroke-width="12" stroke="#000000" stroke-linecap="round" stroke-linejoin="round" transform="translate(97.04 6)" />
      <path id="Path" d="M0 0L41.3464 15" fill="none" stroke-width="12" stroke="#000000" stroke-linecap="round" stroke-linejoin="round" transform="translate(6 7.5)" />
    </g>
  </g>
</svg>