<?xml version="1.0" encoding="utf-8"?>
<svg width="360" height="360" viewBox="0 0 360 360" fill="none" xmlns="http://www.w3.org/2000/svg">
  <g>
    <rect width="360" height="360" />
    <g fill="#E1CDA7" transform="translate(17 30)">
      <path id="Upper Case" d="M315 0C320.524 0 325 4.4764 325 10L325 290C325 295.524 320.524 300 315 300L10 300C4.4764 300 0 295.524 0 290L0 10C0 4.4764 4.4764 0 10 0L315 0Z" />
      <path d="M330.557 -5.55663Q324.113 -12 315 -12L10 -12Q0.886738 -12 -5.55663 -5.55663Q-12 0.886738 -12 10L-12 290Q-12 299.113 -5.55663 305.557Q0.886717 312 10 312L315 312Q324.113 312 330.557 305.557Q337 299.113 337 290L337 10Q337 0.886719 330.557 -5.55663ZM325 10C325 4.4764 320.524 0 315 0L10 0C4.4764 0 0 4.4764 0 10L0 290C0 295.524 4.4764 300 10 300L315 300C320.524 300 325 295.524 325 290L325 10Z" fill="#000000" fill-rule="evenodd" />
    </g>
    <g transform="translate(47 68)">
      <rect width="265" height="225" />
      <g id="Screen">
        <path id="Screen Base" d="M250.475 4.68325C171.827 -1.56108 93.1731 -1.56108 14.5245 4.68325C9.99764 5.04994 5.84905 9.33864 5.30846 14.2384C-1.76949 79.7481 -1.76949 145.252 5.30846 210.763C5.84426 215.662 9.99764 219.951 14.5245 220.317C93.1731 226.561 171.827 226.561 250.475 220.317C255.002 219.951 259.156 215.662 259.691 210.763C266.77 145.252 266.77 79.7481 259.691 14.2384C259.151 9.33856 255.002 5.04994 250.475 4.68325C250.475 4.68325 250.475 4.68325 250.475 4.68325C250.475 4.68325 250.475 4.68325 250.475 4.68325Z" fill="#3AA3E9" fill-rule="evenodd" />
        <path id="Screen Highlight" d="M259.764 4.99965C176.553 -1.66655 98.5765 -1.66655 15.3667 4.99965C10.5773 5.39109 6.18825 9.96952 5.6163 15.2004C-1.8721 85.1357 -1.8721 149.44 5.6163 219.375C82.1555 215.687 231.231 123.536 259.764 4.99965Z" fill="#68BFF8" fill-rule="evenodd" />
        <g transform="translate(5.237 5.625)">
          <path id="Screen Frame" d="M240.575 4.44908C165.035 -1.48303 89.4905 -1.48303 13.9504 4.44908C9.6025 4.79744 5.61788 8.8717 5.09865 13.5264C-1.69955 75.7606 -1.69955 137.989 5.09865 200.224C5.61327 204.878 9.6025 208.953 13.9504 209.301C89.4905 215.233 165.035 215.233 240.575 209.301C244.923 208.953 248.913 204.878 249.427 200.224C256.226 137.989 256.226 75.7606 249.427 13.5264C248.908 8.87162 244.923 4.79744 240.575 4.44908C240.575 4.44908 240.575 4.44908 240.575 4.44908C240.575 4.44908 240.575 4.44908 240.575 4.44908Z" />
          <path d="M255.023 -1.00907Q249.282 -6.89159 241.533 -7.51243L241.514 -7.51393Q127.262 -16.4861 13.0102 -7.51393Q5.24235 -6.89158 -0.499508 -1.00872Q-5.98164 4.60803 -6.8281 12.1963Q-17.1704 106.875 -6.83111 201.527Q-5.98955 209.138 -0.499612 214.761Q5.24377 220.643 12.9933 221.263Q127.262 230.236 241.514 221.264Q249.28 220.643 255.024 214.761Q260.514 209.138 261.353 201.542Q271.695 106.875 261.355 12.2234Q260.507 4.60865 255.023 -1.00907ZM13.9497 4.44924C89.4898 -1.48287 165.035 -1.48287 240.574 4.44924C244.922 4.7976 248.908 8.87177 249.426 13.5266C256.225 75.7608 256.225 137.989 249.426 200.224C248.912 204.878 244.922 208.953 240.574 209.301C165.035 215.233 89.4898 215.233 13.9497 209.301C9.60178 208.953 5.61256 204.878 5.09793 200.224C-1.70026 137.989 -1.70026 75.7608 5.09793 13.5266C5.61717 8.87185 9.60178 4.7976 13.9497 4.44924Z" fill="#000000" fill-rule="evenodd" />
        </g>
      </g>
    </g>
    <g transform="translate(93 106)">
      <rect width="173.654" height="148.555" />
      <path id="left-eye" d="M0 21.1923C0 9.4881 9.54833 0 21.3268 0C33.1053 0 42.6536 9.4881 42.6536 21.1923C42.6536 32.8965 33.1053 42.3846 21.3268 42.3846C9.54833 42.3846 0 32.8965 0 21.1923C0 21.1923 0 21.1923 0 21.1923Z" fill="#000000" fill-rule="evenodd" />
      <path id="mouth" d="M53.317 70.5553C82.7631 70.5553 106.634 46.8349 106.634 17.5745C106.634 -11.686 84.3589 4.42522 54.9127 4.42522C25.4666 4.42522 0 -11.686 0 17.5745C0 46.8349 23.8708 70.5553 53.317 70.5553C53.317 70.5553 53.317 70.5553 53.317 70.5553C53.317 70.5553 53.317 70.5553 53.317 70.5553Z" fill="#000000" fill-rule="evenodd" transform="translate(33 78)" />
      <path id="right-eye" d="M0 21.1923C0 9.4881 9.54832 0 21.3268 0C33.1053 0 42.6536 9.4881 42.6536 21.1923C42.6536 32.8965 33.1053 42.3846 21.3268 42.3846C9.54832 42.3846 0 32.8965 0 21.1923C0 21.1923 0 21.1923 0 21.1923Z" fill="#000000" fill-rule="evenodd" transform="translate(131 0)" />
    </g>
  </g>
</svg>