<?xml version="1.0" encoding="utf-8"?>
<svg height="800px" width="800px" version="1.1" id="Layer_1" xmlns="http://www.w3.org/2000/svg" viewBox="0 0 512.001 512.001">
  <g transform="matrix(1, 0, 0, 1, 55.6958, 0.37814)">
    <path style="fill:#578CAD;" d="M112.195,440.617v43.284c0,11.033,8.943,19.978,19.978,19.978h14.43 c11.033,0,19.978-8.945,19.978-19.978v-43.284H112.195z"/>
    <path style="fill:#578CAD;" d="M236.597,483.901c0,11.033,8.943,19.978,19.977,19.978h14.43c11.033,0,19.978-8.945,19.978-19.978 v-43.284h-54.385v43.284H236.597z"/>
    <path style="fill:#578CAD;" d="M43.27,396.313c-11.492,0-20.809-9.316-20.809-20.809c0-35.19,32.128-66.181,85.944-82.904 c10.973-3.41,22.636,2.721,26.047,13.696c3.41,10.976-2.722,22.637-13.698,26.049c-33.898,10.533-56.673,27.877-56.673,43.158 C64.079,386.997,54.762,396.313,43.27,396.313z"/>
    <path style="fill:#578CAD;" d="M353.754,396.313c-11.492,0-20.809-9.316-20.809-20.809c0-14.275-19.784-30.404-50.402-41.092 c-10.851-3.788-16.575-15.654-12.787-26.505c3.788-10.85,15.653-16.576,26.505-12.789c49.76,17.371,78.301,46.671,78.301,80.386 C374.563,386.997,365.247,396.313,353.754,396.313z"/>
  </g>
  <g transform="matrix(1, 0, 0, 1, 55.6958, 0.37814)">
    <circle style="fill:#90C8EC;" cx="201.585" cy="145.742" r="137.62"/>
    <path style="fill:#90C8EC;" d="M282.544,334.412c-10.851-3.788-16.575-15.654-12.787-26.505c1.755-5.034,5.264-8.944,9.591-11.334 c-7.717-8.131-18.615-13.209-30.71-13.209h-94.099c-11.204,0-21.386,4.358-28.959,11.465c4.09,2.549,7.328,6.507,8.871,11.469 c3.41,10.976-2.722,22.637-13.698,26.049c-2.941,0.913-5.792,1.882-8.558,2.892v105.379h178.787V337.607 C288.273,336.497,285.458,335.43,282.544,334.412z"/>
  </g>
  <path style="fill:#CAE9F7;" d="M 285.298 192.39 L 186.809 192.39 C 175.777 192.39 166.832 183.446 166.832 172.413 L 166.832 120.251 C 166.832 109.219 175.776 100.274 186.809 100.274 L 327.76 100.274 C 338.792 100.274 347.735 109.218 347.735 120.251 L 347.735 172.413 C 347.735 183.446 338.791 192.39 327.76 192.39 L 311.286 192.39"/>
  <g style="opacity:0.2;" transform="matrix(1, 0, 0, 1, 55.6958, 0.37814)">
    <path style="fill:#231F20;" d="M137.778,483.901v-43.284h-25.584v43.284c0,11.033,8.943,19.978,19.978,19.978h14.43 c1.938,0,3.805-0.289,5.577-0.805C143.862,500.658,137.778,492.996,137.778,483.901z"/>
  </g>
  <g style="opacity:0.2;" transform="matrix(1, 0, 0, 1, 55.6958, 0.37814)">
    <path style="fill:#231F20;" d="M262.181,483.901v-43.284h-25.584v43.284c0,11.033,8.943,19.978,19.977,19.978h14.43 c1.937,0,3.805-0.289,5.577-0.805C268.264,500.659,262.181,492.996,262.181,483.901z"/>
  </g>
  <g style="opacity:0.2;" transform="matrix(1, 0, 0, 1, 55.6958, 0.37814)">
    <path style="fill:#231F20;" d="M89.551,145.743c0-71.693,54.822-130.57,124.828-137.025c-4.213-0.389-8.478-0.597-12.792-0.597 c-76.006,0-137.62,61.614-137.62,137.621c0,76.005,61.614,137.621,137.62,137.621c4.314,0,8.578-0.208,12.792-0.597 C144.373,276.312,89.551,217.433,89.551,145.743z"/>
  </g>
  <g style="opacity:0.2;" transform="matrix(1, 0, 0, 1, 55.6958, 0.37814)">
    <path style="fill:#231F20;" d="M137.778,286.828c-4.529,1.958-8.652,4.673-12.198,8c4.09,2.549,7.328,6.507,8.871,11.469 c3.41,10.976-2.722,22.637-13.698,26.049c-2.941,0.913-5.792,1.882-8.558,2.892v105.379h25.584V335.238V286.828z"/>
  </g>
  <g style="opacity:0.2;" transform="matrix(1, 0, 0, 1, 55.6958, 0.37814)">
    <path style="fill:#231F20;" d="M136.72,172.035v-52.162c0-11.032,8.944-19.977,19.977-19.977h-25.584 c-11.032,0-19.977,8.944-19.977,19.977v52.162c0,11.033,8.944,19.977,19.977,19.977h25.584 C145.664,192.012,136.72,183.069,136.72,172.035z"/>
  </g>
  <path style="" d="M 293.42 192.39 C 293.42 187.905 289.784 184.269 285.299 184.269 L 186.81 184.269 C 180.273 184.269 174.955 178.951 174.955 172.414 L 174.955 120.252 C 174.955 113.715 180.274 108.397 186.81 108.397 L 327.761 108.397 C 334.297 108.397 339.615 113.715 339.615 120.252 L 339.615 172.414 C 339.615 178.951 334.297 184.269 327.761 184.269 L 311.286 184.269 C 306.801 184.269 303.165 187.905 303.165 192.39 C 303.165 196.875 306.801 200.511 311.286 200.511 L 327.761 200.511 C 343.254 200.511 355.858 187.907 355.858 172.413 L 355.858 120.251 C 355.858 104.758 343.254 92.153 327.761 92.153 L 186.809 92.153 C 171.316 92.153 158.711 104.757 158.711 120.251 L 158.711 172.413 C 158.711 187.906 171.315 200.511 186.809 200.511 L 285.299 200.511 C 289.784 200.511 293.42 196.875 293.42 192.39 Z"/>
  <path style="" d="M 279.456 335.102 L 229.514 335.102 C 225.029 335.102 221.393 338.738 221.393 343.223 C 221.393 347.708 225.029 351.344 229.514 351.344 L 279.456 351.344 C 283.941 351.344 287.577 347.708 287.577 343.223 C 287.578 338.738 283.942 335.102 279.456 335.102 Z"/>
  <path style="" d="M 279.456 373.392 L 229.514 373.392 C 225.029 373.392 221.393 377.028 221.393 381.513 C 221.393 385.998 225.029 389.634 229.514 389.634 L 279.456 389.634 C 283.941 389.634 287.577 385.998 287.577 381.513 C 287.578 377.029 283.942 373.392 279.456 373.392 Z"/>
  <path style="" d="M 404.15 313.715 L 377.84 297.475 C 370.676 293.952 362.931 290.728 354.634 287.831 C 351.55 286.755 348.342 286.209 345.098 286.209 C 342.227 286.209 339.433 286.651 336.776 287.451 C 331.637 283.111 325.777 279.886 319.468 277.914 C 368.813 254.537 403.027 204.254 403.027 146.123 C 403.027 65.758 337.648 0.378 257.284 0.378 C 176.922 0.378 111.542 65.758 111.542 146.121 C 111.542 204.269 145.778 254.566 195.146 277.934 C 189.756 279.622 184.673 282.213 180.098 285.631 C 177.016 284.525 173.711 283.916 170.281 283.916 C 167.375 283.916 164.483 284.356 161.69 285.224 C 104.299 303.059 70.035 336.95 70.035 375.884 C 70.035 391.837 83.013 404.815 98.966 404.815 C 114.919 404.815 127.897 391.837 127.897 375.884 C 127.897 368.423 138.951 357.163 159.77 347.691 L 159.77 440.997 L 159.77 484.281 C 159.77 499.776 172.376 512.38 187.869 512.38 L 202.299 512.38 C 217.794 512.38 230.398 499.775 230.398 484.281 L 230.398 449.118 L 284.173 449.118 L 284.173 484.28 C 284.173 499.775 296.777 512.379 312.271 512.379 L 326.701 512.379 C 342.196 512.379 354.8 499.774 354.8 484.28 L 354.8 440.996 L 354.8 350.666 C 371.748 359.483 380.52 369.243 380.52 375.882 C 380.52 391.835 393.498 404.813 409.451 404.813 C 425.404 404.813 438.382 391.835 438.382 375.882 C 438.382 352.391 426.319 330.989 404.15 313.715 Z M 127.785 146.121 C 127.785 74.714 185.878 16.621 257.284 16.621 C 328.691 16.621 386.784 74.714 386.784 146.121 C 386.784 217.528 328.691 275.621 257.284 275.621 C 185.878 275.62 127.785 217.526 127.785 146.121 Z M 111.654 375.882 C 111.654 382.877 105.963 388.57 98.966 388.57 C 91.969 388.57 86.278 382.879 86.278 375.882 C 86.278 344.438 116.271 316.346 166.511 300.734 C 167.743 300.351 169.011 300.157 170.282 300.157 C 172.601 300.157 174.793 300.784 176.687 301.891 C 176.787 301.959 176.879 302.035 176.982 302.099 C 179.227 303.498 180.967 305.551 181.977 307.954 C 181.988 307.981 182.002 308.007 182.013 308.034 C 182.154 308.377 182.282 308.727 182.392 309.083 C 182.911 310.753 183.066 312.452 182.902 314.091 C 182.41 319.012 179.05 323.409 174.039 324.966 C 172.566 325.423 171.124 325.895 169.695 326.375 C 169.605 326.405 169.515 326.437 169.424 326.467 C 133.662 338.517 111.654 357.225 111.654 375.882 Z M 214.155 484.279 C 214.155 490.817 208.836 496.135 202.299 496.135 L 187.869 496.135 C 181.332 496.135 176.013 490.816 176.013 484.279 L 176.013 449.117 L 214.155 449.117 L 214.155 484.279 Z M 338.557 484.279 C 338.557 490.817 333.238 496.135 326.701 496.135 L 312.271 496.135 C 305.734 496.135 300.416 490.816 300.416 484.279 L 300.416 449.117 L 338.559 449.117 L 338.559 484.279 L 338.557 484.279 Z M 338.557 432.874 L 292.293 432.874 L 222.276 432.874 L 176.012 432.874 L 176.012 341.391 C 176.949 341.082 177.896 340.778 178.859 340.479 C 179.335 340.331 179.804 340.171 180.268 340.001 C 194.614 334.729 202.487 319.022 197.902 304.264 C 197.902 304.264 197.902 304.264 197.902 304.263 C 197.902 304.262 197.902 304.263 197.902 304.262 C 197.891 304.228 197.877 304.196 197.866 304.162 C 196.933 301.196 195.564 298.471 193.843 296.043 C 198.825 293.315 204.439 291.862 210.234 291.862 L 304.333 291.862 C 310.884 291.862 317.122 293.678 322.509 297.076 C 322.451 297.149 322.402 297.228 322.344 297.3 C 322.02 297.714 321.712 298.139 321.409 298.571 C 321.254 298.792 321.095 299.008 320.946 299.234 C 320.662 299.664 320.399 300.108 320.138 300.554 C 319.998 300.792 319.851 301.025 319.718 301.268 C 319.46 301.74 319.226 302.227 318.994 302.716 C 318.886 302.943 318.766 303.164 318.663 303.395 C 318.342 304.116 318.047 304.853 317.784 305.606 C 316.799 308.43 316.278 311.306 316.181 314.15 C 316.165 314.624 316.16 315.097 316.168 315.569 C 316.353 327.362 323.796 338.35 335.561 342.457 C 336.533 342.796 337.501 343.146 338.464 343.501 C 338.494 343.512 338.525 343.524 338.555 343.536 L 338.555 432.875 L 338.557 432.875 L 338.557 432.874 Z M 422.137 375.882 C 422.137 382.877 416.446 388.57 409.449 388.57 C 402.452 388.57 396.761 382.879 396.761 375.882 C 396.761 358.399 377.75 341.01 345.639 328.848 C 345.474 328.785 345.311 328.723 345.145 328.661 C 343.756 328.14 342.351 327.624 340.914 327.122 C 340.089 326.834 339.311 326.468 338.588 326.037 C 333.526 323.015 331.101 316.742 333.119 310.96 C 333.121 310.952 333.126 310.946 333.128 310.938 C 333.246 310.601 333.38 310.271 333.525 309.947 C 333.568 309.85 333.618 309.758 333.665 309.662 C 333.78 309.424 333.898 309.187 334.028 308.956 C 334.077 308.868 334.13 308.784 334.18 308.697 C 334.325 308.452 334.477 308.211 334.638 307.977 C 334.676 307.921 334.715 307.867 334.754 307.811 C 335.847 306.279 337.279 304.992 338.97 304.059 C 339.046 304.017 339.114 303.966 339.188 303.923 C 340.974 302.98 342.99 302.449 345.098 302.449 C 346.515 302.449 347.921 302.689 349.28 303.164 C 395.583 319.328 422.137 345.833 422.137 375.882 Z"/>
</svg>