<?xml version="1.0" encoding="utf-8"?>
<svg viewBox="0 0 400 400" width="400" height="400" style="enable-background:new 0 0 512.002 512.002;" xmlns="http://www.w3.org/2000/svg">
  <g style="transform-origin: 256.235px 61.8605px;" transform="matrix(0, 0.765324, -0.765324, 0, 92.3448, 138.267)">
    <polygon style="fill:#1F544A;" points="207.958,100.44 207.958,22.432 231.372,58.956 231.372,101.289 &#9;"/>
    <polyline style="fill:#1F544A;" points="304.513,100.44 304.513,22.432 281.099,58.956 281.099,100.44 304.513,100.44 &#9;"/>
  </g>
  <path style="fill: rgb(50, 135, 119); transform-box: fill-box; transform-origin: 50% 50%;" d="M 287.068 232.115 L 287.068 205.089 C 287.068 184.683 303.61 168.141 324.016 168.141 C 344.423 168.141 360.965 184.683 360.965 205.089 L 360.965 230.571 L 287.068 232.115 Z" transform="matrix(0, 1, -1, 0, -0.000006, -0.000001)"/>
  <path style="opacity: 0.42; fill: rgb(31, 84, 74); transform-box: fill-box; transform-origin: 50% 50%;" d="M 338.392 171.05 C 341.668 176.565 343.555 183.003 343.555 189.885 L 343.555 196.98 C 343.555 207.196 335.387 215.536 325.173 215.751 L 285.185 216.586 L 285.185 231.258 L 359.081 229.714 L 359.081 204.231 C 359.082 189.661 350.644 177.065 338.392 171.05 Z" transform="matrix(0, 1, -1, 0, 0.000006, 0.000015)"/>
  <path style="fill: rgb(62, 172, 146); transform-box: fill-box; transform-origin: 50% 50%;" d="M 203.867 248.612 L 203.867 215.33 C 203.867 181.432 231.602 153.698 265.5 153.698 C 299.398 153.698 327.132 181.433 327.132 215.33 L 327.132 248.612 L 203.867 248.612 Z" transform="matrix(0, 1, -1, 0, 0, 0.000013)"/>
  <path style="opacity: 0.29; fill: rgb(31, 84, 74); transform-box: fill-box; transform-origin: 50% 50%;" d="M 287.992 156.421 C 296.2 166.893 301.119 180.048 301.119 194.305 L 301.119 202.035 C 301.119 216.147 289.679 227.587 275.567 227.587 L 201.143 227.587 L 201.143 245.888 L 324.409 245.888 L 324.409 212.606 C 324.409 187.683 309.406 166.106 287.992 156.421 Z" transform="matrix(0, 1, -1, 0, -0.000011, -0.000003)"/>
  <path style="fill: rgb(50, 135, 119); transform-box: fill-box; transform-origin: 50% 50%;" d="M 149.545 295.22 L 110.831 295.22 C 77.97 295.22 51.334 268.582 51.334 235.724 L 51.334 114.169 C 51.334 108.558 55.882 104.008 61.494 104.008 L 198.881 104.008 C 204.492 104.008 209.042 108.558 209.042 114.169 L 209.042 235.724 C 209.04 268.582 182.404 295.22 149.545 295.22 Z" transform="matrix(0, 1, -1, 0, -0.000002, -0.000008)"/>
  <polygon style="fill: rgb(87, 238, 207); transform-box: fill-box; transform-origin: 50% 50%;" points="245.946 179.459 205.639 219.769 165.331 179.459" transform="matrix(0, 1, -1, 0, -0.000003, -0.000013)"/>
  <path style="opacity: 0.29; fill: rgb(31, 84, 74); transform-box: fill-box; transform-origin: 50% 50%;" d="M 159.454 143.436 L 90.761 143.436 L 90.761 334.647 L 110.118 334.647 C 142.977 334.647 169.615 308.009 169.615 275.151 L 169.615 153.597 C 169.614 147.985 165.065 143.436 159.454 143.436 Z" transform="matrix(0, 1, -1, 0, 0.000007, 0)"/>
  <path d="M 391.821 370.606 L 357.484 360.017 C 350.101 357.741 344.263 352.305 341.468 345.103 L 328.277 311.127 C 323.71 299.362 313.595 290.862 301.218 288.391 L 284.982 285.148 L 284.982 195.942 L 298.942 198.731 C 307.402 200.421 314.317 206.231 317.44 214.273 L 330.63 248.249 C 334.72 258.784 343.258 266.736 354.058 270.066 L 388.396 280.655 C 388.966 280.831 389.543 280.914 390.11 280.914 C 392.594 280.914 394.893 279.31 395.663 276.813 C 396.61 273.745 394.889 270.491 391.821 269.545 L 357.484 258.956 C 350.101 256.68 344.263 251.244 341.468 244.042 L 328.277 210.066 C 323.71 198.301 313.595 189.802 301.218 187.33 L 284.717 184.034 C 283.396 176.664 277.014 171.038 269.302 170.897 L 269.302 151.164 C 269.302 145.462 268.587 139.925 267.25 134.632 L 283.996 131.054 C 295.289 128.641 304.384 120.72 308.324 109.864 L 319.315 79.58 C 324.145 66.269 334.628 56.09 348.076 51.654 L 372.878 43.473 C 375.927 42.468 377.582 39.18 376.578 36.132 C 375.572 33.083 372.285 31.427 369.237 32.433 L 344.435 40.614 C 327.581 46.173 314.441 58.93 308.386 75.614 L 297.396 105.899 C 294.833 112.962 288.915 118.117 281.568 119.686 L 263.395 123.569 C 258.908 113.604 252.07 104.916 243.591 98.218 L 243.591 83.433 L 243.591 23.732 C 243.591 21.151 241.89 18.879 239.413 18.154 C 236.937 17.428 234.279 18.423 232.885 20.595 L 217.767 44.177 C 212.57 41.926 206.845 40.673 200.83 40.673 C 194.816 40.673 189.091 41.927 183.894 44.177 L 168.775 20.595 C 167.382 18.422 164.724 17.428 162.247 18.154 C 159.77 18.879 158.069 21.151 158.069 23.732 L 158.069 83.433 L 158.069 99.91 C 150.339 106.523 144.12 114.849 140.002 124.294 L 118.432 119.686 C 111.085 118.116 105.168 112.961 102.605 105.898 L 91.615 75.613 C 85.56 58.93 72.42 46.173 55.566 40.613 L 30.765 32.432 C 27.717 31.428 24.429 33.082 23.424 36.131 C 22.419 39.18 24.074 42.467 27.123 43.472 L 51.925 51.654 C 65.372 56.09 75.856 66.268 80.687 79.579 L 91.678 109.864 C 95.618 120.72 104.712 128.642 116.006 131.054 L 136.281 135.386 C 135.063 140.45 134.413 145.733 134.413 151.164 L 134.413 170.882 L 131.624 170.882 C 123.826 170.882 117.326 176.502 115.936 183.903 L 98.782 187.33 C 86.407 189.802 76.291 198.3 71.723 210.065 L 58.532 244.041 C 55.736 251.242 49.898 256.679 42.516 258.955 L 8.178 269.544 C 5.111 270.491 3.39 273.745 4.336 276.812 C 5.107 279.309 7.405 280.913 9.89 280.913 C 10.457 280.913 11.035 280.83 11.604 280.654 L 45.942 270.065 C 56.74 266.735 65.28 258.783 69.37 248.249 L 82.56 214.273 C 85.682 206.23 92.598 200.42 101.057 198.73 L 115.65 195.815 L 115.65 285.022 L 98.78 288.391 C 86.404 290.862 76.288 299.362 71.721 311.127 L 58.531 345.102 C 55.735 352.303 49.897 357.74 42.515 360.016 L 8.178 370.606 C 5.111 371.553 3.39 374.806 4.336 377.874 C 5.107 380.371 7.405 381.975 9.89 381.975 C 10.457 381.975 11.035 381.892 11.604 381.716 L 45.942 371.127 C 56.74 367.797 65.28 359.845 69.37 349.31 L 82.56 315.334 C 85.682 307.292 92.598 301.481 101.057 299.792 L 115.65 296.877 L 115.65 308.409 C 115.65 344.421 144.947 373.719 180.959 373.719 L 219.674 373.719 C 255.686 373.719 284.984 344.421 284.984 308.409 L 284.984 297.004 L 298.943 299.792 C 307.404 301.483 314.319 307.292 317.441 315.335 L 330.631 349.311 C 334.721 359.846 343.26 367.797 354.059 371.127 L 388.397 381.716 C 388.967 381.892 389.544 381.976 390.112 381.976 C 392.595 381.976 394.894 380.372 395.665 377.874 C 396.609 374.805 394.89 371.551 391.821 370.606 Z M 231.965 43.57 L 231.965 54.168 C 230.636 52.755 229.217 51.431 227.709 50.209 L 231.965 43.57 Z M 169.695 43.57 L 173.951 50.209 C 172.443 51.431 171.023 52.756 169.695 54.168 L 169.695 43.57 Z M 169.695 83.433 C 169.695 66.265 183.662 52.298 200.829 52.298 C 217.997 52.298 231.964 66.265 231.964 83.433 L 231.964 90.824 C 222.896 86.282 212.671 83.719 201.856 83.719 C 190.217 83.719 179.26 86.683 169.694 91.894 L 169.695 83.433 Z M 146.037 151.164 C 146.037 133.553 154.244 117.832 167.024 107.593 C 167.329 107.397 167.614 107.172 167.877 106.922 C 177.296 99.671 189.078 95.344 201.856 95.344 C 213.806 95.344 224.881 99.131 233.971 105.55 C 234.254 105.796 234.561 106.015 234.888 106.203 C 248.696 116.375 257.676 132.737 257.676 151.164 L 257.676 170.882 L 146.037 170.882 L 146.037 151.164 Z M 200.316 210.313 L 172.511 182.509 L 228.12 182.509 L 200.316 210.313 Z M 127.276 308.41 L 127.276 186.855 C 127.276 184.458 129.226 182.508 131.623 182.508 L 156.071 182.508 L 194.503 220.94 L 194.503 362.093 L 180.959 362.093 C 151.358 362.093 127.276 338.011 127.276 308.41 Z M 219.674 362.093 L 206.129 362.093 L 206.129 220.941 L 244.562 182.509 L 269.009 182.509 C 271.406 182.509 273.356 184.459 273.356 186.856 L 273.356 188.867 C 273.356 188.879 273.356 188.892 273.356 188.905 L 273.356 289.929 C 273.356 289.941 273.356 289.954 273.356 289.967 L 273.356 308.411 C 273.358 338.011 249.275 362.093 219.674 362.093 Z" style="transform-box: fill-box; transform-origin: 50% 50%;" transform="matrix(0, 1, -1, 0, 0.000018, 0.000009)"/>
  <path d="M 284.2 154.067 C 261.845 154.067 243.657 172.254 243.657 194.611 L 243.657 208.997 C 243.657 212.208 246.26 214.81 249.47 214.81 C 252.68 214.81 255.283 212.207 255.283 208.997 L 255.283 194.611 C 255.283 178.666 268.255 165.693 284.198 165.693 C 287.41 165.693 290.012 163.09 290.012 159.881 C 290.012 156.671 287.41 154.067 284.2 154.067 Z" style="transform-box: fill-box; transform-origin: 50% 50%;" transform="matrix(0, 1, -1, 0, -0.000021, 0.000023)"/>
  <path d="M 113.697 171.181 L 113.697 99.963 C 113.697 96.753 111.094 94.151 107.884 94.151 C 104.675 94.151 102.072 96.754 102.072 99.963 L 102.072 171.181 C 102.072 189.391 109.759 206.91 123.165 219.247 C 124.281 220.274 125.693 220.782 127.1 220.782 C 128.669 220.782 130.233 220.151 131.379 218.905 C 133.553 216.543 133.4 212.866 131.038 210.691 C 120.017 200.55 113.697 186.149 113.697 171.181 Z" style="transform-box: fill-box; transform-origin: 50% 50%;" transform="matrix(0, 1, -1, 0, 0.000008, -0.000002)"/>
</svg>