<?xml version="1.0" encoding="utf-8"?>
<svg viewBox="0 0 400 400" width="400" height="400" style="enable-background:new 0 0 512.002 512.002;" xmlns="http://www.w3.org/2000/svg">
  <path style="fill: rgb(54, 117, 150); transform-box: fill-box; transform-origin: 50% 50%;" d="M 328.866 168.406 C 306.404 168.406 288.194 186.616 288.194 209.078 L 328.868 235.039 L 369.539 209.077 C 369.537 186.616 351.329 168.406 328.866 168.406 Z" transform="matrix(0, 1, -1, 0, -0.00002, 0.000037)"/>
  <path style="fill: rgb(148, 0, 68); transform-box: fill-box; transform-origin: 50% 50%;" d="M 147.275 130.69 L 85.973 360.058 C 87.314 359.574 173.237 328.265 173.237 251.055 L 173.237 130.69 L 147.275 130.69 Z" transform="matrix(0, 1, -1, 0, 0.000001, -0.000006)"/>
  <path style="fill: rgb(194, 0, 53); transform-box: fill-box; transform-origin: 50% 50%;" d="M 107.594 338.419 L 90.286 109.041 L 168.914 109.041 L 168.914 229.406 C 168.914 306.461 108.789 337.805 107.594 338.419 Z" transform="matrix(0, 1, -1, 0, -0.00001, -0.000007)"/>
  <path style="fill: rgb(255, 15, 71); transform-box: fill-box; transform-origin: 50% 50%;" d="M 173.245 43.399 L 111.925 43.399 L 85.963 43.399 L 85.963 163.764 C 85.963 240.974 171.887 272.283 173.228 272.767 C 173.245 272.777 173.245 43.399 173.245 43.399 Z" transform="matrix(0, 1, -1, 0, -0.000016, 0.000013)"/>
  <path style="fill: rgb(17, 20, 73); transform-box: fill-box; transform-origin: 50% 50%;" d="M 252.177 205.025 L 237.534 205.025 L 237.534 320.294 L 252.177 320.294 C 273.188 320.294 290.226 303.262 290.226 282.251 L 290.226 243.076 C 290.227 222.065 273.188 205.025 252.177 205.025 Z" transform="matrix(0, 1, -1, 0, 0.000003, -0.000003)"/>
  <path style="fill: rgb(39, 70, 122); transform-box: fill-box; transform-origin: 50% 50%;" d="M 302.122 121.78 L 232.944 121.78 L 218.292 121.78 C 197.281 121.78 180.25 138.82 180.25 159.83 L 180.25 199.005 C 180.25 220.017 197.282 237.048 218.292 237.048 L 241.424 237.048 C 253.531 237.048 263.812 244.853 267.532 255.705 C 271.244 244.853 281.535 237.048 293.641 237.048 L 302.122 237.048 C 316.886 237.048 328.853 220.016 328.853 199.005 L 328.853 159.83 C 328.853 138.819 316.886 121.78 302.122 121.78 Z" transform="matrix(0, 1, -1, 0, 0.000009, 0.000021)"/>
  <path d="M 349.376 188.554 C 347.621 187.343 345.385 187.066 343.391 187.821 L 295.494 205.919 L 295.494 162.203 L 345.685 162.203 C 348.088 162.203 350.293 160.877 351.418 158.755 C 352.544 156.633 352.406 154.062 351.059 152.073 L 334.429 103.571 L 334.429 72.191 C 334.429 68.606 331.522 65.701 327.938 65.701 C 324.354 65.701 321.448 68.606 321.448 72.191 L 321.448 105.562 C 321.448 106.86 321.838 108.128 322.564 109.201 L 335.85 149.221 L 295.493 149.221 L 295.493 116.534 C 295.493 91.976 275.515 71.997 250.958 71.997 L 248.428 71.997 C 246.775 60.051 240.641 49.518 231.772 42.167 L 247.769 18.556 C 249.78 15.587 249.003 11.553 246.036 9.541 C 243.067 7.531 239.033 8.308 237.022 11.274 L 220.721 35.336 C 214.904 32.766 208.481 31.327 201.723 31.327 C 201.723 31.327 201.723 31.327 201.722 31.327 C 195.066 31.327 188.626 32.71 182.712 35.316 L 166.425 11.275 C 164.413 8.309 160.378 7.533 157.411 9.542 C 154.444 11.553 153.667 15.588 155.677 18.556 L 171.663 42.149 C 170.529 43.091 169.429 44.086 168.375 45.14 C 161.017 52.5 156.398 61.863 155.011 71.998 L 152.489 71.998 C 127.932 71.998 107.954 91.977 107.954 116.535 L 107.954 149.222 L 67.594 149.222 L 81.361 108.241 C 82.088 107.167 82.478 105.9 82.478 104.601 L 82.478 71.23 C 82.478 67.645 79.572 64.74 75.988 64.74 C 72.404 64.74 69.497 67.645 69.497 71.23 L 69.497 102.61 L 52.387 152.073 C 51.04 154.061 50.902 156.632 52.028 158.754 C 53.153 160.876 55.359 162.203 57.761 162.203 L 107.953 162.203 L 107.953 205.918 L 60.055 187.82 C 58.06 187.065 55.824 187.34 54.07 188.553 C 52.317 189.765 5.087 244.512 5.087 244.512 C 1.723 248.096 5.109 252.923 8.694 254.365 C 12.278 255.806 15.184 252.42 17.106 249.797 L 59.445 202.323 L 107.95 219.796 L 107.95 247.854 L 57.759 247.854 C 55.756 247.854 53.865 248.778 52.637 250.361 C 51.407 251.941 50.977 254.002 51.469 255.942 L 82.951 348.715 L 82.951 381.274 C 82.951 384.858 85.856 387.763 89.441 387.763 C 93.025 387.763 95.931 384.858 95.931 381.274 L 95.931 347.902 C 95.931 347.363 95.863 346.826 95.73 346.303 L 66.104 260.834 L 107.95 260.834 L 107.95 276.075 C 107.95 309.927 123.881 340.616 154.017 364.822 C 176.431 382.825 198.603 390.865 199.537 391.199 C 200.244 391.452 200.983 391.577 201.722 391.577 C 202.461 391.577 203.201 391.452 203.907 391.199 C 204.84 390.864 227.013 382.824 249.428 364.822 C 279.565 340.616 295.494 309.926 295.494 276.075 L 295.494 260.834 L 337.34 260.834 L 309.636 346.305 C 309.503 346.827 309.435 347.364 309.435 347.903 L 309.435 381.275 C 309.435 384.859 312.341 387.765 315.926 387.765 C 319.509 387.765 322.416 384.859 322.416 381.275 L 322.416 348.715 L 351.976 255.942 C 352.469 254.002 352.038 251.941 350.808 250.361 C 349.578 248.779 347.688 247.854 345.685 247.854 L 295.494 247.854 L 295.494 219.796 L 344.48 202.323 L 381.479 246.996 C 384.361 250.581 386.786 253.967 391.332 252.045 C 395.877 250.123 397.822 247.217 394.939 242.672 C 394.939 242.672 351.129 189.765 349.376 188.554 Z M 120.931 116.535 C 120.931 99.135 135.087 84.978 152.487 84.978 L 169.704 84.978 C 173.288 84.978 176.195 82.074 176.195 78.488 C 176.195 74.904 173.288 71.998 169.704 71.998 L 168.156 71.998 C 169.429 65.342 172.653 59.217 177.552 54.319 C 184.008 47.863 192.591 44.307 201.722 44.307 C 218.35 44.307 232.236 56.246 235.278 71.997 L 195.664 71.997 C 192.081 71.997 189.175 74.903 189.175 78.487 C 189.175 82.073 192.081 84.978 195.664 84.978 L 250.957 84.978 C 268.357 84.978 282.511 99.134 282.511 116.534 L 282.511 155.712 C 282.511 173.112 268.356 187.268 250.957 187.268 L 227.831 187.268 C 217.551 187.268 208.07 191.879 201.722 199.437 C 195.372 191.88 185.893 187.268 175.612 187.268 L 152.487 187.268 C 135.087 187.268 120.931 173.112 120.931 155.712 L 120.931 116.535 Z M 282.512 276.075 C 282.512 306.168 268.744 332.542 241.59 354.466 C 224.753 368.061 207.656 375.693 201.721 378.118 C 195.782 375.69 178.687 368.058 161.853 354.466 C 134.698 332.542 120.93 306.168 120.93 276.075 L 120.93 187.107 C 129.001 195.219 140.166 200.249 152.485 200.249 L 175.611 200.249 C 184.306 200.249 192.062 205.583 195.23 213.61 L 195.23 356.783 C 195.23 360.367 198.136 363.273 201.72 363.273 C 205.305 363.273 208.21 360.367 208.21 356.783 L 208.21 213.61 C 211.379 205.583 219.135 200.249 227.829 200.249 L 250.956 200.249 C 263.275 200.249 274.44 195.219 282.51 187.107 L 282.51 276.075 L 282.512 276.075 Z" style="transform-box: fill-box; transform-origin: 50% 50%;" transform="matrix(0, 1, -1, 0, 0.000003, 0.000003)"/>
</svg>