<?xml version="1.0" encoding="utf-8"?>
<svg width="800px" height="800px" viewBox="0 0 1024 1024" class="icon" version="1.1" xmlns="http://www.w3.org/2000/svg">
  <path d="M 986.912 709.158 C 999.372 709.158 1009.4 699.126 1009.4 686.668 C 1009.4 674.21 999.372 664.178 986.912 664.178 L 901.8 664.178 L 901.8 546.766 C 901.8 363.537 774.135 209.523 603.144 168.953 L 603.144 78.772 L 633.241 78.772 C 645.698 78.772 655.731 68.739 655.731 56.282 C 655.731 43.824 645.698 33.791 633.241 33.791 L 408.229 33.791 C 395.771 33.791 385.738 43.824 385.738 56.282 C 385.738 68.739 395.771 78.772 408.229 78.772 L 471.289 78.772 L 471.289 160.795 C 290.596 180.529 146.725 324.51 127.432 505.203 L 118.392 505.203 C 91.492 505.203 68.45 526.26 64.923 554.042 C 64.812 554.924 64.702 555.806 64.702 556.688 L 64.702 624.6 C 52.795 630.222 41.661 637.168 31.408 645.546 C 23.801 651.72 19.391 660.981 19.391 670.793 C 19.391 680.494 23.691 689.645 31.187 695.929 C 58.418 718.419 92.153 731.208 127.322 732.531 C 131.511 759.431 142.205 784.567 158.521 806.285 C 139.559 819.074 126.991 840.902 126.991 865.487 C 126.991 904.845 158.962 936.816 198.32 936.816 C 209.455 970 240.875 994.034 277.697 994.034 C 323.78 994.034 361.264 956.55 361.264 910.468 C 361.264 892.828 355.641 876.291 346.05 862.621 C 409.993 839.8 455.965 778.613 455.965 706.843 L 455.965 593.069 L 723.863 593.069 C 797.176 593.069 856.82 634.963 856.93 686.558 L 856.93 794.158 C 856.93 806.616 866.962 816.648 879.42 816.648 C 891.878 816.648 901.91 806.616 901.91 794.158 L 901.91 740.909 L 939.504 778.503 C 948.324 787.213 962.542 787.213 971.252 778.503 C 980.072 769.683 980.072 755.462 971.252 746.752 L 933.661 709.158 L 986.912 709.158 Z" style="transform-box: fill-box; transform-origin: 50% 50%;" transform="matrix(-1, 0, 0, -1, -0.000026, 0.000012)"/>
  <path d="M 858.584 591.415 L 858.584 543.789 C 858.584 354.497 704.57 200.373 515.278 200.373 C 328.962 200.373 171.861 354.828 171.861 543.789 L 171.861 545.002 L 214.085 545.002 C 226.543 545.002 236.576 555.034 236.576 567.492 C 236.576 579.95 226.543 589.982 214.085 589.982 L 171.861 589.982 L 171.861 615.449 C 189.721 627.025 199.092 647.31 199.202 667.375 C 199.312 687.329 190.383 707.615 172.853 719.411 C 176.161 745.76 188.067 770.014 207.14 789.087 C 229.851 811.797 260.168 824.365 292.25 824.365 C 358.618 824.365 412.749 770.345 412.749 703.977 L 412.749 590.203 L 322.237 590.203 C 309.779 590.203 299.747 580.17 299.747 567.713 C 299.747 555.255 309.779 545.222 322.237 545.222 L 725.517 545.222 C 771.93 545.222 815.698 558.893 848.882 583.698 C 852.3 586.124 855.497 588.659 858.584 591.415 Z" fill="#F9DCB2" style="transform-box: fill-box; transform-origin: 50% 50%;" transform="matrix(-1, 0, 0, -1, -0.000091, -0.000039)"/>
  <path d="M 670.298 737.943 C 689.04 694.506 669.085 644.014 625.648 625.162 C 614.844 620.421 603.158 618.106 591.582 618.106 C 588.826 618.106 586.07 618.216 583.314 618.547 C 565.674 555.927 508.016 510.065 440.104 510.065 C 439.332 510.065 292.374 507.97 292.374 661.432 C 292.374 673.89 302.848 683.812 315.195 683.592 C 327.653 683.371 337.465 673.229 337.355 660.771 C 336.473 603.553 382.335 556.148 439.553 555.266 C 440.104 555.266 439.553 555.045 440.104 555.045 C 496.66 555.045 543.074 600.577 543.956 657.243 C 544.176 669.701 554.429 679.513 566.777 679.403 C 576.919 679.182 585.298 672.457 587.944 663.196 C 594.669 662.645 601.394 663.637 607.788 666.394 C 628.515 675.323 637.996 699.357 629.066 720.083 C 624.105 731.439 629.396 744.668 640.752 749.629 C 652.217 754.59 665.447 749.299 670.298 737.943 Z" style="transform-box: fill-box; transform-origin: 50% 50%;" transform="matrix(-1, 0, 0, -1, -0.000062, -0.000013)"/>
  <path d="M 856.819 149.33 C 856.819 130.257 842.597 113.831 823.856 111.075 C 823.635 111.075 778.544 112.287 732.682 78.662 C 721.106 81.418 712.397 91.892 712.397 104.35 C 712.397 118.902 724.193 130.809 738.856 130.809 C 742.274 130.809 745.581 130.147 748.668 128.934 C 755.613 126.178 763.441 126.95 769.615 131.139 C 775.788 135.329 779.537 142.164 779.537 149.661 C 779.647 170.828 797.066 188.026 818.233 188.026 C 839.4 188.026 856.819 170.718 856.819 149.33 Z" fill="#FE6865" style="transform-box: fill-box; transform-origin: 50% 50%;" transform="matrix(-1, 0, 0, -1, 0.000084, 0.000019)"/>
  <path d="M 766.087 314.919 C 778.544 314.919 788.577 304.887 788.577 292.429 C 788.577 279.971 778.544 269.939 766.087 269.939 C 753.629 269.939 743.597 279.971 743.597 292.429 C 743.597 304.887 753.629 314.919 766.087 314.919 Z" style="transform-box: fill-box; transform-origin: 50% 50%;" transform="matrix(-1, 0, 0, -1, -0.000143, -0.000019)"/>
  <path d="M 939.283 373.872 C 954.497 373.541 955.599 360.642 955.599 356.784 C 955.489 341.79 944.134 340.026 939.173 340.026 C 916.793 339.806 895.074 345.759 876.222 357.115 C 895.074 368.47 917.013 374.423 939.283 373.872 Z" fill="#FFCC66" style="transform-box: fill-box; transform-origin: 50% 50%;" transform="matrix(-1, 0, 0, -1, -0.000144, 0.000006)"/>
  <path d="M 923.628 479.736 L 923.628 416.235 L 916.793 416.235 C 910.619 416.235 904.886 421.637 903.563 428.803 L 903.563 482.162 C 910.178 480.949 916.903 480.177 923.628 479.736 Z" fill="#FE6865" style="transform-box: fill-box; transform-origin: 50% 50%;" transform="matrix(-1, 0, 0, -1, -0.000002, -0.000001)"/>
  <path d="M 512.521 866.699 L 512.521 949.053 C 498.741 947.509 484.629 946.627 470.518 946.517 L 470.518 866.809 L 512.521 866.809 L 512.521 866.699 Z" fill="#FFFFFF" style="transform-box: fill-box; transform-origin: 50% 50%;" transform="matrix(-1, 0, 0, -1, -0.000043, 0.000078)"/>
</svg>