<?xml version="1.0" encoding="utf-8"?>
<svg width="800px" height="800px" viewBox="0 0 1024 1024" class="icon" version="1.1" xmlns="http://www.w3.org/2000/svg">
  <path d="M 965.077 617.12 C 971.414 625.227 970.066 636.868 961.959 643.209 L 929.732 668.57 C 927.55 670.338 924.853 671.585 922.148 672.208 L 832.029 691.438 C 830.782 691.75 829.431 691.854 828.184 691.854 C 826.832 691.854 825.378 691.75 824.026 691.438 L 730.789 670.13 C 729.854 673.04 728.815 676.055 727.671 678.966 L 824.754 723.557 C 827.249 724.7 829.535 726.467 831.302 728.546 L 894.499 804.216 C 896.369 806.399 897.616 808.997 898.35 811.804 L 905.833 843.299 C 908.217 853.277 901.981 863.255 892.004 865.646 C 890.549 865.958 889.095 866.166 887.743 866.166 C 879.324 866.166 871.736 860.449 869.657 851.822 L 863.213 824.589 L 805.317 755.466 L 711.768 712.539 C 710.209 715.242 708.65 717.84 707.091 720.439 L 764.155 770.227 C 766.026 771.889 767.482 773.76 768.624 775.944 L 800.847 841.115 C 802.094 843.714 802.822 846.52 802.822 849.327 L 802.822 882.277 C 802.822 892.567 794.506 900.883 784.216 900.883 C 773.926 900.883 765.611 892.567 765.611 882.277 L 765.611 853.693 L 736.922 795.692 L 685.055 750.374 C 675.18 761.912 664.266 772.513 652.313 781.972 C 610.008 815.546 556.894 834.047 502.844 834.047 C 448.793 834.047 395.679 815.546 353.374 781.972 C 341.732 772.721 331.026 762.327 321.256 751.205 L 270.324 795.692 L 241.636 853.693 L 241.636 882.277 C 241.636 892.567 233.32 900.883 223.03 900.883 C 212.74 900.883 204.424 892.567 204.424 882.277 L 204.424 849.431 C 204.424 846.52 205.048 843.714 206.399 841.22 L 238.621 776.048 C 239.764 773.865 241.22 771.889 243.09 770.33 L 299.116 721.478 C 297.453 718.775 295.789 715.969 294.127 713.266 L 201.617 755.466 L 143.929 824.485 L 137.485 851.718 C 135.51 860.241 127.818 866.062 119.399 866.062 C 117.944 866.062 116.489 865.854 115.138 865.542 C 105.159 863.152 98.922 853.173 101.313 843.194 L 108.797 811.7 C 109.421 808.894 110.771 806.295 112.642 804.112 L 175.84 728.442 C 177.607 726.363 179.79 724.596 182.388 723.452 L 278.119 679.485 C 276.976 676.367 275.833 673.248 274.793 670.13 L 183.116 691.334 C 181.764 691.646 180.309 691.854 178.958 691.854 C 177.607 691.854 176.359 691.75 175.112 691.438 L 84.994 672.208 C 82.187 671.585 79.589 670.338 77.406 668.57 L 45.184 643.209 C 37.076 636.868 35.725 625.227 42.066 617.12 C 48.406 609.012 60.048 607.661 68.155 614.001 L 96.947 636.764 L 178.75 654.226 L 265.23 634.166 L 262.216 621.173 L 168.46 621.173 C 162.535 621.173 157.026 618.367 153.492 613.585 L 91.334 529.392 C 88.944 526.169 87.697 522.324 87.697 518.374 L 87.697 478.355 C 87.697 468.066 96.012 459.75 106.303 459.75 C 116.592 459.75 124.908 468.066 124.908 478.355 L 124.908 512.241 L 177.919 583.962 L 253.589 583.962 L 251.51 575.023 C 246.417 553.195 251.406 530.951 264.503 513.696 C 244.858 501.016 224.069 480.954 209.31 452.89 C 184.882 406.427 184.779 348.219 206.191 320.155 C 195.173 283.463 206.295 232.947 222.926 198.023 C 243.195 155.614 280.095 126.198 316.682 123.08 C 323.854 122.456 330.818 126.094 334.353 132.331 C 337.991 138.568 337.574 146.363 333.417 152.288 C 329.051 158.524 325.101 165.28 321.775 172.348 C 313.46 189.707 308.886 208.105 309.303 222.865 C 309.614 233.987 312.732 240.535 315.539 241.887 C 321.879 244.9 343.915 233.363 361.689 201.349 C 365.847 193.968 374.474 190.227 382.685 192.409 C 390.897 194.592 396.614 201.973 396.614 210.496 C 396.51 231.492 391.313 253.528 381.438 274.108 C 364.6 309.241 330.195 342.295 296.206 356.535 C 302.65 367.033 309.718 379.714 318.138 395.929 C 326.661 412.248 335.703 430.126 342.46 446.757 L 345.162 444.47 C 368.758 425.033 395.055 410.585 422.599 401.126 L 417.402 376.388 C 415.323 366.306 421.664 356.535 431.746 354.353 C 441.829 352.274 451.704 358.718 453.783 368.697 L 458.564 391.771 C 487.772 386.471 517.811 386.471 547.019 391.771 L 551.8 368.697 C 553.879 358.614 563.753 352.169 573.836 354.353 C 583.918 356.431 590.259 366.306 588.18 376.388 L 582.983 401.126 C 610.632 410.585 636.929 425.033 660.42 444.47 L 663.227 446.757 C 669.983 430.023 678.922 412.248 687.549 395.929 C 696.072 379.818 703.037 367.033 709.481 356.639 C 675.492 342.295 641.191 309.345 624.249 274.213 C 614.373 253.632 609.176 231.7 609.073 210.6 C 609.073 202.076 614.79 194.696 623.001 192.514 C 631.213 190.33 639.84 194.073 643.998 201.453 C 661.772 233.467 683.807 245.005 690.148 241.99 C 692.954 240.639 696.072 234.091 696.384 222.969 C 696.801 208.312 692.227 189.915 683.912 172.556 C 680.586 165.488 676.636 158.732 672.166 152.495 C 668.008 146.571 667.696 138.775 671.334 132.539 C 674.972 126.302 681.833 122.664 689.004 123.288 C 725.697 126.406 762.492 155.821 782.761 198.23 C 799.496 233.155 810.514 283.567 799.496 320.259 C 820.908 348.324 820.804 406.532 796.377 452.994 C 781.617 481.163 760.829 501.223 741.183 513.801 C 754.28 531.054 759.27 553.298 754.177 575.127 L 752.098 584.065 L 829.431 584.065 L 882.442 512.345 L 882.442 478.46 C 882.442 468.169 890.757 459.854 901.046 459.854 C 911.336 459.854 919.653 468.169 919.653 478.46 L 919.653 518.478 C 919.653 522.427 918.406 526.274 916.013 529.495 L 853.858 613.689 C 850.323 618.47 844.814 621.277 838.89 621.277 L 743.574 621.277 L 740.56 634.166 L 828.599 654.226 L 910.51 636.764 L 939.297 614.001 C 946.992 607.661 958.63 609.012 965.077 617.12 Z" style="transform-box: fill-box; transform-origin: 50% 50%;" transform="matrix(0, 1, -1, 0, 0.000053, -0.000019)"/>
  <path d="M 734.978 767.633 C 736.225 788.733 731.028 812.121 720.634 831.974 C 706.81 858.271 686.228 875.318 669.702 883.737 L 650.681 868.042 C 656.709 850.164 667.935 827.817 677.601 809.418 C 687.164 791.124 694.855 777.612 701.612 767.01 C 706.81 758.798 707.952 748.819 704.834 739.672 C 701.612 730.526 694.544 723.458 685.501 720.236 C 664.089 712.752 641.117 693.834 625.63 672.006 C 638.831 677.099 651.823 677.307 663.466 671.694 C 673.34 667.017 689.866 654.024 690.802 620.139 C 691.114 607.354 689.139 593.426 684.878 579.185 C 693.296 587.812 700.781 598.415 706.498 610.473 C 723.96 646.852 729.261 691.86 718.451 712.752 C 713.981 721.483 716.996 732.189 725.415 737.178 C 727.91 738.633 733.834 748.404 734.978 767.633 Z" style="fill: rgb(219, 69, 66); transform-box: fill-box; transform-origin: 50% 50%;" transform="matrix(0, 1, -1, 0, 0.000042, 0.000044)"/>
  <path d="M 607.323 429.833 C 618.133 438.772 622.914 452.908 619.692 466.629 L 602.541 540.012 C 592.147 584.5 566.682 624.621 530.925 653.102 C 495.169 681.478 450.266 697.173 404.531 697.173 C 358.796 697.173 313.893 681.478 278.137 653.102 C 242.277 624.726 216.914 584.5 206.52 540.012 L 189.37 466.629 C 186.147 452.908 190.929 438.876 201.739 429.833 L 270.445 372.977 C 309.319 340.858 356.821 324.851 404.427 324.851 C 452.033 324.851 499.639 340.858 538.409 372.977 L 607.323 429.833 Z" fill="#FE6865" style="transform-box: fill-box; transform-origin: 50% 50%;" transform="matrix(0, 1, -1, 0, -0.000026, 0.000042)"/>
  <path d="M 409.053 506.378 C 419.032 508.664 425.269 518.746 422.878 528.725 C 406.663 598.367 345.233 647.012 273.72 647.012 C 263.43 647.012 255.114 638.697 255.114 628.406 C 255.114 618.116 263.43 609.8 273.72 609.8 C 327.874 609.8 374.337 572.901 386.706 520.202 C 389.097 510.223 399.075 503.987 409.053 506.378 Z" style="fill: rgb(196, 69, 69); transform-box: fill-box; transform-origin: 50% 50%;" transform="matrix(0, 1, -1, 0, 0.000013, -0.00001)"/>
  <path d="M 697.429 230.899 C 709.07 236.408 722.063 236.304 735.265 231.211 C 719.777 253.039 696.702 271.956 675.392 279.441 C 666.246 282.662 659.178 289.73 656.06 298.774 C 652.838 307.921 653.981 317.899 659.281 326.215 C 666.039 336.921 673.626 350.329 683.189 368.623 C 692.854 387.125 704.08 409.369 710.109 427.247 L 691.089 442.839 C 674.458 434.419 653.981 417.372 640.156 391.075 C 629.762 371.326 624.565 347.835 625.813 326.838 C 626.955 307.609 632.881 297.838 635.478 296.383 C 643.898 291.29 646.912 280.688 642.444 271.956 C 631.633 251.065 636.935 206.161 654.397 169.677 C 660.113 157.62 667.598 147.017 676.017 138.39 C 671.859 152.631 669.781 166.558 670.093 179.343 C 671.027 213.125 687.657 226.118 697.429 230.899 Z" style="fill: rgb(219, 69, 66); transform-box: fill-box; transform-origin: 50% 50%;" transform="matrix(0, 1, -1, 0, -0.000048, -0.000005)"/>
</svg>