<?xml version="1.0" encoding="utf-8"?>
<svg width="800px" height="800px" viewBox="0 0 1024 1024" class="icon" version="1.1" xmlns="http://www.w3.org/2000/svg">
  <path d="M 444.468 368.242 C 508.396 440.826 508.396 550.369 444.357 622.953 C 356.124 591.544 301.853 544.375 301.853 495.653 C 301.853 447.264 354.903 400.095 444.468 368.242 Z M 735.915 288.111 L 736.026 292.217 C 718.823 291.219 701.509 290.664 684.085 290.664 C 665.217 290.664 646.35 291.33 627.704 292.439 C 652.565 275.681 681.976 266.247 712.941 265.692 C 719.045 265.581 724.705 267.801 729.034 272.018 C 733.362 276.458 735.804 282.118 735.915 288.111 Z M 892.626 695.759 C 893.07 715.181 863.659 737.489 820.596 738.599 C 739.244 740.708 660.667 725.392 596.407 696.092 C 624.93 698.977 654.119 700.42 683.974 700.42 C 757.668 700.42 829.031 691.541 892.071 674.45 L 892.626 695.759 Z M 900.839 294.215 C 931.47 294.215 957.438 314.414 966.318 342.05 C 934.578 328.399 898.397 317.078 858.664 308.643 C 870.429 299.431 885.19 294.215 900.839 294.215 Z" fill="#663333" style="transform-box: fill-box; transform-origin: 50% 50%;" transform="matrix(-1, 0, 0, -1, 0.000079, -0.000081)"/>
  <path d="M 729.145 509.049 C 729.145 565.096 748.346 618.813 782.973 661.764 C 730.477 657.547 683.863 626.804 659.225 579.413 C 659.114 579.08 657.005 575.973 655.895 574.752 C 648.237 566.872 635.696 566.539 627.705 574.197 C 599.515 601.388 555.232 625.028 499.85 642.453 C 434.702 662.985 358.122 673.861 278.435 673.861 C 216.173 673.861 156.796 667.424 101.858 654.661 C 94.311 652.885 86.986 651.11 79.772 649.112 C 142.257 566.539 142.257 451.448 79.883 368.875 C 107.962 361.217 138.039 355.335 169.67 351.117 C 204.852 346.456 241.477 344.125 278.324 344.125 C 324.716 344.125 370.109 347.788 413.282 355.113 C 507.286 370.983 585.42 403.28 627.594 443.901 C 635.474 451.559 648.126 451.337 655.784 443.346 C 656.894 442.236 657.782 441.015 658.559 439.683 C 658.781 439.35 659.003 439.017 659.114 438.573 C 659.114 438.462 659.225 438.462 659.225 438.351 C 683.752 391.072 730.366 360.44 782.751 356.222 C 748.346 399.285 729.145 453.001 729.145 509.049 Z" fill="#663333" style="transform-box: fill-box; transform-origin: 50% 50%;" transform="matrix(-1, 0, 0, -1, 0.000035, -0.000032)"/>
  <path d="M 1005.48 670.654 C 1007.48 663.218 1005.04 655.338 999.148 650.344 C 953.648 611.61 927.566 555.119 927.566 495.409 C 927.566 435.699 953.648 379.208 999.148 340.474 C 1005.04 335.479 1007.48 327.599 1005.48 320.274 C 1003.48 312.838 997.488 307.178 989.938 305.735 C 978.288 303.516 966.188 302.406 953.978 302.406 C 889.942 302.406 831.12 333.704 795.272 385.534 C 785.284 377.876 774.407 370.44 762.421 363.559 L 762.421 362.893 C 762.421 303.072 713.698 254.349 653.877 254.349 C 618.251 254.349 585.4 271.552 565.311 300.186 C 553.325 298.41 541.228 296.857 529.019 295.525 L 528.908 287.423 C 528.575 270.775 521.805 255.126 509.819 243.473 C 498.054 232.152 482.738 225.937 466.424 225.937 L 465.314 225.937 C 406.381 226.936 352.109 253.572 315.04 299.298 C 272.866 305.291 233.244 314.281 197.174 326.268 C 81.528 364.225 15.159 425.932 15.159 495.409 C 15.159 536.917 39.242 576.428 84.635 609.723 C 124.812 639.134 180.859 662.996 246.784 678.756 C 325.362 744.459 447.445 781.528 574.745 778.199 C 638.117 776.534 686.729 739.798 685.619 694.516 L 684.731 662.108 C 729.014 646.792 766.527 627.481 795.161 605.284 C 831.009 657.114 889.72 688.412 953.868 688.412 C 966.078 688.412 978.178 687.302 989.828 685.082 C 997.488 683.639 1003.48 678.09 1005.48 670.654 Z" style="transform-box: fill-box; transform-origin: 50% 50%;" transform="matrix(-1, 0, 0, -1, -0.000027, 0.000023)"/>
  <path d="M 603.244 411.826 C 606.573 422.259 600.691 433.468 590.259 436.798 C 530.327 455.776 459.296 465.765 385.047 465.765 C 374.06 465.765 365.07 456.886 365.07 445.788 C 365.07 434.8 373.949 425.81 385.047 425.81 C 455.301 425.81 522.114 416.488 578.161 398.73 C 580.159 398.064 582.157 397.842 584.154 397.842 C 592.7 397.953 600.469 403.391 603.244 411.826 Z" fill="#4EC8D8" style="transform-box: fill-box; transform-origin: 50% 50%;" transform="matrix(-1, 0, 0, -1, -0.000043, -0.000015)"/>
  <path d="M 782.751 661.542 C 748.124 618.591 728.923 564.874 728.923 508.827 C 728.923 452.779 748.124 399.063 782.751 356.111 C 730.366 360.329 683.752 390.961 659.225 438.24 C 659.225 438.351 659.114 438.351 659.114 438.462 C 658.892 438.906 658.67 439.239 658.559 439.572 C 657.782 440.793 656.894 442.014 655.784 443.235 C 648.126 451.115 635.585 451.448 627.594 443.79 C 585.42 403.169 507.286 370.872 413.282 355.002 C 370.109 347.677 324.716 344.014 278.324 344.014 C 241.366 344.014 204.852 346.345 169.67 351.006 C 138.039 355.224 107.962 361.106 79.883 368.764 C 142.257 451.337 142.257 566.428 79.772 649.001 C 86.986 650.888 94.311 652.774 101.858 654.55 C 156.796 667.313 216.173 673.75 278.435 673.75 C 358.122 673.75 434.702 662.874 499.85 642.342 C 555.232 624.806 599.515 601.166 627.705 574.086 C 635.585 566.428 648.237 566.65 655.895 574.641 C 657.005 575.862 659.114 578.969 659.225 579.302 C 683.641 626.582 730.255 657.325 782.751 661.542 Z" fill="#4EC8D8" style="transform-box: fill-box; transform-origin: 50% 50%;" transform="matrix(-1, 0, 0, -1, -0.000022, -0.000029)"/>
  <path d="M 409.62 710.264 C 400.741 682.518 374.77 662.43 344.139 662.43 C 328.49 662.43 313.84 667.646 301.964 676.858 C 341.697 685.404 377.878 696.613 409.62 710.264 Z" fill="#92E4EA" style="transform-box: fill-box; transform-origin: 50% 50%;" transform="matrix(-1, 0, 0, -1, 0.000007, -0.000004)"/>
  <path d="M 590.148 436.798 C 600.58 433.468 606.462 422.259 603.133 411.826 C 600.469 403.28 592.589 397.842 584.154 397.842 C 582.157 397.842 580.159 398.175 578.161 398.73 C 522.003 416.488 455.19 425.81 385.047 425.81 C 374.06 425.81 365.07 434.689 365.07 445.788 C 365.07 456.775 373.949 465.765 385.047 465.765 C 459.185 465.765 530.105 455.776 590.148 436.798 Z" style="transform-box: fill-box; transform-origin: 50% 50%;" transform="matrix(-1, 0, 0, -1, -0.000011, -0.000015)"/>
  <path d="M 599.729 738.266 C 642.791 737.156 672.313 714.737 671.758 695.426 L 671.203 674.117 C 608.164 691.098 536.8 700.087 463.106 700.087 C 433.251 700.087 403.951 698.645 375.539 695.759 C 439.799 724.948 518.377 740.375 599.729 738.266 Z M 515.047 291.995 L 514.936 287.889 C 514.825 281.785 512.384 276.125 508.055 272.018 C 503.727 267.801 497.956 265.581 491.962 265.692 C 460.998 266.247 431.587 275.681 406.726 292.439 C 425.371 291.219 444.239 290.664 463.106 290.664 C 480.642 290.442 497.956 290.997 515.047 291.995 Z" fill="#92E4EA" style="transform-box: fill-box; transform-origin: 50% 50%;" transform="matrix(-1, 0, 0, -1, 0.00003, -0.000024)"/>
  <path d="M 872.87 478.972 C 872.87 491.624 862.548 501.946 849.896 501.946 C 837.243 501.946 826.922 491.624 826.922 478.972 C 826.922 466.32 837.243 455.998 849.896 455.998 C 862.548 455.998 872.87 466.209 872.87 478.972 Z" fill="#663333" style="transform-box: fill-box; transform-origin: 50% 50%;" transform="matrix(-1, 0, 0, -1, 0.000034, -0.000004)"/>
  <path d="M 918.276 636.238 C 982.318 563.653 982.318 454.111 918.387 381.527 C 828.822 413.38 775.771 460.548 775.771 508.827 C 775.771 557.549 830.043 604.829 918.276 636.238 Z" fill="#92E4EA" style="transform-box: fill-box; transform-origin: 50% 50%;" transform="matrix(-1, 0, 0, -1, 0.000026, -0.000048)"/>
  <path d="M 826.922 478.972 C 826.922 461.287 846.067 450.234 861.383 459.076 C 868.491 463.18 872.87 470.765 872.87 478.972 C 872.87 496.657 853.725 507.71 838.409 498.868 C 831.3 494.764 826.922 487.179 826.922 478.972 Z" style="transform-box: fill-box; transform-origin: 50% 50%;" transform="matrix(-1, 0, 0, -1, 0.000034, -0.000004)"/>
</svg>