<?xml version="1.0" encoding="utf-8"?>
<svg version="1.1" id="Layer_1" xmlns="http://www.w3.org/2000/svg" viewBox="0 0 512 512">
  <circle style="fill:#FFD960;" cx="141.754" cy="30.504" r="22.441"/>
  <polygon style="fill:#ED412F;" points="302.429,122.443 302.429,254.196 248.898,254.196 248.898,299.079 409.569,299.079 &#10;&#9;409.569,122.443 "/>
  <g style="opacity:0.2;">
    <polygon style="fill:#231F20;" points="327.155,263.871 327.155,122.443 302.429,122.443 302.429,254.196 248.898,254.196 &#10;&#9;&#9;248.898,299.079 285.164,299.079 &#9;"/>
  </g>
  <polyline style="fill:#FF4D30;" points="215.1,77.559 302.429,77.559 302.429,254.196 141.758,254.196 141.758,77.559 &#10;&#9;188.226,77.559 "/>
  <path style="fill:#8C6E51;" d="M319.456,416.343c-48.375,0-87.593,39.217-87.593,87.593h175.189 C407.051,455.561,367.834,416.343,319.456,416.343z"/>
  <path style="fill:#8E5751;" d="M190.026,416.343c-48.376,0-87.593,39.217-87.593,87.593h129.429 c0-22.741,8.669-43.455,22.879-59.026C238.723,427.358,215.662,416.343,190.026,416.343z"/>
  <g style="opacity:0.2;">
    <path style="fill:#231F20;" d="M144.31,30.504c0-7.767,3.948-14.611,9.944-18.639c-3.572-2.399-7.87-3.802-12.496-3.802 c-12.394,0-22.44,10.048-22.44,22.441c0,12.394,10.047,22.442,22.44,22.442c4.627,0,8.925-1.403,12.496-3.801 C148.258,45.116,144.31,38.272,144.31,30.504z"/>
  </g>
  <g style="opacity:0.2;">
    <rect x="141.754" y="77.563" style="fill:#231F20;" width="24.994" height="176.638"/>
  </g>
  <g style="opacity:0.2;">
    <path style="fill:#231F20;" d="M331.953,417.245c-4.084-0.583-8.253-0.902-12.497-0.902c-48.375,0-87.593,39.217-87.593,87.593 h24.992C256.855,459.805,289.499,423.312,331.953,417.245z"/>
  </g>
  <g style="opacity:0.2;">
    <path style="fill:#231F20;" d="M202.561,417.239c-4.095-0.586-8.279-0.897-12.536-0.897c-48.376,0-87.593,39.217-87.593,87.593 h24.993C127.425,459.791,160.088,423.291,202.561,417.239z"/>
  </g>
  <path style="" d="M409.569,114.379h-99.077v-36.82c0-4.454-3.609-8.063-8.063-8.063H215.1 c-4.453,0-8.063,3.609-8.063,8.063s3.61,8.063,8.063,8.063h79.266v36.821v123.692h-45.468H149.82V85.622h38.405 c4.453,0,8.063-3.609,8.063-8.063s-3.61-8.063-8.063-8.063H149.82v-7.863c0-0.571-0.061-1.127-0.174-1.664 c13.008-3.486,22.615-15.372,22.615-29.464C172.263,13.684,158.579,0,141.758,0c-16.82,0-30.504,13.684-30.504,30.504 c0,14.093,9.608,25.978,22.614,29.464c-0.113,0.538-0.174,1.093-0.174,1.664v15.925v176.638v172.481 c-23.821,17.415-39.326,45.559-39.326,77.26c0,4.454,3.61,8.063,8.063,8.063H231.86h175.189c4.454,0,8.063-3.609,8.063-8.063 c0-52.745-42.912-95.656-95.657-95.656c-24.923,0-47.647,9.585-64.69,25.257c-17.57-16.136-40.727-25.257-64.74-25.257 c-14.354,0-27.975,3.183-40.205,8.872V262.259h91.015v36.82c0,0.01,0.001,0.019,0.001,0.03c0.001,0.228,0.014,0.456,0.034,0.683 c0.003,0.039,0.002,0.08,0.006,0.118c0.027,0.263,0.067,0.527,0.12,0.787c0.018,0.089,0.045,0.174,0.067,0.261 c0.04,0.168,0.078,0.336,0.129,0.503c0.04,0.129,0.091,0.253,0.138,0.379c0.044,0.12,0.083,0.243,0.132,0.362 c0.075,0.178,0.162,0.349,0.249,0.52c0.032,0.063,0.058,0.128,0.091,0.19c0.128,0.235,0.267,0.463,0.416,0.685 c0.011,0.016,0.025,0.032,0.037,0.048c0.141,0.204,0.289,0.402,0.448,0.592c0.005,0.006,0.01,0.014,0.015,0.02 c0.031,0.037,0.066,0.068,0.097,0.103c0.148,0.171,0.302,0.338,0.465,0.496c0.08,0.077,0.162,0.148,0.244,0.221 c0.126,0.112,0.252,0.223,0.384,0.327c0.098,0.077,0.197,0.149,0.297,0.221c0.127,0.091,0.256,0.178,0.388,0.261 c0.103,0.066,0.207,0.13,0.314,0.19c0.142,0.081,0.287,0.155,0.434,0.228c0.1,0.049,0.198,0.1,0.3,0.144 c0.168,0.074,0.341,0.139,0.515,0.202c0.085,0.031,0.169,0.066,0.255,0.094c0.203,0.067,0.412,0.12,0.622,0.17 c0.06,0.014,0.12,0.033,0.181,0.046c0.242,0.052,0.489,0.089,0.74,0.119c0.031,0.003,0.062,0.011,0.095,0.014 c0.279,0.029,0.562,0.045,0.849,0.045h160.671c4.454,0,8.063-3.609,8.063-8.063V122.442 C417.632,117.989,414.023,114.379,409.569,114.379z M319.456,424.406c41.133,0,75.071,31.388,79.128,71.468H240.344 c0.052-0.515,0.117-1.027,0.18-1.538c0.073-0.603,0.14-1.207,0.226-1.806c0.09-0.624,0.2-1.243,0.305-1.864 c0.101-0.601,0.198-1.205,0.313-1.802c0.113-0.584,0.243-1.163,0.369-1.745c0.138-0.634,0.27-1.27,0.423-1.898 c0.124-0.51,0.262-1.015,0.396-1.522c0.185-0.7,0.367-1.401,0.57-2.093c0.118-0.406,0.25-0.807,0.375-1.212 c0.246-0.792,0.495-1.585,0.764-2.366c0.096-0.277,0.201-0.553,0.3-0.829c0.325-0.906,0.657-1.81,1.013-2.702 c0.052-0.129,0.108-0.257,0.16-0.387C257.56,444.993,286.146,424.406,319.456,424.406z M243.823,445.371 c-5.974,7.704-10.68,16.22-14.033,25.247c-0.099,0.264-0.197,0.528-0.292,0.793c-0.2,0.554-0.398,1.108-0.588,1.667 c-0.186,0.543-0.362,1.09-0.539,1.636c-0.186,0.582-0.369,1.164-0.544,1.75c-0.192,0.642-0.379,1.286-0.559,1.932 c-0.096,0.347-0.19,0.693-0.283,1.042c-0.229,0.862-0.447,1.728-0.653,2.598c-0.022,0.094-0.047,0.186-0.069,0.281 c-0.231,0.997-0.441,2-0.641,3.007c-0.045,0.231-0.089,0.462-0.133,0.693c-0.173,0.911-0.334,1.824-0.482,2.743 c-0.018,0.116-0.04,0.231-0.058,0.347c-0.162,1.04-0.306,2.084-0.435,3.134c-0.023,0.188-0.043,0.377-0.064,0.565 c-0.102,0.88-0.192,1.765-0.271,2.653c-0.012,0.139-0.031,0.275-0.042,0.414H110.901c4.054-40.08,37.994-71.468,79.125-71.468 C209.974,424.406,229.218,431.973,243.823,445.371z M127.38,30.504c0-7.928,6.45-14.379,14.379-14.379s14.38,6.45,14.38,14.379 c0,7.929-6.45,14.38-14.38,14.38C133.83,44.884,127.38,38.433,127.38,30.504z M280.264,262.259l-23.303,19.538v-19.538H280.264z M401.506,291.016H271.063l36.486-30.591c0.006-0.005,0.014-0.012,0.02-0.017l0.04-0.033c0.052-0.043,0.096-0.09,0.145-0.134 c0.143-0.126,0.285-0.253,0.418-0.388c0.085-0.086,0.161-0.177,0.242-0.266c0.095-0.105,0.19-0.209,0.28-0.318 c0.087-0.108,0.166-0.218,0.246-0.329c0.073-0.1,0.148-0.199,0.217-0.303c0.076-0.115,0.144-0.233,0.214-0.352 c0.065-0.109,0.13-0.216,0.189-0.328c0.06-0.113,0.112-0.229,0.166-0.345c0.058-0.124,0.117-0.246,0.169-0.374 c0.044-0.109,0.081-0.219,0.12-0.329c0.049-0.138,0.1-0.275,0.141-0.416c0.032-0.109,0.057-0.218,0.084-0.328 c0.037-0.144,0.074-0.287,0.102-0.434c0.024-0.123,0.039-0.246,0.056-0.37c0.019-0.134,0.042-0.269,0.055-0.405 c0.015-0.163,0.019-0.327,0.025-0.49c0.003-0.09,0.014-0.178,0.014-0.269V130.504h91.014L401.506,291.016L401.506,291.016z"/>
</svg>