<?xml version="1.0" encoding="utf-8"?>
<svg height="800px" width="800px" version="1.1" id="Layer_1" xmlns="http://www.w3.org/2000/svg" viewBox="0 0 512 512">
  <path style="fill:#90C8EC;" d="M470.161,380.968C427.154,454.513,347.347,503.916,256,503.916 C119.081,503.916,8.084,392.921,8.084,256C8.084,119.08,119.081,8.084,256,8.084C392.92,8.084,503.916,119.08,503.916,256 c0,36.384-7.837,70.939-21.918,102.066"/>
  <g>
    <circle style="fill:#578CAD;" cx="218.662" cy="125.014" r="37.335"/>
    <circle style="fill:#578CAD;" cx="349.216" cy="148.642" r="23.619"/>
    <path style="fill:#578CAD;" d="M80.093,336.428c-19.678,0-37.505,7.903-50.503,20.697c20.043,44.81,53.001,82.576,94.138,108.578 c17.24-13.156,28.371-33.908,28.371-57.267C152.1,368.667,119.86,336.428,80.093,336.428z"/>
    <circle style="fill:#578CAD;" cx="331.959" cy="351.07" r="42.84"/>
    <circle style="fill:#578CAD;" cx="166.405" cy="270.099" r="23.216"/>
  </g>
  <g>
    <path style="" d="M437.019,74.982C388.667,26.628,324.379,0,256,0S123.334,26.628,74.982,74.982 C26.628,123.333,0,187.62,0,256c0,54.144,16.71,105.713,47.666,148.846c0.36,0.503,0.724,1.004,1.089,1.504 c0.575,0.788,1.144,1.579,1.728,2.362c12.273,16.512,26.512,31.496,42.462,44.659c1.063,0.881,2.135,1.746,3.21,2.609 c0.066,0.053,0.13,0.105,0.196,0.157C141.544,492.332,197.256,512,256,512c45.527,0,90.237-12.104,129.297-35.005 c37.904-22.223,69.663-54.018,91.843-91.947c2.254-3.855,0.956-8.805-2.897-11.06c-3.855-2.254-8.804-0.956-11.06,2.897 C420.279,450.254,340.892,495.832,256,495.832c-43.113,0-83.6-11.442-118.6-31.438c14.599-14.874,22.783-34.718,22.783-55.958 c0-44.163-35.928-80.092-80.092-80.092c-17.215,0-33.637,5.422-47.285,15.448C22.07,316.59,16.168,286.971,16.168,256 C16.168,123.756,123.756,16.168,256,16.168S495.832,123.756,495.832,256c0,34.419-7.132,67.638-21.199,98.734 c-1.841,4.068-0.034,8.857,4.034,10.697c4.069,1.841,8.858,0.033,10.697-4.033C504.385,328.194,512,292.734,512,256 C512,187.62,485.372,123.333,437.019,74.982z M80.093,344.512c35.247,0,63.923,28.676,63.923,63.923 c0,18.178-7.518,35.076-20.804,47.178c-35.888-23.953-64.984-57.311-83.732-96.531C50.902,349.65,65.122,344.512,80.093,344.512z"/>
    <path style="" d="M264.084,125.019c0-25.045-20.374-45.42-45.419-45.42s-45.419,20.375-45.419,45.42 c0,25.044,20.374,45.419,45.419,45.419S264.084,150.062,264.084,125.019z M189.415,125.019c0-16.13,13.122-29.252,29.251-29.252 s29.25,13.122,29.25,29.252c0,16.129-13.122,29.251-29.251,29.251S189.415,141.147,189.415,125.019z"/>
    <path style="" d="M380.924,148.637c0-17.482-14.221-31.704-31.702-31.704c-17.482,0-31.704,14.222-31.704,31.704 c0,17.481,14.222,31.704,31.704,31.704C366.702,180.34,380.924,166.119,380.924,148.637z M333.685,148.637 c0-8.566,6.97-15.536,15.536-15.536c8.565,0,15.534,6.97,15.534,15.536s-6.969,15.536-15.534,15.536 C340.655,164.172,333.685,157.203,333.685,148.637z"/>
    <path style="" d="M281.035,351.076c0,28.079,22.844,50.924,50.923,50.924c28.08,0,50.925-22.844,50.925-50.924 s-22.845-50.924-50.925-50.924C303.879,300.152,281.035,322.995,281.035,351.076z M331.958,316.32 c19.165,0,34.757,15.592,34.757,34.756s-15.592,34.756-34.757,34.756c-19.164,0-34.755-15.591-34.755-34.756 C297.204,331.911,312.793,316.32,331.958,316.32z"/>
    <path style="" d="M135.105,270.096c0,17.259,14.041,31.301,31.299,31.301c17.259,0,31.301-14.042,31.301-31.301 s-14.042-31.3-31.301-31.3C149.146,238.796,135.105,252.836,135.105,270.096z M181.537,270.096c0,8.344-6.789,15.133-15.133,15.133 c-8.343,0-15.13-6.788-15.13-15.133c0-8.344,6.787-15.131,15.13-15.131C174.748,254.964,181.537,261.752,181.537,270.096z"/>
  </g>
  <g style="opacity:0.2;">
    <path style="fill:#231F20;" d="M33.432,256c0-132.668,104.213-240.999,235.242-247.597C264.475,8.192,260.25,8.084,256,8.084 C119.081,8.084,8.084,119.08,8.084,256c0,136.921,110.997,247.916,247.916,247.916c4.251,0,8.478-0.108,12.678-0.319 C137.646,497,33.432,388.671,33.432,256z"/>
  </g>
</svg>