<?xml version="1.0" encoding="utf-8"?>
<svg height="800px" width="800px" version="1.1" id="Layer_1" xmlns="http://www.w3.org/2000/svg" viewBox="0 0 512.002 512.002">
  <g>
    <path style="fill:#B1DBF2;" d="M392.294,230.938h18.895c10.966,0,19.856,8.89,19.856,19.857v13.237 c0,10.965-8.89,19.855-19.856,19.855H237.454c-10.965,0-19.855-8.89-19.855-19.855v-13.237c0-10.967,8.89-19.857,19.855-19.857 h127.124"/>
    <circle style="fill:#B1DBF2;" cx="324.319" cy="136.866" r="18.753"/>
  </g>
  <g>
    <path style="fill:#90C8EC;" d="M27.594,110.152c0,43.45,30.279,79.805,70.881,89.183c0.092-10.889,8.938-19.69,19.847-19.69h1.653 c10.911,0,19.758,8.801,19.848,19.69c40.601-9.378,70.881-45.732,70.881-89.183C210.705,110.152,27.594,110.152,27.594,110.152z"/>
    <path style="fill:#90C8EC;" d="M119.149,45.046c-18.898,0-34.218,15.321-34.218,34.22h68.435 C153.367,60.367,138.048,45.046,119.149,45.046z"/>
  </g>
  <g>
    <path style="fill:#3A5D74;" d="M230.148,94.708c0-8.529-6.915-15.441-15.445-15.441H23.595c-8.529,0-15.443,6.912-15.443,15.441 l0,0c0,8.53,6.914,15.444,15.443,15.444h191.107C223.233,110.152,230.148,103.237,230.148,94.708L230.148,94.708z"/>
    <path style="fill:#3A5D74;" d="M139.832,283.886v-84.385c0-10.966-8.891-19.857-19.856-19.857h-1.653 c-10.965,0-19.856,8.891-19.856,19.857v84.385H139.832z"/>
  </g>
  <g>
    <path style="fill:#578CAD;" d="M163.571,416.349c0,27.949-22.657,50.605-50.605,50.605c-27.947,0-50.602-22.656-50.602-50.605 c0-27.945,22.655-50.601,50.602-50.601C140.915,365.748,163.571,388.404,163.571,416.349z"/>
    <path style="fill:#578CAD;" d="M463.838,416.349c0,27.949-22.657,50.605-50.604,50.605c-27.948,0-50.603-22.656-50.603-50.605 c0-27.945,22.655-50.601,50.603-50.601C441.181,365.748,463.838,388.404,463.838,416.349z"/>
    <path style="fill:#578CAD;" d="M313.706,416.349c0,27.949-22.658,50.605-50.605,50.605c-27.948,0-50.602-22.656-50.602-50.605 c0-27.945,22.654-50.601,50.602-50.601C291.049,365.748,313.706,388.404,313.706,416.349z"/>
  </g>
  <g>
    <circle style="fill:#90C8EC;" cx="112.965" cy="416.349" r="18.753"/>
    <circle style="fill:#90C8EC;" cx="413.24" cy="416.349" r="18.753"/>
    <circle style="fill:#90C8EC;" cx="263.103" cy="416.349" r="18.753"/>
    <path style="fill:#90C8EC;" d="M465.683,283.886h-61.22H270.437h-14.671h-61.22H60.519c-21.078,0-38.165,17.089-38.165,38.167 v72.693c0,10.966,8.891,19.855,19.857,19.855h20.198c0.923-27.134,23.199-48.852,50.559-48.852 c27.363,0,49.635,21.719,50.561,48.852h49.015c0.925-27.134,23.199-48.852,50.56-48.852c27.362,0,49.636,21.719,50.56,48.852 h49.015c0.924-27.134,23.198-48.852,50.56-48.852c27.362,0,49.636,21.719,50.56,48.852h20.2c10.964,0,19.855-8.89,19.855-19.855 v-72.693C503.848,300.973,486.759,283.886,465.683,283.886z"/>
  </g>
  <g style="opacity:0.2;">
    <path style="fill:#231F20;" d="M243.824,264.031v-13.237c0-10.967,8.891-19.857,19.856-19.857h-26.225 c-10.965,0-19.855,8.89-19.855,19.857v13.237c0,10.965,8.89,19.855,19.855,19.855h26.225 C252.715,283.886,243.824,274.996,243.824,264.031z"/>
  </g>
  <g style="opacity:0.2;">
    <path style="fill:#231F20;" d="M53.819,110.152H27.594c0,43.45,30.279,79.805,70.881,89.183c0.027-3.335,0.885-6.469,2.363-9.219 C72.796,174.472,53.819,144.54,53.819,110.152z"/>
  </g>
  <g style="opacity:0.2;">
    <path style="fill:#231F20;" d="M132.262,47.654c-4.039-1.678-8.466-2.608-13.112-2.608c-18.898,0-34.218,15.321-34.218,34.22 h26.225C111.157,65.013,119.871,52.8,132.262,47.654z"/>
  </g>
  <g style="opacity:0.2;">
    <path style="fill:#231F20;" d="M34.377,94.708c0-8.529,6.914-15.441,15.442-15.441H23.595c-8.529,0-15.443,6.912-15.443,15.441 c0,8.53,6.914,15.444,15.443,15.444h26.224C41.291,110.152,34.377,103.237,34.377,94.708z"/>
  </g>
  <g style="opacity:0.1;">
    <path style="fill:#231F20;" d="M132.261,183.921c-3.38-2.671-7.642-4.277-12.286-4.277h-1.653 c-10.965,0-19.856,8.891-19.856,19.857v84.385h26.224v-84.385C124.691,193.178,127.656,187.558,132.261,183.921z"/>
  </g>
  <g style="opacity:0.2;">
    <path style="fill:#231F20;" d="M88.59,416.349c0-23.409,15.901-43.098,37.488-48.875c-4.183-1.12-8.576-1.726-13.112-1.726 c-27.947,0-50.602,22.656-50.602,50.601c0,27.949,22.655,50.605,50.602,50.605c4.537,0,8.93-0.607,13.112-1.726 C104.491,459.451,88.59,439.761,88.59,416.349z"/>
  </g>
  <g style="opacity:0.2;">
    <path style="fill:#231F20;" d="M388.857,416.349c0-23.409,15.901-43.098,37.489-48.875c-4.184-1.12-8.576-1.726-13.113-1.726 c-27.948,0-50.603,22.656-50.603,50.601c0,27.949,22.655,50.605,50.603,50.605c4.537,0,8.929-0.607,13.113-1.726 C404.758,459.451,388.857,439.761,388.857,416.349z"/>
  </g>
  <g style="opacity:0.2;">
    <path style="fill:#231F20;" d="M238.725,416.349c0-23.409,15.9-43.098,37.488-48.875c-4.184-1.12-8.577-1.726-13.113-1.726 c-27.948,0-50.602,22.656-50.602,50.601c0,27.949,22.654,50.605,50.602,50.605c4.536,0,8.929-0.607,13.113-1.726 C254.624,459.451,238.725,439.761,238.725,416.349z"/>
  </g>
  <g style="opacity:0.2;">
    <path style="fill:#231F20;" d="M48.577,394.745v-72.693c0-21.079,17.09-38.166,38.165-38.166H60.519 c-21.078,0-38.165,17.089-38.165,38.167v72.693c0,10.966,8.891,19.855,19.857,19.855h20.198c0.011-0.308,0.038-0.612,0.054-0.917 C54.415,411.148,48.577,403.63,48.577,394.745z"/>
  </g>
  <g>
    <path style="" d="M112.967,389.446c-14.834,0-26.905,12.069-26.905,26.905s12.069,26.904,26.905,26.904 s26.906-12.069,26.906-26.904S127.802,389.446,112.967,389.446z M112.967,426.951c-5.846,0-10.601-4.755-10.601-10.6 c0-5.845,4.755-10.601,10.601-10.601c5.846,0,10.602,4.755,10.602,10.601C123.569,422.196,118.812,426.951,112.967,426.951z"/>
    <path style="" d="M413.235,389.446c-14.834,0-26.905,12.069-26.905,26.905s12.069,26.904,26.905,26.904 s26.906-12.069,26.906-26.904S428.07,389.446,413.235,389.446z M413.235,426.951c-5.845,0-10.601-4.755-10.601-10.6 c0-5.845,4.755-10.601,10.601-10.601c5.846,0,10.602,4.755,10.602,10.601C423.836,422.196,419.08,426.951,413.235,426.951z"/>
    <path style="" d="M263.101,389.446c-14.834,0-26.905,12.069-26.905,26.905s12.069,26.904,26.905,26.904 c14.836,0,26.905-12.069,26.905-26.904S277.936,389.446,263.101,389.446z M263.101,426.951c-5.846,0-10.601-4.755-10.601-10.6 c0-5.845,4.755-10.601,10.601-10.601s10.601,4.755,10.601,10.601C273.702,422.196,268.947,426.951,263.101,426.951z"/>
    <path style="" d="M465.683,275.734h-29.057c1.647-3.564,2.572-7.526,2.572-11.703v-13.237 c0-15.444-12.565-28.009-28.008-28.009h-18.895c-4.503,0-8.152,3.649-8.152,8.152c0,4.503,3.649,8.152,8.152,8.152h18.895 c6.454,0,11.704,5.251,11.704,11.705v13.237c0,6.453-5.25,11.703-11.704,11.703H237.454c-6.453,0-11.703-5.25-11.703-11.703 v-13.237c0-6.454,5.25-11.705,11.703-11.705h127.124c4.503,0,8.152-3.649,8.152-8.152c0-4.503-3.649-8.152-8.152-8.152h-32.105 v-60.281c8.29-2.641,14.846-9.199,17.488-17.488h44.52c1.636,0,3.155-0.486,4.431-1.315c3.299,21.336,21.789,37.723,44.034,37.723 h9.294c4.503,0,8.152-3.649,8.152-8.152c0-4.503-3.649-8.152-8.152-8.152h-9.294c-15.58,0-28.255-12.676-28.255-28.256 c0-15.579,12.675-28.254,28.255-28.254h9.294c4.503,0,8.152-3.649,8.152-8.152s-3.649-8.152-8.152-8.152h-9.294 c-22.245,0-40.734,16.385-44.034,37.721c-1.276-0.829-2.796-1.315-4.431-1.315h-44.52c-3.462-10.863-13.645-18.754-25.64-18.754 c-14.834,0-26.905,12.069-26.905,26.906c0,11.994,7.891,22.178,18.753,25.64v60.282h-78.716c-15.443,0-28.007,12.565-28.007,28.009 v13.237c0,4.177,0.926,8.139,2.572,11.703h-64.035v-70.166c19.082-5.778,36.251-17.295,48.852-32.933 c12.558-15.584,20.115-34.744,21.697-54.648c11.195-1.836,19.767-11.574,19.767-23.28c0-13.009-10.586-23.593-23.597-23.593 h-53.979c-3.812-19.476-21.001-34.22-41.574-34.22S81.386,51.639,77.574,71.115H23.595C10.585,71.115,0,81.698,0,94.708 c0,11.707,8.57,21.444,19.765,23.28c1.581,19.904,9.139,39.063,21.696,54.647c12.602,15.639,29.771,27.156,48.853,32.934v70.166 H60.519c-25.54,0-46.317,20.779-46.317,46.318v72.693c0,15.443,12.565,28.008,28.009,28.008h12.358 c3.202,29.396,28.166,52.353,58.399,52.353c30.234,0,55.2-22.957,58.402-52.353h33.335c3.202,29.396,28.166,52.353,58.399,52.353 c30.234,0,55.2-22.957,58.401-52.353h33.333c3.202,29.396,28.166,52.353,58.4,52.353s55.199-22.957,58.4-52.353h12.358 c15.443,0,28.007-12.565,28.007-28.008v-72.693C512,296.513,491.222,275.734,465.683,275.734z M324.322,126.262 c5.846,0,10.602,4.756,10.602,10.602c0,5.846-4.756,10.602-10.602,10.602c-5.845,0-10.601-4.756-10.601-10.602 S318.476,126.262,324.322,126.262z M119.149,53.198c11.526,0,21.33,7.523,24.76,17.916H94.388 C97.818,60.72,107.622,53.198,119.149,53.198z M16.304,94.708c0-4.018,3.271-7.289,7.291-7.289h61.337h68.435h61.337 c4.022,0,7.293,3.271,7.293,7.289c0,4.021-3.272,7.292-7.293,7.292h-3.999H27.594h-3.999C19.575,102,16.304,98.728,16.304,94.708z M36.134,118.304h166.03c-3.141,32.742-25.044,60.346-56.179,70.826c-3.349-8.367-10.617-14.751-19.527-16.871 c-0.061-0.014-0.121-0.028-0.182-0.042c-1.275-0.295-2.581-0.502-3.915-0.615c-0.142-0.012-0.286-0.023-0.429-0.033 c-0.648-0.045-1.299-0.076-1.958-0.076h-1.653c-0.66,0-1.311,0.032-1.959,0.076c-0.141,0.01-0.284,0.021-0.425,0.033 c-1.338,0.113-2.649,0.322-3.927,0.617c-0.054,0.013-0.109,0.025-0.163,0.038c-8.913,2.117-16.185,8.503-19.535,16.874 C61.178,178.65,39.276,151.044,36.134,118.304z M106.618,199.532c0.001-0.043,0.008-0.086,0.009-0.129 c0.054-6.401,5.301-11.607,11.695-11.607h1.653c0.4,0,0.796,0.021,1.185,0.06c5.847,0.596,10.462,5.547,10.512,11.546 c0,0.043,0.008,0.086,0.009,0.129v76.201h-25.062V199.532z M112.967,458.801c-23.407,0-42.45-19.044-42.45-42.453 c0-0.483,0.021-0.96,0.037-1.439c0-0.011,0.002-0.022,0.002-0.033c0.024-0.716,0.066-1.427,0.125-2.133 c0-0.003,0-0.008,0.001-0.011c0.052-0.628,0.123-1.251,0.202-1.872c0.016-0.127,0.032-0.257,0.049-0.384 c0.064-0.473,0.142-0.941,0.222-1.409c0.052-0.299,0.102-0.598,0.16-0.895c0.054-0.279,0.114-0.557,0.174-0.834 c0.109-0.503,0.221-1.007,0.348-1.503c0.015-0.062,0.033-0.123,0.048-0.184c4.753-18.246,21.369-31.755,41.083-31.755 c19.681,0,36.273,13.463,41.06,31.661c0.032,0.121,0.064,0.24,0.093,0.361c0.111,0.438,0.21,0.882,0.307,1.325 c0.072,0.333,0.145,0.666,0.209,1.002c0.047,0.241,0.088,0.486,0.13,0.729c0.089,0.517,0.175,1.036,0.246,1.56 c0.011,0.079,0.02,0.158,0.03,0.237c0.175,1.348,0.29,2.716,0.337,4.103c0.001,0.017,0.003,0.035,0.004,0.052 c0.015,0.472,0.036,0.942,0.036,1.418C155.419,439.757,136.375,458.801,112.967,458.801z M263.101,458.801 c-23.407,0-42.45-19.044-42.45-42.453c0-0.487,0.021-0.97,0.037-1.453c0-0.005,0.001-0.011,0.001-0.017 c0.024-0.702,0.065-1.4,0.123-2.092c0.002-0.024,0.003-0.049,0.005-0.073c0.051-0.613,0.121-1.22,0.197-1.824 c0.018-0.141,0.035-0.283,0.054-0.423c0.063-0.463,0.14-0.922,0.217-1.379c0.053-0.307,0.104-0.613,0.164-0.917 c0.053-0.275,0.113-0.548,0.171-0.822c0.11-0.504,0.222-1.009,0.349-1.506c0.016-0.063,0.033-0.126,0.049-0.189 c4.754-18.245,21.369-31.753,41.083-31.753c19.681,0,36.273,13.463,41.059,31.66c0.031,0.122,0.064,0.242,0.095,0.364 c0.11,0.435,0.208,0.874,0.304,1.314c0.073,0.339,0.147,0.677,0.212,1.018c0.046,0.234,0.085,0.471,0.126,0.705 c0.091,0.528,0.179,1.058,0.251,1.592c0.009,0.064,0.016,0.128,0.025,0.192c0.176,1.356,0.292,2.734,0.34,4.13 c0.001,0.024,0.004,0.047,0.005,0.07c0.015,0.466,0.036,0.931,0.036,1.401C305.554,439.757,286.51,458.801,263.101,458.801z M413.235,458.801c-23.407,0-42.451-19.044-42.451-42.453c0-0.487,0.021-0.97,0.037-1.453c0-0.005,0.001-0.011,0.001-0.017 c0.024-0.704,0.066-1.404,0.123-2.1c0.001-0.021,0.003-0.041,0.004-0.062c0.051-0.617,0.121-1.228,0.198-1.837 c0.017-0.137,0.034-0.274,0.052-0.41c0.064-0.467,0.141-0.93,0.22-1.393c0.052-0.301,0.103-0.602,0.161-0.901 c0.054-0.281,0.115-0.561,0.175-0.841c0.108-0.497,0.217-0.992,0.342-1.483c0.018-0.072,0.037-0.142,0.055-0.214 c4.759-18.239,21.371-31.739,41.079-31.739c19.695,0,36.298,13.482,41.07,31.701c0.025,0.096,0.05,0.19,0.074,0.287 c0.117,0.462,0.222,0.929,0.324,1.398c0.066,0.311,0.135,0.622,0.195,0.935c0.051,0.262,0.096,0.527,0.141,0.792 c0.086,0.5,0.17,1.001,0.238,1.508c0.013,0.093,0.024,0.187,0.036,0.282c0.173,1.339,0.287,2.699,0.334,4.077 c0,0.017,0.003,0.034,0.004,0.052c0.015,0.473,0.036,0.943,0.036,1.42C455.686,439.757,436.643,458.801,413.235,458.801z M495.696,394.745c0,6.454-5.25,11.704-11.703,11.704h-12.84c-0.072-0.432-0.163-0.857-0.245-1.284 c-0.053-0.273-0.1-0.548-0.157-0.82c-4.916-24.002-24.243-42.389-48.549-46.064c-0.018-0.002-0.038-0.007-0.057-0.009 c-0.864-0.129-1.735-0.24-2.611-0.333c-0.143-0.015-0.285-0.034-0.428-0.048c-0.781-0.077-1.568-0.134-2.36-0.18 c-0.201-0.012-0.4-0.03-0.601-0.04c-0.965-0.047-1.936-0.074-2.913-0.074s-1.948,0.027-2.913,0.074 c-0.202,0.01-0.401,0.028-0.602,0.04c-0.79,0.046-1.577,0.103-2.358,0.18c-0.145,0.014-0.287,0.033-0.43,0.048 c-0.875,0.092-1.745,0.203-2.608,0.333c-0.021,0.003-0.04,0.007-0.061,0.01c-24.311,3.677-43.64,22.074-48.551,46.084 c-0.05,0.24-0.091,0.483-0.138,0.724c-0.087,0.453-0.183,0.903-0.259,1.36H321.02c-0.067-0.4-0.152-0.793-0.227-1.19 c-0.06-0.313-0.114-0.628-0.178-0.939c-4.925-23.987-24.245-42.363-48.542-46.038c-0.02-0.003-0.04-0.007-0.06-0.01 c-0.863-0.129-1.733-0.24-2.609-0.333c-0.143-0.015-0.287-0.034-0.43-0.048c-0.781-0.076-1.568-0.134-2.359-0.18 c-0.201-0.012-0.4-0.03-0.602-0.04c-0.965-0.047-1.936-0.074-2.913-0.074c-0.977,0-1.948,0.027-2.913,0.074 c-0.202,0.01-0.401,0.028-0.602,0.04c-0.79,0.046-1.577,0.103-2.359,0.18c-0.143,0.014-0.286,0.033-0.429,0.048 c-0.876,0.092-1.747,0.203-2.61,0.333c-0.018,0.003-0.038,0.007-0.057,0.009c-24.321,3.678-43.657,22.089-48.559,46.112 c-0.041,0.198-0.075,0.399-0.114,0.598c-0.093,0.486-0.196,0.968-0.278,1.459h-34.296c-0.066-0.398-0.151-0.788-0.225-1.183 c-0.061-0.317-0.115-0.636-0.182-0.951c-4.928-23.984-24.245-42.358-48.539-46.034c-0.022-0.003-0.043-0.007-0.064-0.01 c-0.862-0.129-1.73-0.24-2.604-0.332c-0.145-0.015-0.289-0.034-0.434-0.049c-0.78-0.076-1.567-0.134-2.356-0.179 c-0.201-0.012-0.401-0.03-0.603-0.04c-0.965-0.047-1.936-0.074-2.913-0.074c-0.977,0-1.948,0.027-2.913,0.074 c-0.201,0.01-0.399,0.028-0.599,0.04c-0.791,0.046-1.579,0.103-2.363,0.18c-0.141,0.014-0.282,0.033-0.423,0.048 c-0.879,0.092-1.753,0.204-2.621,0.334c-0.015,0.002-0.029,0.004-0.045,0.007c-24.32,3.674-43.654,22.076-48.561,46.094 c-0.048,0.23-0.087,0.463-0.133,0.695c-0.088,0.461-0.186,0.917-0.263,1.382H42.21c-6.454,0-11.705-5.25-11.705-11.704v-72.693 c0-16.551,13.465-30.015,30.013-30.015h37.947h41.366h97.622h173.735h54.493c16.55,0,30.013,13.465,30.013,30.015v72.691H495.696z"/>
  </g>
</svg>