<?xml version="1.0" encoding="utf-8"?>
<svg height="800px" width="800px" version="1.1" id="Layer_1" xmlns="http://www.w3.org/2000/svg" viewBox="0 0 512 512">
  <path style="fill: rgb(255, 217, 96);" d="M 357.298 336.819 L 351.357 302.185 L 430.996 224.558 C 434.376 221.262 435.593 216.336 434.133 211.851 C 432.676 207.364 428.796 204.093 424.126 203.413 L 314.066 187.42 L 264.842 87.69 C 262.757 83.456 258.449 80.777 253.731 80.777 C 249.012 80.777 244.7 83.456 242.614 87.69 L 193.392 187.42 L 83.332 203.413 C 78.667 204.091 74.783 207.361 73.323 211.851 C 71.867 216.334 73.084 221.262 76.462 224.558 L 156.105 302.185 L 137.303 411.801 C 136.503 416.45 138.414 421.15 142.232 423.925 C 146.047 426.699 151.112 427.066 155.286 424.868 L 253.732 373.114 L 352.168 424.867 C 353.983 425.819 355.965 426.29 357.938 426.29 C 360.507 426.29 363.069 425.493 365.227 423.924 C 369.043 421.15 370.953 416.449 370.158 411.8 L 363.101 370.651"/>
  <g style="opacity: 0.2;" transform="matrix(1.33745, 0, 0, 1.33745, -88.6547, -88.8502)">
    <path style="fill:#231F20;" d="M193.023,367.477l13.371-77.961c0.547-3.188-0.467-4.978-1.137-5.775l-0.525-0.512l0,0l0,0 l-57.2-55.753c-2.527-2.465-3.436-6.148-2.348-9.501c0.234-0.716,0.563-1.379,0.949-2.001l-17.538,2.548 c-3.488,0.507-6.392,2.952-7.483,6.309c-1.089,3.352-0.179,7.036,2.347,9.501l59.548,58.041l-14.058,81.959 c-0.598,3.476,0.831,6.99,3.685,9.065c2.853,2.074,6.64,2.348,9.761,0.705l14.346-7.541c-0.011-0.008-0.023-0.013-0.033-0.02 C193.855,374.467,192.426,370.953,193.023,367.477z"/>
  </g>
  <path style="" d="M 149.501 437.131 C 144.709 437.133 139.947 435.629 135.879 432.671 C 128.678 427.437 125.143 418.739 126.65 409.969 L 144.491 305.96 L 68.918 232.3 C 62.548 226.08 60.298 216.967 63.044 208.512 C 65.799 200.043 72.978 193.994 81.782 192.714 L 186.215 177.538 L 232.921 82.906 C 236.852 74.927 244.829 69.967 253.732 69.967 C 262.636 69.967 270.611 74.927 274.543 82.914 L 321.245 177.538 L 425.679 192.714 C 434.488 193.992 441.671 200.047 444.415 208.514 C 447.166 216.962 444.918 226.079 438.545 232.297 L 362.972 305.961 L 367.952 334.992 C 368.963 340.876 365.009 346.467 359.123 347.477 C 353.236 348.486 347.648 344.533 346.641 338.648 L 340.7 304.015 C 340.097 300.507 341.26 296.928 343.808 294.444 L 423.448 216.817 C 423.876 216.4 424.035 215.765 423.85 215.2 C 423.663 214.622 423.163 214.201 422.572 214.114 L 312.51 198.121 C 308.989 197.609 305.943 195.398 304.369 192.205 L 255.146 92.476 C 254.874 91.926 254.334 91.59 253.731 91.59 C 253.124 91.59 252.581 91.926 252.313 92.47 L 203.088 192.205 C 201.513 195.397 198.469 197.609 194.946 198.121 L 84.886 214.114 C 84.293 214.201 83.79 214.626 83.604 215.198 C 83.421 215.761 83.582 216.401 84.012 216.823 L 163.651 294.445 C 166.2 296.929 167.362 300.508 166.759 304.016 L 147.957 413.632 C 147.854 414.233 148.098 414.824 148.587 415.182 C 149.07 415.533 149.721 415.58 150.25 415.304 L 248.695 363.55 C 251.848 361.894 255.61 361.896 258.758 363.55 L 357.195 415.301 C 357.627 415.528 358.145 415.705 358.864 415.182 C 359.347 414.832 359.597 414.219 359.495 413.626 L 352.439 372.483 C 351.429 366.598 355.381 361.008 361.267 359.998 C 367.141 358.988 372.742 362.942 373.752 368.828 L 380.809 409.977 C 382.308 418.751 378.77 427.446 371.58 432.674 C 367.587 435.575 362.869 437.107 357.933 437.107 C 354.187 437.107 350.452 436.186 347.137 434.444 L 253.732 385.331 L 160.322 434.439 C 156.897 436.241 153.189 437.131 149.501 437.131 Z"/>
</svg>