<?xml version="1.0" encoding="utf-8"?>
<svg viewBox="0 0 480 360" xmlns="http://www.w3.org/2000/svg">
<g style="fill: #777a; font-family: Arial, sans-serif; font-weight: 700; white-space: pre;">
  <g>
    <title>X Labels</title>
    <text x="326" y="205">100</text>
    <text x="427" y="205">200</text>
    <text x="21" y="205">-200</text>
    <text x="121" y="205">-100</text>
    <text x="222" y="205">0</text>
  </g>
  <g>
    <title>Y Labels</title>
    <text x="195" y="285">-100</text>
    <text x="200" y="85">100</text>
  </g>
  <g style="stroke: #7777; stroke-width: 2px; ">
  <g>
    <title>X Axis</title>
    <path d="M 0 180 L 480 180"/>
    <path d="M 340 170 L 340 190"/>
    <path d="M 440 170 L 440 190"/>
    <path d="M 140 170 L 140 190"/>
    <path d="M 40 170 L 40 190"/>
    <path d="M 290 175 L 290 185"/>
    <path d="M 390 175 L 390 185"/>
    <path d="M 90 175 L 90 185"/>
    <path d="M 190 175 L 190 185"/>
  </g>
  <g>
    <title>Y Axis</title>
    <path d="M 240 0 L 240 360"/>
    <path d="M 230 80 L 250 80"/>
    <path d="M 230 280 L 250 280"/>
    <path d="M 235 130 L 245 130"/>
    <path d="M 235 330 L 245 330"/>
    <path d="M 235 30 L 245 30"/>
    <path d="M 235 230 L 245 230"/>
  </g>
  </g>
</g>
</svg>