<svg xmlns="http://www.w3.org/2000/svg" width="480" height="360">
  <defs>
    <clipPath id="a">
      <path fill="none" d="M0 500h750V0H0Z"/>
    </clipPath>
    <clipPath id="b">
      <path fill="none" d="M0 0h750v500H0Z"/>
    </clipPath>
    <clipPath id="c">
      <path fill="none" d="M0 500h750V0H0Z"/>
    </clipPath>
    <clipPath id="d">
      <path fill="none" d="M0 500h750V0H0Z"/>
    </clipPath>
    <clipPath id="e">
      <path fill="none" d="M0 500h750V0H0Z"/>
    </clipPath>
    <clipPath id="f">
      <path fill="none" d="M0 500h750V0H0Z"/>
    </clipPath>
    <clipPath id="g">
      <path fill="none" d="M0 500h750V0H0Z"/>
    </clipPath>
  </defs>
  <path fill="#2f486f" d="M0 360h480V0H0Z"/>
  <path fill="none" d="M0 0h480v360H0Z"/>
  <g clip-path="url(#a)" transform="matrix(.64 0 0 -.72 0 360)">
    <path fill="#253e5b" d="m112 486 14 14H35c-8-18-8-39 0-57 5-12 14-23 20-34 18-29 24-66 13-98-11-35-38-61-68-84V88l23-4c25-1 50 6 73 16 28 11 55 26 75 48s32 53 27 82c-5 34-31 61-57 83-10 9-21 18-28 29a169 169 0 0 0-22 89c1 20 8 40 21 55"/>
  </g>
  <g clip-path="url(#a)" transform="matrix(.64 0 0 -.72 0 360)">
    <path fill="#253e5b" d="M750 342c-13 0-26-3-40-3-18 0-37 4-51 15a51 51 0 0 0-21 48c3 15 14 28 20 42 7 18 8 38 1 56H482c2-12 1-24-2-36-5-17-14-33-23-49-23-41-42-87-33-133 2-8 5-16 10-23 4-6 11-11 18-15 24-13 51-20 78-15 19 3 36 12 54 18 33 13 71 20 102 2 15-9 27-23 42-31 7-4 14-6 22-7Z"/>
  </g>
  <g clip-path="url(#a)" transform="matrix(.64 0 0 -.72 0 360)">
    <path fill="#253e5b" d="M750 148c-9 0-19-1-28-3-12-4-22-12-31-20-27-26-43-62-63-94-8-11-17-23-27-31h29l8 12c15 21 39 34 63 40 16 5 32 7 49 8Z"/>
  </g>
  <g clip-path="url(#a)" transform="matrix(.64 0 0 -.72 0 360)">
    <path fill="#253e5b" d="M411 33c-6 12-12 24-12 37 1 12 6 24 10 36 9 30 6 62-2 93-5 21-12 43-26 59-23 26-63 47-96 26-31-20-47-59-55-93-4-18-5-37-1-55 9-43 44-75 62-114 3-7 6-15 7-22h43l-5 15c-5 15-9 31-11 47-1 9-2 19 2 27l6 7c6 2 13-3 17-8 10-13 17-28 19-45 1-11 0-23 2-34l3-9h63c-10 10-19 21-26 33"/>
  </g>
  <g clip-path="url(#a)" transform="matrix(.64 0 0 -.72 0 360)">
    <path fill="#36557a" d="M235 394a58 58 0 1 0-116 0 58 58 0 0 0 116 0"/>
  </g>
  <g clip-path="url(#a)" transform="matrix(.64 0 0 -.72 0 360)">
    <path fill="#36557a" d="M632 116a81 81 0 1 0-163 0 81 81 0 0 0 163 0"/>
  </g>
  <g clip-path="url(#a)" transform="matrix(.64 0 0 -.72 0 360)">
    <path fill="#fff" d="M83 368h-2v-3h1l1 1v2"/>
  </g>
  <g clip-path="url(#a)" transform="matrix(.64 0 0 -.72 0 360)">
    <path fill="#fff" d="M84 362v1h-2v-2h2v1"/>
  </g>
  <g clip-path="url(#a)" transform="matrix(.64 0 0 -.72 0 360)">
    <path fill="#fff" d="M264 453h-1v1h-2l-1-1 1-1h1v-1h1v1h1a183 183 0 0 0 0 1"/>
  </g>
  <g clip-path="url(#a)" transform="matrix(.64 0 0 -.72 0 360)">
    <path fill="#fff" d="m261 452-1 1 1-1"/>
  </g>
  <g clip-path="url(#a)" transform="matrix(.64 0 0 -.72 0 360)">
    <path fill="#fff" d="M265 450h-1 1l-1 1-1-1 1-1h1v1"/>
  </g>
  <g clip-path="url(#a)" transform="matrix(.64 0 0 -.72 0 360)">
    <path fill="#b6ecff" d="M529 157Z"/>
  </g>
  <path fill="none" d="M0 360h480V0H0Z"/>
  <g clip-path="url(#b)" transform="matrix(.64 0 0 -.72 0 360)">
    <path fill="#36557a" d="M41 389a87 87 0 1 0-173 0 87 87 0 0 0 173 0"/>
  </g>
  <g clip-path="url(#b)" transform="matrix(.64 0 0 -.72 0 360)">
    <path fill="#36557a" d="M820 498a64 64 0 1 0-128 0 64 64 0 0 0 128 0"/>
  </g>
  <g clip-path="url(#b)" transform="matrix(.64 0 0 -.72 0 360)">
    <path fill="#36557a" d="M789-31a71 71 0 1 0-141 0 71 71 0 0 0 141 0"/>
  </g>
  <g clip-path="url(#b)" transform="matrix(.64 0 0 -.72 0 360)">
    <path fill="#36557a" d="M255-26a86 86 0 1 0-172 0 86 86 0 0 0 172 0"/>
  </g>
  <g clip-path="url(#b)" transform="matrix(.64 0 0 -.72 0 360)">
    <path fill="#36557a" d="M449 543a86 86 0 1 0-172 0 86 86 0 0 0 172 0"/>
  </g>
  <path fill="none" d="M0 0h480v360H0Z"/>
  <g clip-path="url(#c)" transform="matrix(.64 0 0 -.72 0 360)">
    <path fill="#fff" d="M253 372v1l-1 1h-1l-1-1v-2l1-1h1l1 1v1"/>
  </g>
  <g clip-path="url(#c)" transform="matrix(.64 0 0 -.72 0 360)">
    <path fill="#fff" d="M274 379v-2 2"/>
  </g>
  <g clip-path="url(#c)" transform="matrix(.64 0 0 -.72 0 360)">
    <path fill="#fff" d="M271 361h-1v1-1h-1v-1h2v1"/>
  </g>
  <g clip-path="url(#c)" transform="matrix(.64 0 0 -.72 0 360)">
    <path fill="#fff" d="M262 364h-1a1 1 0 0 1-1-1v-1h1a1 1 0 0 1 1 0v1a1 1 0 0 1 0 1"/>
  </g>
  <g clip-path="url(#c)" transform="matrix(.64 0 0 -.72 0 360)">
    <path fill="#fff" d="M244 356h-2v-1a30 30 0 0 0 0-1h2v2"/>
  </g>
  <g clip-path="url(#c)" transform="matrix(.64 0 0 -.72 0 360)">
    <path fill="#fff" d="M256 343v-3c2 0 2 3 0 3"/>
  </g>
  <g clip-path="url(#c)" transform="matrix(.64 0 0 -.72 0 360)">
    <path fill="#fff" d="M272 349h-1a1 1 0 0 1-2-1h1v-1a1 1 0 0 1 1 0 1 1 0 0 1 1 0v1a1 1 0 0 1 0 1"/>
  </g>
  <g clip-path="url(#c)" transform="matrix(.64 0 0 -.72 0 360)">
    <path fill="#fff" d="M244 343h-1a1 1 0 0 1-1 0 1 1 0 0 1 1-1h1v1"/>
  </g>
  <g clip-path="url(#c)" transform="matrix(.64 0 0 -.72 10 340)">
    <path fill="#fff" d="m197 103 1 1-1 1v1h-3v-3h1v-1l1 1h1"/>
  </g>
  <g clip-path="url(#c)" transform="matrix(.64 0 0 -.72 0 360)">
    <path fill="#fff" d="M214 89c-1 1-2 0-2-1 1-1 2 0 2 1"/>
  </g>
  <g clip-path="url(#c)" transform="matrix(.64 0 0 -.72 0 360)">
    <path fill="#fff" d="M197 82v2h-1v-2h1"/>
  </g>
  <g clip-path="url(#c)" transform="matrix(.64 0 0 -.72 0 360)">
    <path fill="#fff" d="M195 91v2a1 1 0 0 1-2 0v-1a120 120 0 0 0-1-1 1 1 0 0 1 1 0h1a1 1 0 0 1 1 0"/>
  </g>
  <g clip-path="url(#c)" transform="matrix(.64 0 0 -.72 -50 250)">
    <path fill="#fff" d="M178 101v2h-2v-1l1-1h1"/>
  </g>
  <g clip-path="url(#c)" transform="matrix(.64 0 0 -.72 -60 380)">
    <path fill="#fff" d="M174 84c-1 1-3 0-2-1s3 0 2 1"/>
  </g>
  <g clip-path="url(#c)" transform="matrix(.64 0 0 -.72 -50 250)">
    <path fill="#fff" d="M188 75v1a1 1 0 0 1-2 0h-1a1 1 0 0 1 1-2h1a1 1 0 0 1 1 1"/>
  </g>
  <g clip-path="url(#c)" transform="matrix(.64 0 0 -.72 0 360)">
    <path fill="#fff" d="m168 95-1 1a1 1 0 0 1-1 0 1 1 0 0 1 0-1 125 125 0 0 0 1 0h1"/>
  </g>
  <g clip-path="url(#c)" transform="matrix(.64 0 0 -.72 0 360)">
    <path fill="#fff" d="M704 332v2l-1 1h-2l-1-1v-1l1-1 1-1h1v1h1"/>
  </g>
  <g clip-path="url(#c)" transform="matrix(.64 0 0 -.72 0 360)">
    <path fill="#fff" d="M720 318c0 1-2 0-1-1s2 0 1 1"/>
  </g>
  <g clip-path="url(#c)" transform="matrix(.64 0 0 -.72 0 360)">
    <path fill="#fff" d="M704 311v1h-2v-1a205 205 0 0 0 1 0h1"/>
  </g>
  <g clip-path="url(#c)" transform="matrix(.64 0 0 -.72 0 360)">
    <path fill="#fff" d="M701 320v1a1 1 0 0 1-1 1l-1-1a120 120 0 0 0 0-1 1 1 0 0 1 1 0 1 1 0 0 1 1 0"/>
  </g>
  <g clip-path="url(#c)" transform="matrix(.64 0 0 -.72 0 360)">
    <path fill="#fff" d="M685 330v2h-1a16 16 0 0 1-1 0v-2h2"/>
  </g>
  <g clip-path="url(#c)" transform="matrix(.64 0 0 -.72 -20 380)">
    <path fill="#fff" d="M680 313c0 1-2 0-1-1 0-1 2 0 1 1"/>
  </g>
  <g clip-path="url(#c)" transform="matrix(.64 0 0 -.72 20 380)">
    <path fill="#fff" d="M694 304v1a1 1 0 0 1-1 0h-1a1 1 0 0 1 1-2 1 1 0 0 1 1 1"/>
  </g>
  <g clip-path="url(#c)" transform="matrix(.64 0 0 -.72 -60 350)">
    <path fill="#fff" d="M674 324v1a1 1 0 0 1-1 0 1 1 0 0 1 0-1v-1h1v1"/>
  </g>
  <g clip-path="url(#c)" transform="matrix(.64 0 0 -.72 140 190)">
    <path fill="#fff" d="m373 209-1-1v-1l1-1h1v-1l1 1h1v2l-1 1h-2"/>
  </g>
  <g clip-path="url(#c)" transform="matrix(.64 0 0 -.72 0 360)">
    <path fill="#fff" d="M358 224c0-1 2 0 1 1 0 1-2 0-1-1"/>
  </g>
  <g clip-path="url(#c)" transform="matrix(.64 0 0 -.72 0 360)">
    <path fill="#fff" d="M375 230v-2h1v1c1 0 1 0 0 0v1h-1"/>
  </g>
  <g clip-path="url(#c)" transform="matrix(.64 0 0 -.72 0 360)">
    <path fill="#fff" d="M377 220v-1a1 1 0 0 1 1 0h1a1 1 0 0 1 0 2h-1a1 1 0 0 1-1-1"/>
  </g>
  <g clip-path="url(#c)" transform="matrix(.64 0 0 -.72 0 360)">
    <path fill="#fff" d="M392 209v-2l1-1a20 20 0 0 1 0 1h1v1l-1 1h-1"/>
  </g>
  <g clip-path="url(#c)" transform="matrix(.64 0 0 -.72 0 360)">
    <path fill="#fff" d="M398 225c1-1 3 0 2 1s-3 0-2-1"/>
  </g>
  <g clip-path="url(#c)" transform="matrix(.64 0 0 -.72 -10 340)">
    <path fill="#fff" d="M385 236v-1a1 1 0 0 1 2-1v1a1 1 0 0 1 0 1 1 1 0 0 1 0 1h-1a1 1 0 0 1-1-1"/>
  </g>
  <g clip-path="url(#c)" transform="matrix(.64 0 0 -.72 20 360)">
    <path fill="#fff" d="M403 214v-1a1 1 0 0 1 1 0 1 1 0 0 1 1 0 1 1 0 0 1 0 1h-2"/>
  </g>
  <g clip-path="url(#c)" transform="matrix(.64 0 0 -.72 0 360)">
    <path fill="#fff" d="M365 477v1l-1 1h-3l-1-1v-2l1-1h3l1 1v1"/>
  </g>
  <g clip-path="url(#c)" transform="matrix(.64 0 0 -.72 0 360)">
    <path fill="#fff" d="m298 438-1 1h-1v-1h-1v-1h1v-1h1l1 1v1"/>
  </g>
  <g clip-path="url(#c)" transform="matrix(.64 0 0 -.72 0 360)">
    <path fill="#fff" d="M386 365v1h-1v1h-1l-1-1v-1a67 67 0 0 0 0-1h1l1-1 1 1v1Z"/>
  </g>
  <g clip-path="url(#c)" transform="matrix(.64 0 0 -.72 0 360)">
    <path fill="#fff" d="M305 315v-3c2 0 2 3 0 3"/>
  </g>
  <g clip-path="url(#c)" transform="matrix(.64 0 0 -.72 0 360)">
    <path fill="#fff" d="m177 226-1 1v1h-2l-1-1v-3a180 180 0 0 1 2 0h1l1 1v1Z"/>
  </g>
  <g clip-path="url(#c)" transform="matrix(.64 0 0 -.72 0 360)">
    <path fill="#fff" d="M129 246v-2c2 0 2 2 0 2"/>
  </g>
  <g clip-path="url(#c)" transform="matrix(.64 0 0 -.72 0 360)">
    <path fill="#fff" d="m84 454-1 1a102 102 0 0 0-1 1h-1l-1-1v-2l1-1h2v1h1v1"/>
  </g>
  <g clip-path="url(#c)" transform="matrix(.64 0 0 -.72 0 360)">
    <path fill="#fff" d="M21 393v-2 2"/>
  </g>
  <g clip-path="url(#c)" transform="matrix(.64 0 0 -.72 0 360)">
    <path fill="#fff" d="M465 200v1h-2l-1-1v-1h1v-1h1l1 1v1Z"/>
  </g>
  <g clip-path="url(#c)" transform="matrix(.64 0 0 -.72 0 360)">
    <path fill="#fff" d="M501 291a209 209 0 0 0-2 1v-1l-1-1 1-1h2v2"/>
  </g>
  <g clip-path="url(#c)" transform="matrix(.64 0 0 -.72 0 360)">
    <path fill="#fff" d="M691 435c-3 0-3-4 0-4 2 0 2 4 0 4"/>
  </g>
  <g clip-path="url(#c)" transform="matrix(.64 0 0 -.72 0 360)">
    <path fill="#fff" d="M637 478a1 1 0 0 1-1 1h-1v-2h2v1Z"/>
  </g>
  <g clip-path="url(#c)" transform="matrix(.64 0 0 -.72 0 360)">
    <path fill="#fff" d="m666 182-1 1h-1v-1a1 1 0 0 1 0-2h2a1 1 0 0 1 0 2"/>
  </g>
  <g clip-path="url(#c)" transform="matrix(.64 0 0 -.72 0 360)">
    <path fill="#fff" d="M722 105a2 2 0 0 1-3-1v-1c-1 0 0 0 0 0v-2h2a9 9 0 0 1 1 1 2 2 0 0 1 0 3"/>
  </g>
  <g clip-path="url(#c)" transform="matrix(.64 0 0 -.72 0 360)">
    <path fill="#fff" d="M686 18c-2 0-2-3 0-3s2 3 0 3"/>
  </g>
  <g clip-path="url(#c)" transform="matrix(.64 0 0 -.72 0 360)">
    <path fill="#fff" d="M540 16c-2 0-2-4 0-4 3 0 3 4 0 4"/>
  </g>
  <g clip-path="url(#c)" transform="matrix(.64 0 0 -.72 0 360)">
    <path fill="#fff" d="M370 110c-3 0-3-3 0-3 2 0 2 3 0 3"/>
  </g>
  <g clip-path="url(#c)" transform="matrix(.64 0 0 -.72 0 360)">
    <path fill="#fff" d="M309 158v1h-2v-1h1v-1h1v1"/>
  </g>
  <g clip-path="url(#c)" transform="matrix(.64 0 0 -.72 0 360)">
    <path fill="#fff" d="M249 44c-2 0-2-4 0-4 3 0 3 4 0 4"/>
  </g>
  <g clip-path="url(#c)" transform="matrix(.64 0 0 -.72 0 360)">
    <path fill="#fff" d="M176 17c-2 0-2-3 0-3s2 3 0 3"/>
  </g>
  <g clip-path="url(#c)" transform="matrix(.64 0 0 -.72 0 360)">
    <path fill="#fff" d="M37 212v1h-2l-1-1v-2h3v2"/>
  </g>
  <g clip-path="url(#c)" transform="matrix(.64 0 0 -.72 0 360)">
    <path fill="#fff" d="M220 484a1 1 0 0 1-2 0v-1h1-1 1v-1h1v2"/>
  </g>
  <g clip-path="url(#d)" transform="matrix(.64 0 0 -.72 7 260)">
    <path fill="#fff" d="m177 226-1 1v1h-2l-1-1v-3a180 180 0 0 1 2 0h1l1 1v1Z"/>
  </g>
  <g clip-path="url(#e)" transform="matrix(.64 0 0 -.72 -354 272)">
    <path fill="#fff" d="M701 320v1a1 1 0 0 1-1 1l-1-1a120 120 0 0 0 0-1 1 1 0 0 1 1 0 1 1 0 0 1 1 0"/>
  </g>
  <g clip-path="url(#e)" transform="matrix(.64 0 0 -.72 -354 272)">
    <path fill="#fff" d="M694 304v1a1 1 0 0 1-1 0h-1a1 1 0 0 1 1-2 1 1 0 0 1 1 1"/>
  </g>
  <g clip-path="url(#f)" transform="matrix(.64 0 0 -.72 -72 521)">
    <path fill="#fff" d="M701 320v1a1 1 0 0 1-1 1l-1-1a120 120 0 0 0 0-1 1 1 0 0 1 1 0 1 1 0 0 1 1 0"/>
  </g>
  <g clip-path="url(#f)" transform="matrix(.64 0 0 -.72 -72 521)">
    <path fill="#fff" d="M694 304v1a1 1 0 0 1-1 0h-1a1 1 0 0 1 1-2 1 1 0 0 1 1 1"/>
  </g>
  <g clip-path="url(#g)" transform="matrix(.64 0 0 -.72 217 280)">
    <path fill="#fff" d="M249 44c-2 0-2-4 0-4 3 0 3 4 0 4"/>
  </g>
</svg>
