<?xml version="1.0" encoding="utf-8"?>
<svg xmlns="http://www.w3.org/2000/svg" width="480" height="360">
  <defs>
    <clipPath id="a">
      <path fill="none" d="M0 500h750V0H0Z"/>
    </clipPath>
    <clipPath id="b">
      <path fill="none" d="M0 0h750v500H0Z"/>
    </clipPath>
  </defs>
  <path d="M0 360h480V0H0Z" style="fill: rgb(34, 96, 141);"/>
  <path fill="none" d="M0 0h480v360H0Z"/>
  <g clip-path="url(#a)" transform="matrix(.64 0 0 -.72 0 360)">
    <path d="m112 486 14 14H35c-8-18-8-39 0-57 5-12 14-23 20-34 18-29 24-66 13-98-11-35-38-61-68-84V88l23-4c25-1 50 6 73 16 28 11 55 26 75 48s32 53 27 82c-5 34-31 61-57 83-10 9-21 18-28 29a169 169 0 0 0-22 89c1 20 8 40 21 55" style="fill: rgb(19, 75, 115);"/>
  </g>
  <g clip-path="url(#a)" transform="matrix(.64 0 0 -.72 0 360)">
    <path d="M750 342c-13 0-26-3-40-3-18 0-37 4-51 15a51 51 0 0 0-21 48c3 15 14 28 20 42 7 18 8 38 1 56H482c2-12 1-24-2-36-5-17-14-33-23-49-23-41-42-87-33-133 2-8 5-16 10-23 4-6 11-11 18-15 24-13 51-20 78-15 19 3 36 12 54 18 33 13 71 20 102 2 15-9 27-23 42-31 7-4 14-6 22-7Z" style="fill: rgb(19, 75, 115);"/>
  </g>
  <g clip-path="url(#a)" transform="matrix(.64 0 0 -.72 0 360)">
    <path d="M750 148c-9 0-19-1-28-3-12-4-22-12-31-20-27-26-43-62-63-94-8-11-17-23-27-31h29l8 12c15 21 39 34 63 40 16 5 32 7 49 8Z" style="fill: rgb(19, 75, 115);"/>
  </g>
  <g clip-path="url(#a)" transform="matrix(.64 0 0 -.72 0 360)">
    <path d="M411 33c-6 12-12 24-12 37 1 12 6 24 10 36 9 30 6 62-2 93-5 21-12 43-26 59-23 26-63 47-96 26-31-20-47-59-55-93-4-18-5-37-1-55 9-43 44-75 62-114 3-7 6-15 7-22h43l-5 15c-5 15-9 31-11 47-1 9-2 19 2 27l6 7c6 2 13-3 17-8 10-13 17-28 19-45 1-11 0-23 2-34l3-9h63c-10 10-19 21-26 33" style="fill: rgb(19, 75, 115);"/>
  </g>
  <g clip-path="url(#a)" transform="matrix(.64 0 0 -.72 0 360)">
    <path d="M235 394a58 58 0 1 0-116 0 58 58 0 0 0 116 0" style="fill: rgb(41, 117, 169);"/>
  </g>
  <g clip-path="url(#a)" transform="matrix(.64 0 0 -.72 0 360)">
    <path d="M632 116a81 81 0 1 0-163 0 81 81 0 0 0 163 0" style="fill: rgb(41, 117, 169);"/>
  </g>
  <g clip-path="url(#a)" transform="matrix(.64 0 0 -.72 0 360)">
    <path fill="#fff" d="m261 452-1 1 1-1"/>
  </g>
  <g clip-path="url(#a)" transform="matrix(.64 0 0 -.72 0 360)">
    <path fill="#b6ecff" d="M529 157Z"/>
  </g>
  <path fill="none" d="M0 360h480V0H0Z"/>
  <g clip-path="url(#b)" transform="matrix(.64 0 0 -.72 0 360)">
    <path d="M41 389a87 87 0 1 0-173 0 87 87 0 0 0 173 0" style="fill: rgb(41, 117, 169);"/>
  </g>
  <g clip-path="url(#b)" transform="matrix(.64 0 0 -.72 0 360)">
    <path d="M820 498a64 64 0 1 0-128 0 64 64 0 0 0 128 0" style="fill: rgb(41, 117, 169);"/>
  </g>
  <g clip-path="url(#b)" transform="matrix(.64 0 0 -.72 0 360)">
    <path d="M789-31a71 71 0 1 0-141 0 71 71 0 0 0 141 0" style="fill: rgb(41, 117, 169);"/>
  </g>
  <g clip-path="url(#b)" transform="matrix(.64 0 0 -.72 0 360)">
    <path d="M255-26a86 86 0 1 0-172 0 86 86 0 0 0 172 0" style="fill: rgb(41, 117, 169);"/>
  </g>
  <g clip-path="url(#b)" transform="matrix(.64 0 0 -.72 0 360)">
    <path d="M449 543a86 86 0 1 0-172 0 86 86 0 0 0 172 0" style="fill: rgb(41, 117, 169);"/>
  </g>
  <path fill="none" d="M0 0h480v360H0Z"/>
</svg>