<?xml version="1.0" encoding="utf-8"?>
<svg width="1212.377" height="1597" viewBox="0 0 1212.377 1597" fill="none" xmlns="http://www.w3.org/2000/svg">
  <defs>
    <linearGradient id="mac_gradient_1" gradientUnits="userSpaceOnUse" x1="562.824" y1="213.137" x2="565.53" y2="63.17">
      <stop offset="0" stop-color="#B5AD9A" />
      <stop offset="1" stop-color="#8C8572" />
    </linearGradient>
    <linearGradient id="mac_gradient_2" gradientUnits="userSpaceOnUse" x1="96.552" y1="127.697" x2="96.552" y2="8.455">
      <stop offset="0" stop-color="#A1998D" />
      <stop offset="1" stop-color="#807967" />
    </linearGradient>
    <linearGradient id="mac_gradient_3" gradientUnits="userSpaceOnUse" x1="98.399" y1="481.814" x2="603.304" y2="946.326">
      <stop offset="0" stop-color="#E6DED1" />
      <stop offset="1" stop-color="#99917A" />
    </linearGradient>
    <linearGradient id="mac_gradient_4" gradientUnits="userSpaceOnUse" x1="776.539" y1="794.478" x2="1373.023" y2="1239.058">
      <stop offset="0" stop-color="#C3B7A0" />
      <stop offset="1" stop-color="#C0B598" />
    </linearGradient>
    <linearGradient id="mac_gradient_5" gradientUnits="userSpaceOnUse" x1="217.988" y1="215.073" x2="430.988" y2="685.073">
      <stop offset="0" stop-color="#96876C" />
      <stop offset="1" stop-color="#E6DED1" />
    </linearGradient>
    <linearGradient id="mac_gradient_6" gradientUnits="userSpaceOnUse" x1="101.665" y1="81.037" x2="25.105" y2="0.87">
      <stop offset="0" stop-color="#DBD0C0" />
      <stop offset="1" stop-color="#C0B598" />
    </linearGradient>
    <linearGradient id="mac_gradient_7" gradientUnits="userSpaceOnUse" x1="252.119" y1="-21.556" x2="313.622" y2="167.987">
      <stop offset="0" stop-color="#8E8774" />
      <stop offset="1" stop-color="#DBD1C1" />
    </linearGradient>
    <linearGradient id="mac_gradient_8" gradientUnits="userSpaceOnUse" x1="25.568" y1="65.476" x2="25.568" y2="-0">
      <stop offset="0" stop-color="#9C9381" />
      <stop offset="0.5" stop-color="#8C8673" />
      <stop offset="1" stop-color="#908976" />
    </linearGradient>
    <linearGradient id="mac_gradient_9" gradientUnits="userSpaceOnUse" x1="21.22" y1="33.129" x2="28.827" y2="9.305">
      <stop offset="0" stop-color="#948D7B" />
      <stop offset="0.46" stop-color="#8F8875" />
      <stop offset="1" stop-color="#A79F8D" />
    </linearGradient>
    <linearGradient id="mac_gradient_10" gradientUnits="userSpaceOnUse" x1="30.348" y1="39.083" x2="19.294" y2="8.868">
      <stop offset="0" stop-color="#D4CABA" />
      <stop offset="0.46" stop-color="#A69E8D" />
      <stop offset="1" stop-color="#ACA492" />
    </linearGradient>
    <filter color-interpolation-filters="sRGB" x="-77.91" y="-77.849" width="79.91" height="79.849" id="mac_filter_11">
      <feFlood flood-opacity="0" result="BackgroundImageFix_1" />
      <feBlend mode="normal" in="SourceGraphic" in2="BackgroundImageFix_1" result="Shape_2" />
      <feColorMatrix type="matrix" values="0 0 0 0 0 0 0 0 0 0 0 0 0 0 0 0 0 0 1 0" in="SourceAlpha" result="HardAlpha_3" />
      <feOffset dx="-4" dy="-4" />
      <feGaussianBlur stdDeviation="1" />
      <feComposite operator="arithmetic" k2="-1" k3="1" in2="HardAlpha_3" />
      <feColorMatrix type="matrix" values="0 0 0 0 1 0 0 0 0 1 0 0 0 0 1 0 0 0 0.498 0" />
      <feBlend mode="normal" in2="Shape_2" result="InnerShadow_4" />
      <feColorMatrix type="matrix" values="0 0 0 0 0 0 0 0 0 0 0 0 0 0 0 0 0 0 1 0" in="SourceAlpha" result="HardAlpha_5" />
      <feOffset dx="4" dy="4" />
      <feGaussianBlur stdDeviation="1" />
      <feComposite operator="arithmetic" k2="-1" k3="1" in2="HardAlpha_5" />
      <feColorMatrix type="matrix" values="0 0 0 0 0 0 0 0 0 0 0 0 0 0 0 0 0 0 0.498 0" />
      <feBlend mode="normal" in2="InnerShadow_4" result="InnerShadow_6" />
    </filter>
    <linearGradient id="mac_gradient_12" gradientUnits="userSpaceOnUse" x1="0.003" y1="358.186" x2="953.014" y2="358.186">
      <stop offset="0" stop-color="#000000" />
      <stop offset="0.5" stop-color="#626864" />
      <stop offset="1" stop-color="#000000" />
    </linearGradient>
  </defs>
  <g>
    <g>
      <g transform="translate(40.481 1386.199)">
        <path d="M2.56808e-05 188.444C0.00431437 200.796 10.0204 210.805 22.3717 210.801C22.3717 210.801 1109.03 210.801 1109.03 210.801C1121.38 210.805 1131.4 200.795 1131.4 188.444C1131.4 188.444 1131.4 22.3572 1131.4 22.3572C1131.4 10.0127 1121.39 6.4202e-06 1109.04 0C1109.04 0 22.3707 0 22.3707 0C10.0194 -0.00372371 0.00369803 10.0059 0 22.3572C0 22.3572 0 188.444 0 188.444C0 188.444 2.56808e-05 188.444 2.56808e-05 188.444Z" fill="url(#mac_gradient_1)" />
        <g transform="translate(866.135 74.53)">
          <path d="M193.358 89.4287C193.358 94.7201 189.063 99.0084 183.772 99.0084C183.772 99.0084 9.58646 99.0084 9.58646 99.0084C7.0446 99.0102 4.60621 98.0017 2.80822 96.2049C1.01021 94.4082 0 91.9705 0 89.4287C0 89.4287 0 9.57972 0 9.57972C0 4.28832 4.29506 0 9.58646 0C9.58646 0 183.772 0 183.772 0C189.07 0 193.358 4.28832 193.358 9.57972C193.358 9.57972 193.358 89.4287 193.358 89.4287C193.358 89.4287 193.358 89.4287 193.358 89.4287Z" fill="url(#mac_gradient_2)" transform="scale(1 1)" />
          <path d="M66.5359 60.6828C66.5359 61.5303 66.129 62.343 65.4051 62.9416C64.6812 63.5402 63.6996 63.8756 62.6769 63.8739C62.6769 63.8739 3.85885 63.8739 3.85885 63.8739C2.83621 63.8756 1.85468 63.5402 1.13073 62.9416C0.406784 62.343 0 61.5303 0 60.6828C0 60.6828 0 3.191 0 3.191C0 1.4272 1.72228 0 3.85891 0C3.85891 0 62.677 0 62.677 0C64.8136 0 66.5359 1.4272 66.5359 3.191C66.5359 3.191 66.5359 60.6828 66.5359 60.6828C66.5359 60.6828 66.5359 60.6828 66.5359 60.6828Z" fill="#756953" transform="translate(106.384 19.176)" />
          <path d="M37.6063 15.174L37.6063 7.98422L30.8552 7.98422L30.8552 0L13.5022 0L13.5022 7.98421L6.7511 7.98421L6.7511 15.174L0 15.174L0 51.9041L44.3573 51.9041L44.3573 15.174L37.6062 15.174L37.6063 15.174Z" fill="#000000" transform="translate(118.36 21.967)" />
        </g>
      </g>
      <path d="M1212.38 1396.84C1212.37 1418.02 1195.2 1435.18 1174.02 1435.17C1174.02 1435.17 38.3526 1435.17 38.3526 1435.17C17.1785 1435.18 0.00747311 1418.02 0 1396.84C0 1396.84 0 38.3256 0 38.3256C0.00731902 17.1518 17.1782 -0.00730939 38.3523 3.2101e-06C38.3523 3.2101e-06 1174.02 3.2101e-06 1174.02 3.2101e-06C1195.19 -0.00746027 1212.36 17.1515 1212.37 38.3256C1212.37 38.3256 1212.37 1396.84 1212.37 1396.84L1212.38 1396.84C1212.38 1396.84 1212.38 1396.84 1212.38 1396.84Z" fill="url(#mac_gradient_3)" />
      <path d="M1159.11 1278.65C1159.11 1287.48 1151.95 1294.63 1143.13 1294.62C1143.13 1294.62 15.9819 1294.62 15.9819 1294.62C7.15908 1294.63 0.00374985 1287.48 0 1278.65C0 1278.65 0 15.9684 0 15.9684C0.00431442 7.14453 7.16014 -0.00431061 15.983 0C15.983 0 1143.13 0 1143.13 0C1151.95 -0.00370026 1159.11 7.14561 1159.11 15.9684C1159.11 15.9684 1159.11 1278.65 1159.11 1278.65C1159.11 1278.65 1159.11 1278.65 1159.11 1278.65Z" fill="url(#mac_gradient_4)" transform="translate(26.626 70.276)" />
      <path d="M1016.35 755.916C1016.35 759.482 1014.88 762.706 1012.53 765.024C1008.62 768.873 999.113 768.694 993.624 768.694C896.601 768.694 119.745 768.694 22.7217 768.694C17.2333 768.694 7.73088 768.872 3.81862 765.023C3.77052 764.976 3.7228 764.928 3.67546 764.88C-0.17717 760.971 0 751.467 0 745.979C0 664.283 0 104.411 0 22.715C0 17.2266 -0.177605 7.7236 3.67382 3.81358C3.7215 3.76518 3.76957 3.71715 3.81802 3.66951C7.73093 -0.178986 17.2333 0 22.7217 0C119.745 0 896.601 0 993.624 0C999.113 0 1008.62 -0.178986 1012.53 3.66948C1012.58 3.71713 1012.62 3.76517 1012.67 3.8136C1016.52 7.72456 1016.35 17.2266 1016.35 22.715C1016.35 110.878 1016.35 755.916 1016.35 755.916Z" fill="url(#mac_gradient_5)" transform="translate(98.013 146.927)" />
      <g transform="translate(566.233 1083.827)">
        <g transform="translate(370.74 16.777)">
          <path d="M0 0L131.04 0L131.04 86.2378L0 86.2378L0 0Z" fill="url(#mac_gradient_6)" />
          <path d="M0 0L131.04 0L131.04 86.2378L0 86.2378L0 0Z" fill="#8A8373" />
        </g>
        <path d="M0 0L467.697 0L467.697 44.7144L0 44.7144L0 0Z" fill="#000000" transform="translate(39.949 43.652)" />
        <path d="M535.34 0.000205446C535.34 0.000205446 345.173 0.000205446 345.173 0.000205446C338.111 0.000205446 332.389 5.7225 332.389 12.7776C332.389 12.7776 332.389 27.1505 332.389 27.1505C332.389 27.1505 12.7842 27.1505 12.7842 27.1505C5.72229 27.1505 0 32.8728 0 39.9279C0 39.9279 0 79.8558 0 79.8558C0 86.911 5.72229 92.6332 12.7842 92.6332C12.7842 92.6332 332.389 92.6332 332.389 92.6332C332.389 92.6332 332.389 107.006 332.389 107.006C332.389 114.061 338.111 119.784 345.173 119.784C345.173 119.784 535.34 119.784 535.34 119.784C542.402 119.784 548.125 114.061 548.125 107.006C548.125 107.006 548.125 12.7842 548.125 12.7842C548.125 5.72229 542.402 0 535.34 0C535.34 0 535.34 0.000205446 535.34 0.000205446ZM501.781 90.2365C501.781 97.2917 496.059 103.014 488.997 103.014C488.997 103.014 383.525 103.014 383.525 103.014C376.468 103.014 370.745 97.2944 370.741 90.2365C370.741 90.2365 370.741 71.8714 370.741 71.8714C370.741 71.8714 51.1366 71.8714 51.1366 71.8714C47.6071 71.8714 44.7448 69.0121 44.7411 65.4827C44.7411 65.4827 44.7411 54.3008 44.7411 54.3008C44.7447 50.7713 47.607 47.912 51.1365 47.912C51.1365 47.912 370.741 47.912 370.741 47.912C370.741 47.912 370.741 29.547 370.741 29.547C370.741 22.4917 376.463 16.7695 383.525 16.7695C383.525 16.7695 488.997 16.7695 488.997 16.7695C496.059 16.7695 501.781 22.4918 501.781 29.547C501.781 29.547 501.781 90.2365 501.781 90.2365C501.781 90.2365 501.781 90.2365 501.781 90.2365Z" fill="url(#mac_gradient_7)" />
        <path d="M0 3.46027C0 1.54922 1.55225 0 3.46704 0C5.38184 0 6.93408 1.54922 6.93408 3.46027C6.93408 5.37132 5.38184 6.92053 3.46704 6.92053C1.55225 6.92053 0 5.37132 0 3.46027Z" fill="#AFAAA0" fill-rule="evenodd" transform="matrix(1 0 0 1 521.765 86.099)" />
        <path d="M0 3.46027C0 1.54922 1.55225 0 3.46704 0C5.38184 0 6.93408 1.54922 6.93408 3.46027C6.93408 5.37132 5.38184 6.92053 3.46704 6.92053C1.55225 6.92053 0 5.37132 0 3.46027Z" fill="#000000" fill-rule="evenodd" transform="matrix(1 0 0 1 521.765 84.901)" />
        <path d="M51.1368 20.7616C47.6074 20.7616 44.7451 23.6209 44.7414 27.1503C44.7414 27.1503 44.7414 38.3322 44.7414 38.3322C44.745 41.8617 47.6073 44.721 51.1368 44.721C51.1368 44.721 12.7842 65.4827 12.7842 65.4827C5.7263 65.4827 0.00380075 59.7632 0 52.7053C0 52.7053 0 12.7774 0 12.7774C0 5.72219 5.72229 0 12.7842 0C12.7842 0 51.1368 20.7617 51.1368 20.7617C51.1368 20.7617 51.1368 20.7616 51.1368 20.7616Z" fill="url(#mac_gradient_8)" transform="matrix(1 0 0 1 0 27.15)" />
        <path d="M51.1368 16.7696C44.0749 16.7696 38.3526 22.4919 38.3526 29.547C38.3526 29.547 38.3526 43.1716 38.3526 43.1716L0.372223 27.1716C0.372223 27.1716 0 12.7774 0 12.7774C0 5.7222 5.72229 0 12.7842 0C12.7842 0 51.1368 16.7696 51.1368 16.7696C51.1368 16.7696 51.1368 16.7696 51.1368 16.7696Z" fill="url(#mac_gradient_9)" transform="matrix(1 0 0 1 332.395 0.001)" />
        <path d="M38.3528 17.0653C38.3528 24.1205 44.075 29.8427 51.1369 29.8427C51.1369 29.8427 12.7843 46.6123 12.7843 46.6123C5.72644 46.6123 0.00393677 40.8928 0.00012207 33.8349C0.00012207 33.8349 0 17.0654 0 17.0654L38.3527 0L38.3528 17.0653C38.3528 17.0653 38.3528 17.0653 38.3528 17.0653Z" fill="url(#mac_gradient_10)" transform="matrix(1 0 0 1 332.395 73.173)" />
      </g>
      <g transform="translate(85.745 1209.194)">
        <path d="M79.9095 73.4671C79.9021 76.9939 77.041 79.8491 73.5141 79.8491C73.5141 79.8491 6.39546 79.8491 6.39546 79.8491C2.86598 79.8491 0.00369803 76.9899 0 73.4604C0 73.4604 0 6.38877 0 6.38877C0.00367235 2.8593 2.8659 0 6.39539 0C6.39539 0 73.514 0 73.514 0C77.0462 0 79.9095 2.86331 79.9095 6.39545C79.9095 6.39545 79.9095 73.4604 79.9095 73.4604C79.9095 73.4604 79.9095 73.4671 79.9095 73.4671Z" fill="#C3B7A0" fill-opacity="0.6" filter="url(#mac_filter_11)" transform="scale(1 1)" />
        <path d="M0 0C3.60838 5.09614 7.69476 8.05145 9.99036 8.0986C14.723 8.20636 18.8363 5.00862 22.2293 5.09614C22.2644 5.10518 22.301 5.10744 22.337 5.10292C22.337 5.10292 22.5255 5.10292 22.5255 5.10292C25.9185 5.00862 30.0317 8.21313 34.7779 8.09871C37.0735 8.04488 41.1599 5.09624 44.7615 0.000102997C44.7615 0.000102997 2.47955e-05 0.000102997 2.47955e-05 0.000102997C2.47955e-05 0.000102997 0 0 0 0Z" fill="#009DDD" transform="matrix(1 0 0 1 19.062 63.624)" />
        <path d="M0 0.00667572C1.22523 3.01598 2.76015 5.72902 4.38258 8.03137C4.38258 8.03137 49.1508 8.03137 49.1508 8.03137C50.7732 5.72224 52.3149 3.01598 53.5267 0C53.5267 0 0.00675392 0 0.00675392 0C0.00675392 0 0 0.00667572 0 0.00667572Z" fill="#944D85" transform="matrix(1 0 0 1 14.673 55.609)" />
        <path d="M0 0.00667572C0.451057 3.15052 1.31275 6.11942 2.41009 8.83911C2.41009 8.83911 55.9435 8.83911 55.9435 8.83911C56.1252 8.38805 56.3003 7.93032 56.4686 7.46581C52.941 6.36174 50.0462 3.60835 48.4777 0C48.4777 0 0.00680542 0 0.00680542 0C0.00680542 0 0 0.00667572 0 0.00667572Z" fill="#C45152" transform="translate(12.263 46.759)" />
        <path d="M2.9621 0C1.54837 2.26198 0.444304 5.15007 0 8.83252C0 8.83252 47.5822 8.83252 47.5822 8.83252C48.1857 5.2756 50.1698 2.10112 53.1026 0.000102997C53.1026 0.000102997 2.96218 0.000102997 2.96218 0.000102997C2.96218 0.000102997 2.9621 0 2.9621 0Z" fill="#F2BD2F" transform="translate(12.136 29.114)" />
        <path d="M0.220341 0C-0.113175 2.94 -0.0679255 5.91061 0.354985 8.83911C0.354985 8.83911 48.8393 8.83911 48.8393 8.83911C47.6348 6.05792 47.2789 2.98284 47.8161 0C47.8161 0 0.220366 0 0.220366 0C0.220366 0 0.220341 0 0.220341 0Z" fill="#E19433" transform="matrix(1 0 0 1 11.908 37.92)" />
        <path d="M26.3829 2.93367C26.3829 2.93367 26.3022 2.93367 26.3022 2.93367C23.0707 2.87984 17.1129 -0.391991 12.8852 0.0456085C10.778 0.261019 4.05271 1.66134 0 8.1106C0 8.1106 50.1404 8.1106 50.1404 8.1106C50.6457 7.75291 51.1742 7.42913 51.7224 7.1413C47.9255 1.16323 41.7455 0.240988 39.8067 0.0390339C35.5655 -0.391785 29.6144 2.88672 26.3829 2.93377C26.3829 2.93377 26.3829 2.93367 26.3829 2.93367Z" fill="#76B845" transform="translate(15.104 20.984)" />
        <path d="M13.3949 0.0383158C13.065 -0.230923 7.06679 0.866371 3.33049 5.02678C-0.392349 9.18719 -0.156704 15.5154 0.166412 15.7982C0.503036 16.0674 6.59554 15.1115 10.2309 10.8029C13.8662 6.50107 13.7315 0.307555 13.3949 0.0383158C13.3949 0.0383158 13.3949 0.0383158 13.3949 0.0383158Z" fill="#76B845" transform="matrix(1 0 0 1 39.521 5.737)" />
      </g>
    </g>
    <g transform="translate(129.684 173.088)">
      <path d="M476.505 0C657.941 0 885.465 17.3956 885.465 17.3956C925.783 21.0579 949.332 48.2218 949.332 87.3552C949.332 87.3552 953.297 268.024 952.994 328.047C952.583 410.514 946.477 657.312 946.477 657.312C946.477 696.392 921.212 709.438 882.132 709.438C882.132 709.438 476.505 716.359 476.505 716.359C476.505 716.359 70.8782 709.438 70.8782 709.438C31.7986 709.438 6.53319 696.392 6.53319 657.312C6.53319 657.312 0.427226 410.514 0.0165384 328.047C-0.286392 268.024 3.67877 87.3553 3.67877 87.3553C3.67877 48.2218 27.2275 21.0579 67.5459 17.3957C67.5459 17.3957 295.076 2.56808e-05 476.505 2.56808e-05C476.505 2.56808e-05 476.505 0 476.505 0Z" fill="url(#mac_gradient_12)" stroke-width="3" stroke="#000000" transform="scale(1 1)" />
      <path d="M858.904 596.225C858.904 596.225 29.3249 596.225 29.3249 596.225C13.1292 596.225 0 583.096 0 566.9C0 566.9 0 29.3248 0 29.3248C0 13.1292 13.1292 0 29.3249 0C29.3249 0 858.903 0 858.903 0C875.099 -2.67029e-05 888.228 13.1292 888.228 29.3249C888.228 29.3249 888.228 566.9 888.228 566.9C888.228 583.096 875.099 596.225 858.904 596.225C858.904 596.225 858.904 596.225 858.904 596.225Z" fill="#BBEAFE" transform="translate(32.391 60.071)" />
    </g>
  </g>
</svg>