<?xml version="1.0" encoding="utf-8"?>
<svg width="384" height="694" viewBox="0 0 384 694" fill="none" xmlns="http://www.w3.org/2000/svg">
  <defs>
    <filter color-interpolation-filters="sRGB" x="-382" y="-692" width="384" height="694" id="mobile_filter_1">
      <feFlood flood-opacity="0" result="BackgroundImageFix_1" />
      <feBlend mode="normal" in="SourceGraphic" in2="BackgroundImageFix_1" result="Shape_2" />
      <feColorMatrix type="matrix" values="0 0 0 0 0 0 0 0 0 0 0 0 0 0 0 0 0 0 1 0" in="SourceAlpha" result="HardAlpha_3" />
      <feMorphology radius="0.5" operator="erode" in="SourceAlpha" />
      <feOffset dx="0" dy="0" />
      <feGaussianBlur stdDeviation="0.5" />
      <feComposite operator="arithmetic" k2="-1" k3="1" in2="HardAlpha_3" />
      <feColorMatrix type="matrix" values="0 0 0 0 0.667 0 0 0 0 0.667 0 0 0 0 0.667 0 0 0 1 0" />
      <feBlend mode="normal" in2="Shape_2" result="InnerShadow_4" />
    </filter>
    <linearGradient id="mobile_gradient_2" gradientUnits="userSpaceOnUse" x1="172" y1="0" x2="172" y2="654">
      <stop offset="0" stop-color="#101652" />
      <stop offset="1" stop-color="#173073" />
    </linearGradient>
  </defs>
  <g>
    <g>
      <path d="M30 0L354 0C370.571 0 384 13.4292 384 30L384 664C384 680.571 370.571 694 354 694L30 694C13.4292 694 0 680.571 0 664L0 30C0 13.4292 13.4292 0 30 0L30 0Z" fill="#6D6E70" filter="url(#mobile_filter_1)" />
      <path d="M29 0L353 0C369.018 0 382 12.9816 382 29L382 663C382 679.018 369.018 692 353 692L29 692C12.9816 692 0 679.018 0 663L0 29C0 12.9816 12.9816 0 29 0L29 0Z" fill="#000000" transform="translate(1 1)" />
    </g>
    <path d="M12 0L332 0C338.628 0 344 5.37168 344 12L344 642C344 648.628 338.628 654 332 654L12 654C5.37168 654 0 648.628 0 642L0 12C0 5.37168 5.37168 0 12 0L12 0Z" fill="url(#mobile_gradient_2)" transform="translate(20 19)" />
    <g transform="translate(162 17)">
      <path d="M0 0C0 0 8 0 8 0C9.65698 0 12 1.07043 12 4C12 4 12 8 12 8C12 13.9762 15.1357 17 21 17C21 17 35 17 35 17C40.8846 17 44 14.1063 44 8C44 8 44 4 44 4C44 1.1355 46.343 0 48 0C48 0 56 0 56 0C56 0 0 0 0 0Z" fill="#000000" transform="translate(0 2)" />
      <path d="M0 5C0 2.23858 2.23858 0 5 0C7.76142 0 10 2.23858 10 5C10 7.76142 7.76142 10 5 10C2.23858 10 0 7.76142 0 5Z" fill="#21212E" fill-rule="evenodd" transform="translate(23 0)" />
    </g>
  </g>
</svg>