<?xml version="1.0" encoding="utf-8"?>
<svg width="300" height="300" viewBox="0 0 300 300" fill="none" xmlns="http://www.w3.org/2000/svg">
  <defs>
    <linearGradient id="gradient_1" gradientUnits="userSpaceOnUse" x1="0" y1="0" x2="90" y2="90">
      <stop offset="0.395" stop-color="#888888" />
      <stop offset="0.582" stop-color="#000000" />
    </linearGradient>
    <radialGradient id="gradient_2" gradientUnits="userSpaceOnUse" cx="0" cy="0" r="1" gradientTransform="matrix(34 33 -32.41 33.392 46 47)">
      <stop offset="0" stop-color="#555555" />
      <stop offset="1" stop-color="#333333" />
    </radialGradient>
  </defs>
  <g>
    <g transform="translate(205 154)">
      <path d="M10 0L80 0C85.5236 0 90 4.4764 90 10L90 80C90 85.5236 85.5236 90 80 90L10 90C4.4764 90 0 85.5236 0 80L0 10C0 4.4764 4.4764 0 10 0L10 0Z" fill="url(#gradient_1)" stroke-width="1" stroke="#000000" />
      <path d="M6 0L74 0C77.3142 0 80 2.68584 80 6L80 74C80 77.3142 77.3142 80 74 80L6 80C2.68584 80 0 77.3142 0 74L0 6C0 2.68584 2.68584 0 6 0L6 0Z" fill="url(#gradient_2)" transform="translate(5 5)" />
      <g transform="matrix(0 1 -1 0 68 30)">
        <path d="M16 0L32 28L0 28L16 0Z" fill="#949494" fill-rule="evenodd" stroke-width="3" stroke="#949494" stroke-linecap="round" stroke-linejoin="round" transform="translate(0 0)" />
        <rect width="10" height="22" fill="#949494" fill-rule="evenodd" stroke-width="3" stroke="#949494" stroke-linecap="round" stroke-linejoin="round" transform="translate(11 24)" />
      </g>
    </g>
    <g transform="translate(5 154)">
      <path d="M10 0L80 0C85.5236 0 90 4.4764 90 10L90 80C90 85.5236 85.5236 90 80 90L10 90C4.4764 90 0 85.5236 0 80L0 10C0 4.4764 4.4764 0 10 0L10 0Z" fill="url(#gradient_1)" stroke-width="1" stroke="#000000" />
      <path d="M6 0L74 0C77.3142 0 80 2.68584 80 6L80 74C80 77.3142 77.3142 80 74 80L6 80C2.68584 80 0 77.3142 0 74L0 6C0 2.68584 2.68584 0 6 0L6 0Z" fill="url(#gradient_2)" transform="translate(5 5)" />
      <g transform="matrix(0 -1 1 0 22 61)">
        <path d="M16 0L32 28L1.98952e-13 28L16 0Z" fill="#949494" fill-rule="evenodd" stroke-width="3" stroke="#949494" stroke-linecap="round" stroke-linejoin="round" transform="matrix(1 -0 0 1 0 -0)" />
        <rect width="10" height="22" fill="#949494" fill-rule="evenodd" stroke-width="3" stroke="#949494" stroke-linecap="round" stroke-linejoin="round" transform="matrix(1 -0 0 1 11 24)" />
      </g>
    </g>
    <g transform="translate(105 154)">
      <path d="M10 0L80 0C85.5236 0 90 4.4764 90 10L90 80C90 85.5236 85.5236 90 80 90L10 90C4.4764 90 0 85.5236 0 80L0 10C0 4.4764 4.4764 0 10 0L10 0Z" fill="url(#gradient_1)" stroke-width="1" stroke="#000000" />
      <path d="M6 0L74 0C77.3142 0 80 2.68584 80 6L80 74C80 77.3142 77.3142 80 74 80L6 80C2.68584 80 0 77.3142 0 74L0 6C0 2.68584 2.68584 0 6 0L6 0Z" fill="url(#gradient_2)" transform="translate(5 5)" />
      <g transform="matrix(-1 0 -0 -1 61 68)">
        <path d="M16 0L32 28L0 28L16 0Z" fill="#949494" fill-rule="evenodd" stroke-width="3" stroke="#949494" stroke-linecap="round" stroke-linejoin="round" />
        <rect width="10" height="22" fill="#949494" fill-rule="evenodd" stroke-width="3" stroke="#949494" stroke-linecap="round" stroke-linejoin="round" transform="translate(11 24)" />
      </g>
    </g>
    <g transform="translate(105 56)">
      <path d="M10 0L80 0C85.5236 0 90 4.4764 90 10L90 80C90 85.5236 85.5236 90 80 90L10 90C4.4764 90 0 85.5236 0 80L0 10C0 4.4764 4.4764 0 10 0L10 0Z" fill="url(#gradient_1)" stroke-width="1" stroke="#000000" />
      <path d="M6 0L74 0C77.3142 0 80 2.68584 80 6L80 74C80 77.3142 77.3142 80 74 80L6 80C2.68584 80 0 77.3142 0 74L0 6C0 2.68584 2.68584 0 6 0L6 0Z" fill="url(#gradient_2)" transform="translate(5 5)" />
      <g transform="translate(29 22)">
        <path d="M16 0L32 28L0 28L16 0Z" fill="#949494" fill-rule="evenodd" stroke-width="3" stroke="#949494" stroke-linecap="round" stroke-linejoin="round" />
        <rect width="10" height="22" fill="#949494" fill-rule="evenodd" stroke-width="3" stroke="#949494" stroke-linecap="round" stroke-linejoin="round" transform="translate(11 24)" />
      </g>
    </g>
  </g>
</svg>